<svg width="113" height="61" viewBox="0 0 113 61" fill="none" xmlns="http://www.w3.org/2000/svg">
<path d="M69.0214 0.912598C68.3357 0.912598 67.8268 1.10036 67.4388 1.49702C67.0499 1.88429 66.8543 2.37201 66.8543 2.95807C66.8543 3.58227 67.0584 4.09457 67.4631 4.46782C67.8662 4.84109 68.4075 5.02789 69.0703 5.02789C69.6262 5.02789 70.1776 4.83953 70.4582 4.56522L70.2143 4.07828C69.9087 4.29882 69.5365 4.41919 69.1186 4.41919C68.639 4.41919 68.2634 4.27097 67.9741 4.00523C67.685 3.73944 67.5362 3.39213 67.5362 2.95811C67.5362 2.52405 67.6757 2.17755 67.9502 1.91106C68.2317 1.64455 68.5725 1.52145 69.0216 1.52145C69.4099 1.52145 69.7568 1.60773 70.0687 1.78931L70.385 1.30229C70.0406 1.03577 69.577 0.912676 69.0214 0.912676V0.912598ZM36.1723 0.936948C36.0585 0.936948 35.845 0.953506 35.5635 0.961299C35.2821 0.969092 35.0955 0.961299 35.0035 0.961299H34.9304V4.95483H35.0035C35.1407 4.95483 35.329 4.94704 35.5879 4.95483C35.8546 4.96263 36.041 4.95483 36.1236 4.95483C36.9307 4.95483 37.5392 4.7735 37.9743 4.39477C38.4078 4.01369 38.6317 3.51798 38.6317 2.9094C38.6317 2.32339 38.4261 1.85394 38.023 1.49706C37.6193 1.13149 37.0092 0.93691 36.1723 0.93691V0.936948ZM46.8376 0.936948L44.9626 4.9548H45.6201L46.1071 3.88336H48.1039L48.5909 4.9548H49.2727L47.3977 0.936948H46.8377H46.8376ZM56.0909 0.961299V4.95483H56.6997V2.00842L59.2809 4.95483H59.8166V0.961299H59.2078V3.90771L56.6266 0.961299H56.0909ZM77.3981 0.961299V4.95483H80.0523V4.34606H78.0555V3.25032H79.8088V2.64155H78.0555V1.57011H79.9792V0.961338H77.398L77.3981 0.961299ZM36.1474 1.54572C37.3271 1.54572 37.9493 2.06461 37.9493 2.90937C37.9493 3.79854 37.2967 4.37041 36.1474 4.37041C36.1022 4.37041 35.8975 4.35386 35.563 4.34606V1.57007C35.8296 1.5615 36.0187 1.54494 36.1474 1.54572ZM47.1049 1.71617L47.811 3.27463H46.3744L47.1049 1.71617H47.1049ZM1.39934 16.0586C1.06249 16.0586 0.79057 16.3307 0.79057 16.6674C0.79057 17.0033 1.06326 17.2762 1.39934 17.2762C2.45823 17.2762 3.37359 17.8849 3.83442 18.7615C3.88589 18.8714 3.93218 18.9855 3.98053 19.1024C4.46787 20.2776 4.75975 21.7879 4.75975 23.4369V37.244C4.75975 38.8922 4.46787 40.4048 3.98053 41.5784C3.93218 41.6953 3.88589 41.8102 3.83442 41.9193C3.37671 42.7914 2.47561 43.3734 1.42373 43.3804C1.09624 43.3827 0.806209 43.6383 0.790609 43.9648C0.775736 44.3139 1.05389 44.5983 1.39932 44.5983C7.96173 44.5983 13.2825 43.262 13.2825 37.2444V23.5838C13.2856 23.5354 13.2825 23.4867 13.2825 23.4377C13.2825 21.7894 13.5752 20.2784 14.0617 19.1032C14.1101 18.9871 14.1564 18.8722 14.2078 18.7623C14.6695 17.8856 15.6084 17.2769 16.6672 17.2769C17.7261 17.2769 18.6407 17.8856 19.1023 18.7623C19.1538 18.8722 19.2001 18.9863 19.2484 19.1032C19.735 20.2784 20.0277 21.7887 20.0277 23.4377C20.0277 23.4626 20.0269 23.485 20.0277 23.5107C20.0269 23.5349 20.0277 23.5588 20.0277 23.5838C20.0277 25.2312 19.7358 26.7438 19.2484 27.9182C19.2001 28.0335 19.1538 28.1492 19.1023 28.2591C18.6407 29.1358 17.7261 29.7202 16.6672 29.7202C16.3304 29.7202 16.0585 29.9938 16.0585 30.3289C16.0585 30.6656 16.3312 30.9377 16.6672 30.9377C17.7261 30.9377 18.6407 31.5464 19.1023 32.4231C19.1538 32.5329 19.2001 32.6463 19.2484 32.764C19.735 33.9376 20.0277 35.451 20.0277 37.0984C20.0277 37.1234 20.0269 37.1458 20.0277 37.1715C20.0269 37.1956 20.0277 37.2196 20.0277 37.2445C20.0277 38.8928 19.7358 40.4054 19.2484 41.579C19.2001 41.6959 19.1538 41.8108 19.1023 41.9199C18.6407 42.7966 17.7261 43.3809 16.6672 43.3809C16.3304 43.3809 16.0585 43.6538 16.0585 43.9897C16.0585 44.3256 16.3312 44.5985 16.6672 44.5985C23.2304 44.5985 28.5504 43.2622 28.5504 37.2445V37.1715V37.0984C28.5504 33.142 26.2471 31.1916 22.8036 30.3289C26.2471 29.4678 28.5504 27.5418 28.5504 23.5838V23.5107V23.4377C28.5512 17.4177 23.2305 16.0594 16.6672 16.0594H16.6429C14.4097 16.0594 12.3401 16.2247 10.5552 16.6682C9.55786 16.916 8.51019 16.916 7.51137 16.6682C5.7264 16.2279 3.63324 16.0611 1.39928 16.0611L1.39934 16.0586ZM44.0129 16.0586C37.4497 16.0594 32.1297 17.4192 32.1297 23.4369C32.1297 23.461 32.1289 23.4842 32.1297 23.5099C32.1289 23.5349 32.1297 23.5573 32.1297 23.583C32.1297 27.541 34.4339 29.4662 37.8765 30.3281C34.4339 31.1908 32.1297 33.1396 32.1297 37.0976C32.1297 37.1226 32.1289 37.145 32.1297 37.1707C32.1289 37.1941 32.1297 37.218 32.1297 37.2438C32.1297 43.2614 37.4496 44.5977 44.0129 44.5977C50.5753 44.5977 55.8961 43.2606 55.8961 37.2438C55.8961 31.2253 47.3737 33.5032 47.3737 37.2438C47.3737 38.8912 47.0818 40.4038 46.5945 41.5782C46.5461 41.6943 46.5006 41.8085 46.4484 41.9191C45.9875 42.7958 45.0729 43.3802 44.0133 43.3802C42.9544 43.3802 42.039 42.7958 41.5782 41.9191C41.5267 41.8085 41.4797 41.6959 41.4321 41.5782C40.9447 40.4046 40.6529 38.892 40.6529 37.2438C40.6529 37.2188 40.6537 37.1949 40.6529 37.1707C40.6537 37.1458 40.6529 37.1226 40.6529 37.0976C40.6529 35.4502 40.9447 33.9368 41.4321 32.7632C41.4804 32.6463 41.5267 32.5322 41.5782 32.4223C42.039 31.5456 42.9544 30.9369 44.0133 30.9369C45.0729 30.9369 45.9875 31.5464 46.4484 32.4223C49.1354 32.4223 49.1354 28.2583 46.4484 28.2583C45.9875 29.135 45.0729 29.7194 44.0133 29.7194C42.9544 29.7194 42.039 29.135 41.5782 28.2583C41.5267 28.1485 41.4797 28.0335 41.4321 27.9174C40.9447 26.7423 40.6529 25.2312 40.6529 23.583C40.6529 23.558 40.6537 23.5357 40.6529 23.5099C40.6537 23.485 40.6529 23.4618 40.6529 23.4369C40.6529 21.7902 40.9447 20.2768 41.4321 19.1024C41.4804 18.9863 41.5267 18.8714 41.5782 18.7615C42.039 17.8848 42.9544 17.2762 44.0133 17.2762C45.0729 17.2762 45.9875 17.8849 46.4484 18.7615C46.5006 18.8714 46.5469 18.9855 46.5945 19.1024C47.0818 20.2768 47.3737 21.7887 47.3737 23.4369C47.3737 27.1766 55.8961 29.4553 55.8961 23.4369C55.8961 17.4184 50.5754 16.0594 44.0129 16.0586ZM71.091 16.0586C64.5286 16.0594 59.2078 17.4192 59.2078 23.4369V23.5099V23.583C59.2078 29.6006 64.5285 30.9369 71.091 30.9369C72.1499 30.9369 73.0645 31.5464 73.5261 32.4223C73.5776 32.5329 73.6246 32.6455 73.6722 32.7632C74.1595 33.9368 74.4514 35.4494 74.4514 37.0976C74.4514 37.1218 74.4506 37.145 74.4514 37.1707C74.4506 37.1941 74.4514 37.218 74.4514 37.2438C74.4514 38.8912 74.1595 40.4038 73.6722 41.5782C73.6238 41.6943 73.5775 41.8085 73.5261 41.9191C73.0645 42.7958 72.1499 43.3802 71.091 43.3802C70.0321 43.3802 69.1175 42.7958 68.6559 41.9191C68.6045 41.8085 68.533 41.6959 68.4855 41.5782C67.9981 40.4046 67.7062 38.892 67.7062 37.2438C67.7062 33.5032 59.208 31.2253 59.208 37.2438C59.208 43.2614 64.5287 44.5977 71.0912 44.5977C77.6536 44.5977 82.9744 43.2606 82.9744 37.2438V37.1707V37.0976C82.9744 31.0816 77.6537 29.7194 71.0912 29.7194C70.0323 29.7194 69.1177 29.135 68.6561 28.2583C68.6047 28.1485 68.5332 28.0335 68.4857 27.9174C67.9983 26.7423 67.7064 25.2312 67.7064 23.583V23.5099V23.4369C67.7064 21.7894 67.9983 20.2768 68.4857 19.1024C68.534 18.9863 68.6047 18.8714 68.6561 18.7615C69.1177 17.8848 70.0323 17.2762 71.0912 17.2762C71.4281 17.2762 71.7 17.0025 71.7 16.6674C71.7 16.3307 71.4273 16.0586 71.0912 16.0586H71.091ZM85.068 16.0586C78.5056 16.0594 73.477 17.4192 73.477 23.4369C73.477 29.4545 81.9994 27.1766 81.9994 23.4369C81.9994 21.7894 82.2928 20.2768 82.7786 19.1024C82.8269 18.9863 82.8725 18.8714 82.9247 18.7615C83.3856 17.8848 84.0079 17.2762 85.0676 17.2762C86.1273 17.2762 87.0411 17.8849 87.5027 18.7615C87.5541 18.8714 87.6256 18.9855 87.6731 19.1024C88.1605 20.2768 88.4523 21.7887 88.4523 23.4369V37.244C88.4523 38.8914 88.1605 40.4041 87.6731 41.5784C87.6248 41.6945 87.5541 41.8087 87.5027 41.9193C87.0411 42.7961 86.1265 43.3804 85.0676 43.3804C84.8087 43.3804 84.5863 43.5489 84.5075 43.7944C84.3703 44.216 84.666 44.5979 85.0676 44.5979C87.3016 44.5979 89.3948 44.4577 91.1796 44.0135C92.1785 43.7672 93.2262 43.7672 94.2234 44.0135C96.0083 44.4569 98.1023 44.5979 100.335 44.5979C100.737 44.5979 101.032 44.2159 100.896 43.7944C100.815 43.5489 100.594 43.3804 100.335 43.3804C99.2766 43.3804 98.3612 42.796 97.9004 41.9193C97.8481 41.8087 97.8018 41.6953 97.7542 41.5784C97.2669 40.4041 96.9507 38.8922 96.9507 37.244V23.4369C96.9507 21.7894 97.2441 20.2768 97.7299 19.1024C97.779 18.9863 97.8481 18.8714 97.9004 18.7615C98.3612 17.8848 99.2766 17.2762 100.335 17.2762C101.394 17.2762 102.017 17.8849 102.478 18.7615C102.53 18.8714 102.6 18.9855 102.649 19.1024C103.135 20.2768 103.428 21.7887 103.428 23.4369C103.428 27.1766 111.926 29.4553 111.926 23.4369C111.926 17.4184 106.899 16.0594 100.335 16.0586C98.1021 16.0586 96.0081 16.2247 94.2233 16.6674C93.2259 16.9152 92.1783 16.9152 91.1794 16.6674C89.3945 16.2255 87.3014 16.0586 85.0674 16.0586H85.068ZM108.761 37.1951C106.404 37.1574 103.696 38.7924 103.696 40.8965C103.696 44.6362 112.219 46.9149 112.219 40.8965C112.219 38.2631 110.594 37.2245 108.761 37.1951H108.761ZM31.7338 56.7973C30.9592 56.8921 30.5894 57.3103 30.5894 57.8688C30.5894 59.2232 32.8776 58.9147 32.8784 59.7438C32.8784 60.0866 32.5327 60.3038 32.0991 60.3038C31.6118 60.3038 31.0823 60.1147 30.8086 59.8412L30.4433 60.2795C30.5868 60.4696 30.8037 60.6276 31.1008 60.7421C31.4049 60.8559 31.7388 60.9126 32.0748 60.9126C32.5084 60.9126 32.8647 60.8026 33.1463 60.596C33.427 60.3903 33.5602 60.1283 33.5602 59.7925C33.568 58.9711 32.7298 58.6695 32.0749 58.5019C31.6257 58.3726 31.2713 58.1988 31.2713 57.9175C31.2713 57.6066 31.579 57.4062 32.0749 57.4062C32.432 57.4062 32.9206 57.5517 33.195 57.7714L33.4872 57.3088C33.3578 57.163 33.1599 57.0425 32.8784 56.9435C32.6055 56.8453 32.3425 56.7974 32.0992 56.7974C31.9726 56.7974 31.8446 56.7838 31.734 56.7974L31.7338 56.7973ZM82.0913 56.7973C81.4504 56.7973 80.9187 56.9859 80.5086 57.3818C80.0976 57.7691 79.8755 58.2568 79.8755 58.8428C79.8755 59.4577 80.0976 59.9487 80.5086 60.3282C80.9281 60.7085 81.4582 60.9126 82.0913 60.9126C82.7229 60.9126 83.2388 60.7163 83.6498 60.3282C84.0685 59.9401 84.2586 59.4436 84.2586 58.8428C84.2586 58.2334 84.0685 57.7377 83.6498 57.3575C83.2389 56.9764 82.723 56.7974 82.0913 56.7974V56.7973ZM61.8806 56.8217C61.5991 56.8295 61.4117 56.846 61.3205 56.846H61.2474V60.8396H61.3205C61.4577 60.8396 61.6704 60.8318 61.9293 60.8396C62.1959 60.8466 62.3564 60.8396 62.4406 60.8396C63.2477 60.8396 63.8813 60.659 64.3156 60.2795C64.7499 59.8992 64.9487 59.4027 64.9487 58.7942C64.9487 58.2081 64.7439 57.7395 64.3399 57.3818C63.936 57.0171 63.3252 56.8217 62.4893 56.8217C62.3747 56.8217 62.162 56.8139 61.8805 56.8217L61.8806 56.8217ZM40.0381 56.846V57.4548H41.4991V60.8395H42.1566V57.4548H43.6419V56.846H40.038H40.0381ZM50.3628 56.846V59.135C50.3628 60.2611 51.1093 60.8883 52.2135 60.8883C52.7078 60.8883 53.1279 60.7564 53.4553 60.4743C53.7828 60.1852 53.9423 59.7542 53.9423 59.1838V56.8461H53.2849V59.0377C53.2849 59.838 52.9129 60.2795 52.2134 60.2795C51.4446 60.2795 51.0203 59.7965 51.0203 59.0133V56.8461H50.3628V56.846ZM72.1079 56.846V60.8396H72.741V56.846H72.1079ZM82.0913 57.4061C82.5171 57.4061 82.8569 57.545 83.1384 57.8201C83.4277 58.0858 83.5767 58.4243 83.5767 58.8428C83.5767 59.2597 83.4372 59.6148 83.1627 59.8899C82.8961 60.1626 82.5475 60.3038 82.0913 60.3038C81.6648 60.3038 81.2848 60.1468 80.9956 59.8655C80.7063 59.585 80.5816 59.2527 80.5816 58.8428C80.5816 58.4243 80.7141 58.0858 80.9956 57.82C81.284 57.5457 81.6562 57.4061 82.0913 57.4061L82.0913 57.4061ZM62.4891 57.4305C63.6697 57.4305 64.2667 57.9494 64.2667 58.7941C64.2667 59.6841 63.6141 60.2308 62.4647 60.2308C62.4203 60.2308 62.2384 60.2386 61.9047 60.2308V57.4548C62.1698 57.4462 62.362 57.4297 62.4891 57.4304L62.4891 57.4305Z" fill="#8C8C8C"/>
</svg>
