<svg width="108" height="45" viewBox="0 0 108 45" fill="none" xmlns="http://www.w3.org/2000/svg">
<path fill-rule="evenodd" clip-rule="evenodd" d="M22.3884 44.9126L22.607 44.9118H85.6205L85.6237 44.9117C97.6608 44.8144 107.385 35.0004 107.385 22.9124C107.385 10.8254 97.6775 1.01066 85.6394 0.913287L85.6362 0.913261H22.5771L22.3883 0.912598H22.3869C10.2667 0.912598 0.445312 10.7641 0.445312 22.9126C0.445312 35.0611 10.2667 44.9126 22.3869 44.9126H22.3884ZM18.7496 31.3958C17.4644 30.0376 17.8684 27.835 18.2842 25.5684L18.2842 25.5684C18.4307 24.7692 18.5788 23.9622 18.6547 23.1813C18.5838 23.2522 18.396 23.6119 18.1152 24.1497L18.1152 24.1497C16.8637 26.5469 13.7642 32.4837 10.9228 32.1666C7.83084 31.2027 8.2172 27.7226 9.18341 25.1139H14.2077C12.6618 29.365 14.7875 27.6261 16.2375 24.9209C19.1364 19.0264 19.33 18.5436 22.519 9.65244H28.0272C26.3847 14.6779 24.8377 19.6061 24.1624 24.8241C24.1624 25.0171 24.2584 25.2104 24.4519 25.1139C25.3167 24.9699 29.0894 16.9665 31.1882 12.5139C31.9014 11.0009 32.4214 9.89783 32.5683 9.65244H37.8826C37.8826 9.77238 37.5195 10.8568 36.9883 12.4432L36.9882 12.4433L36.9882 12.4434C35.3793 17.2482 32.2288 26.657 32.9553 27.8191C33.309 28.4549 33.7661 27.7478 34.2125 27.057L34.2126 27.0569C34.3766 26.8031 34.5392 26.5515 34.6948 26.3695L35.5653 27.2397C35.2391 27.6023 34.9027 28.0191 34.5524 28.4534C33.0344 30.3347 31.2534 32.5419 28.8976 32.0715C28.5108 31.9746 28.1242 31.7826 27.8351 31.4918C25.7708 29.695 27.6956 24.6618 28.9046 21.5005C29.4509 20.0719 29.851 19.0256 29.6708 18.8329C29.5266 18.849 29.3823 19.1597 29.1676 19.6217L29.1676 19.6219L29.1674 19.6222C29.1141 19.7369 29.0565 19.861 28.9935 19.9922C28.8013 20.3876 28.5802 20.8584 28.3345 21.3814C26.4785 25.3319 23.2216 32.2645 20.489 32.2645C20.0068 32.2645 19.0391 31.7824 18.7496 31.3958ZM41.7808 10.9884C41.7808 11.7583 41.1428 12.3491 40.4145 12.3491C39.668 12.3491 39.012 11.7581 39.012 10.9884C39.012 10.2188 39.668 9.66352 40.4145 9.66352C41.1428 9.66352 41.7808 10.2188 41.7808 10.9884ZM41.5077 10.9884C41.5077 10.3618 41.0335 9.87858 40.4145 9.87858C39.7948 9.87858 39.3037 10.3618 39.3035 10.9884C39.3035 11.6329 39.7947 12.0984 40.4145 12.0984C41.0335 12.0984 41.5077 11.6331 41.5077 10.9884ZM40.3964 11.0951H40.1229V11.7581H39.8867V10.2188H40.4876C40.852 10.2188 41.0338 10.3617 41.0338 10.666C41.0338 10.9348 40.8698 11.0601 40.633 11.078L41.0703 11.7581H40.8159L40.3964 11.0951ZM40.4509 10.4154H40.1228H40.1226V10.8988H40.4145C40.6149 10.8988 40.7972 10.8809 40.7972 10.6484C40.7972 10.4512 40.6151 10.4154 40.4509 10.4154ZM38.727 30.5824C38.727 31.3969 38.066 32.0575 37.2518 32.0575C36.4375 32.0575 35.7779 31.3969 35.7779 30.5824C35.7779 29.7682 36.4375 29.1088 37.2518 29.1088C38.066 29.1088 38.727 29.7682 38.727 30.5824ZM42.0601 24.6742C45.1636 14.2176 54.8352 11.4792 57.0092 12.6903C58.3305 13.432 53.504 20.8987 45.8912 24.857C45.3363 27.2162 45.9416 28.7912 46.4573 28.7252C48.0499 28.2436 47.3865 24.3093 47.3865 24.3093C47.3865 24.3093 50.2502 22.9315 50.4687 22.8159C51.6165 26.4007 49.7421 31.4963 46.1586 31.6301C41.5952 31.4804 41.8938 26.4674 41.8938 26.4674L39.1724 27.2975L39.9397 25.2309C39.9397 25.2309 41.6948 24.7746 42.0601 24.6742ZM53.9731 15.0804C55.4326 14.9487 48.4151 22.4173 46.6223 22.7821C46.0421 22.4506 51.0692 15.7944 53.9731 15.0804ZM52.8272 22.2352V23.7119C52.8272 23.7119 54.7687 22.4507 54.918 22.6834C54.9432 23.0235 54.3107 24.6635 53.6814 26.2953L53.6813 26.2955C53.0828 27.8472 52.4872 29.3915 52.4627 29.8038C52.4127 30.3186 52.8938 32.2608 55.166 31.2482C56.2788 30.7673 59.2612 28.3223 59.2612 28.3223C59.2612 28.3223 58.7807 29.5698 58.9847 30.567C59.1866 31.5646 60.4244 31.8272 61.5401 31.4142C62.6559 31.0003 63.9298 30.1521 64.4785 29.4885C64.3953 29.2721 64.0797 28.2766 64.0797 28.2766C64.0797 28.2766 63.0799 29.2202 62.8336 29.0972C62.5865 28.9735 65.6729 19.9282 65.6729 19.9282C65.6729 19.9282 62.5083 19.8056 62.1927 19.8056C61.6714 22.1818 58.7165 28.2099 56.6776 28.4759C56.2194 28.4432 57.4256 25.3902 58.3431 23.068L58.3432 23.0678L58.3432 23.0677C58.8245 21.8495 59.2264 20.8324 59.2667 20.5581C59.4987 19.5121 58.7165 19.0313 57.7888 19.247C56.8101 19.5794 52.8272 22.2352 52.8272 22.2352ZM74.1153 20.8146C74.1869 20.6514 74.5705 19.7049 74.5705 19.7049L77.992 19.7774L72.312 37.5961L68.836 37.5781C68.836 37.5781 71.075 30.6983 71.2928 30.0602C69.1822 32.5173 66.0524 32.1724 65.6158 29.2784C65.2144 25.7845 66.489 22.4897 69.4724 20.5604C72.3306 18.7767 73.715 20.1234 74.1153 20.8146ZM70.735 28.3269L70.7595 28.3133C71.9068 27.5295 73.0008 24.8541 73.109 23.1621C73.135 21.6926 72.1136 21.7097 71.2947 22.6376C70.9815 22.9947 69.3411 25.2732 69.3963 27.3113C69.5028 29.0117 70.2434 28.6001 70.735 28.3269ZM87.3669 19.8631C89.3501 21.0646 87.8035 25.3596 81.3611 28.7453C82.5602 30.4915 85.965 27.2163 85.9649 27.2163L86.7517 28.4279C86.7517 28.4279 82.2527 33.8785 78.1526 30.5543C77.8473 30.7662 76.6645 31.4754 76.6645 31.4754L76.0807 29.874C76.0807 29.874 76.9187 29.4186 77.3207 29.1825C76.4105 21.1553 84.4355 18.225 87.3669 19.8631ZM85.3646 21.4284C84.637 20.9187 83.1435 22.1925 82.2154 23.8306C81.287 25.469 81.0089 27.029 81.1477 27.2683C84.618 24.5224 86.0926 21.9383 85.3646 21.4284ZM91.9172 19.9902L95.6484 19.8814C95.6484 19.8814 90.4071 24.017 91.1709 27.926C91.7733 30.3022 93.9906 29.1448 95.2113 26.4517C95.4463 25.9238 96.9217 22.3381 95.9931 22.3381C95.0649 22.3381 94.0957 24.1765 94.0957 24.1765L93.0804 23.1574C93.0804 23.1574 95.1372 20.2264 97.479 19.4418C97.7589 19.3536 99.4503 19.008 99.4693 21.4281C99.5435 22.5565 98.3247 28.7455 94.0838 30.929C90.1935 32.9294 88.4866 30.5338 88.1788 29.8188C86.0476 24.5281 91.9172 19.9902 91.9172 19.9902Z" fill="#8C8C8C"/>
</svg>
