<svg width="111" height="31" viewBox="0 0 111 31" fill="none" xmlns="http://www.w3.org/2000/svg">
<path d="M33.357 10.8994H33.0469V30.8607H41.0895C44.8298 30.8607 47.2523 28.6191 47.2523 25.1436C47.2523 23.4059 46.6968 22.1656 45.45 21.1191C44.9978 20.7315 44.4875 20.4666 43.9642 20.2534C44.3712 20.0532 44.7588 19.8141 45.1012 19.5105C46.0185 18.6514 46.503 17.4563 46.503 16.048C46.503 14.5945 45.9603 13.3865 44.8492 12.3658C43.4926 11.1449 41.9422 10.8994 39.8686 10.8994H33.357ZM39.4293 14.8335C39.7652 14.8335 40.3918 14.8335 40.9151 15.0596C41.4836 15.2986 41.8324 15.9382 41.8324 16.7198C41.8324 17.256 41.6515 17.7793 41.3608 18.0958C40.9086 18.5932 40.3854 18.6384 39.7911 18.6384C39.7911 18.6384 37.9887 18.6384 37.5042 18.6384C37.5042 18.141 37.5042 15.3439 37.5042 14.84C37.9629 14.8335 39.4293 14.8335 39.4293 14.8335ZM39.9784 22.4563C40.5598 22.4563 41.1606 22.5144 41.6192 22.9537C42.0004 23.3154 42.2459 23.9873 42.2459 24.6785C42.2459 25.2534 42.0714 25.8284 41.7743 26.2547C41.2833 26.933 40.7407 27.0687 39.9784 27.0687C39.9784 27.0687 38.0404 27.0687 37.5495 27.0687C37.5495 26.5519 37.5495 22.986 37.5495 22.4627C38.0404 22.4563 39.9784 22.4563 39.9784 22.4563Z" fill="#8C8C8C"/>
<path d="M63.3315 10.8994H47.4658V14.7366C47.4658 14.7366 52.511 14.7495 53.0666 14.7495C53.0666 15.3503 53.0666 30.9124 53.0666 30.9124H57.5692C57.5692 30.9124 57.5692 15.3503 57.5692 14.7495C58.1183 14.7495 62.4788 14.7495 62.4788 14.7495L63.7772 10.9059H63.3315V10.8994Z" fill="#8C8C8C"/>
<path d="M77.9439 10.8994H64.8818V30.8865H72.356C74.0485 30.8865 75.6377 30.4602 76.71 29.7173C77.8147 28.9614 79.1325 27.4627 79.1325 24.6139C79.1325 21.9395 77.8534 20.5054 77.0911 19.8852C76.2772 19.2328 74.7656 18.4511 72.188 18.4511C72.188 18.4511 69.8818 18.4511 69.378 18.4511C69.378 17.9537 69.378 15.2405 69.378 14.7431C69.9594 14.7431 76.9426 14.7431 76.9426 14.7431L78.2669 10.8994H77.9439ZM71.6325 22.256C72.2656 22.256 72.8663 22.4111 73.2346 22.6694C73.8224 23.0764 74.1067 23.716 74.1067 24.6139C74.1067 25.557 73.8289 26.0157 73.6157 26.2806C73.2216 26.7844 72.6144 27.0235 71.7681 27.0235C71.7681 27.0235 69.8625 27.0235 69.378 27.0235C69.378 26.5002 69.378 22.7728 69.378 22.2496C69.856 22.256 71.6325 22.256 71.6325 22.256Z" fill="#8C8C8C"/>
<path d="M82.0395 11.7717C82.0395 11.7717 81.962 11.8105 81.8974 11.8428C81.8974 12.0107 81.8974 15.6994 81.8974 16.1193C82.117 16.0094 82.4465 15.8544 82.4465 15.8544C82.847 15.6154 84.9788 14.3944 86.9039 14.2911C87.6984 14.2523 88.409 14.4849 88.9129 14.9629C89.3199 15.3505 89.546 15.8673 89.546 16.4229C89.546 18.2575 88.2734 19.1813 86.7424 20.118C82.9697 22.379 80.6377 24.7304 80.6377 29.4914C80.6377 29.4914 80.6442 30.6219 80.6442 30.8609C80.9349 30.8609 92.8858 30.8609 93.1765 30.8609C93.1765 30.5896 93.1765 27.2756 93.1765 27.0043C92.8858 27.0043 85.4116 27.0043 85.4116 27.0043L85.4568 26.8169C85.7734 25.5443 86.5744 24.5818 88.1377 23.587L90.0886 22.3854C92.3819 20.9836 93.8354 18.658 93.8806 16.3195V16.1774C93.8806 14.6205 93.3638 13.2704 92.3754 12.2627C91.2256 11.087 89.546 10.4668 87.5175 10.4668C85.7475 10.4733 83.6028 10.9836 82.0395 11.7717Z" fill="#8C8C8C"/>
<path d="M102.24 10.8804C102.149 11.016 94.2489 23.4062 94.1973 23.4837C94.1973 23.5677 94.1973 26.7266 94.1973 26.998C94.488 26.998 103.112 26.998 103.112 26.998C103.112 26.998 103.112 30.622 103.112 30.8998C103.377 30.8998 106.581 30.8998 106.846 30.8998C106.846 30.622 106.846 26.998 106.846 26.998H109.307L110.606 23.1478H106.846V19.2073H103.112V23.1478H98.7063C99.0229 22.6052 105.418 12.547 106.484 10.8804C106.019 10.8804 102.388 10.8804 102.24 10.8804Z" fill="#8C8C8C"/>
<path d="M19.4422 10.8997H4.25484C4.25484 10.8997 4.71349 12.3661 5.24321 13.1219C5.38533 13.1219 18.7574 13.1219 18.7574 13.1219C18.7574 13.1219 21.335 15.1439 22.5688 18.6775H8.36983C5.91504 16.6749 4.08042 13.9746 3.11788 10.8997C3.24062 10.525 3.37628 10.1568 3.52486 9.78857H19.4357C20.676 8.92294 21.9099 7.56635 21.9099 7.56635H4.63597C4.86207 7.18521 5.10755 6.817 5.36595 6.45524H22.8143C23.2729 5.89968 24.2032 4.23301 24.2032 4.23301H7.29101C7.69799 3.83896 8.12435 3.47074 8.57009 3.1219H24.72C25.1593 2.07539 25.4758 0.912598 25.4758 0.912598H7.93701C4.58429 3.29632 2.05845 6.79116 0.915039 10.8997C2.04553 14.963 4.55199 18.4837 7.93055 20.8932H25.437C25.4306 20.8932 25.1269 15.5832 19.4422 10.8997Z" fill="#8C8C8C"/>
</svg>
