<svg width="113" height="41" viewBox="0 0 113 41" fill="none" xmlns="http://www.w3.org/2000/svg">
<path d="M20.529 0.912598C17.0885 0.912598 14.3232 3.67784 14.3232 7.11833C14.3232 8.27587 14.6448 9.36911 15.2236 10.3016C15.3522 10.4945 15.4486 10.6874 15.6094 10.8482L16.0274 11.427L20.5611 16.8932L25.5129 10.8482C26.3167 9.81927 26.7669 8.50095 26.7669 7.08617C26.7669 3.67784 23.9695 0.912598 20.529 0.912598ZM20.529 9.94788C18.9534 9.94788 17.6673 8.66172 17.6673 7.08617C17.6673 5.51062 18.9534 4.22446 20.529 4.22446C22.1045 4.22446 23.3907 5.51062 23.3907 7.08617C23.3907 8.66172 22.1045 9.94788 20.529 9.94788Z" fill="#8C8C8C"/>
<path d="M22.9084 29.7548V19.3369H18.3104V24.2243L13.7123 18.6938L0.915039 34.0956L5.15937 37.6326L13.7123 27.3754L22.2653 37.6326L26.5097 34.0956L22.9084 29.7548Z" fill="#8C8C8C"/>
<path d="M51.1401 19.3052H47.0566V33.5173H38.9859V19.3052H34.9023V37.3114H49.9504V40.9127H53.616V33.5173H51.1401V19.3052Z" fill="#8C8C8C"/>
<path d="M60.5611 31.4272V19.3052H56.4775V37.3114H60.5611L69.1141 25.1894V37.3114H73.1976V19.3052H69.1141L60.5611 31.4272Z" fill="#8C8C8C"/>
<path d="M108.342 19.3052V26.3791H100.014V19.3052H95.9307V37.3114H100.014V30.1732H108.342V37.3114H112.394V19.3052H108.342Z" fill="#8C8C8C"/>
<path d="M84.5158 18.9834C82.3937 18.9834 80.5609 19.5622 79.2104 20.6233C77.9564 21.62 77.2169 23.0348 77.1204 24.6104H81.1397C81.3326 23.7744 82.2007 22.4882 84.5158 22.4882C86.638 22.4882 87.9242 23.7744 87.9242 25.8965V25.993H83.8084C81.3647 25.993 79.4998 26.5396 78.2136 27.6328C76.9918 28.6618 76.3809 30.1409 76.3809 32.0058C76.3809 33.6135 77.0239 35.0604 78.1815 36.0894C79.3712 37.1183 81.011 37.6971 82.9403 37.6971C85.9628 37.6971 87.6026 36.218 88.1492 35.607L88.4386 37.1504L88.4708 37.3755H88.6959H91.654H91.9113V37.1183V25.8644C91.9434 21.62 89.1139 18.9834 84.5158 18.9834ZM87.9242 29.7228C87.9242 31.1376 87.5383 32.2309 86.7345 33.0026C85.9306 33.7743 84.7731 34.1601 83.294 34.1601C81.429 34.1601 80.4001 33.3241 80.4001 31.8129C80.4001 30.2373 81.7506 29.2727 83.9692 29.2727H87.892V29.7228H87.9242Z" fill="#8C8C8C"/>
</svg>
