<svg width="178" height="41" viewBox="0 0 178 41" fill="none" xmlns="http://www.w3.org/2000/svg">
<path fill-rule="evenodd" clip-rule="evenodd" d="M48.3305 3.12879C51.8599 5.37906 54.1717 9.39939 54.1881 15.4875C54.2001 19.7405 51.4197 24.0633 47.0573 27.4748C42.6837 30.895 36.6624 33.4492 30.0537 34.1518C27.6542 34.4072 25.1724 34.4164 22.716 34.1784C24.5621 35.9913 26.8663 37.7867 29.6079 39.923C29.7624 40.0434 29.9183 40.1648 30.0756 40.2875L29.5882 40.9126C29.4126 40.7757 29.2385 40.6401 29.066 40.5057C26.0254 38.1369 23.4601 36.1384 21.464 34.0353C17.7175 33.5415 14.0735 32.4668 10.9196 30.8077C5.34985 27.8779 1.27374 23.1016 0.935085 16.4705L0.935084 16.4704C0.652656 10.9357 3.40262 7.06651 6.1569 4.72364C11.1276 0.49535 19.1226 0.835473 24.9784 3.50923C25.7005 3.83892 26.3939 4.20565 27.0483 4.60596C29.705 3.04037 32.6392 1.92333 35.5654 1.35091C40.1796 0.448296 44.8221 0.891902 48.3305 3.12879ZM27.7954 5.08928C30.2809 3.67475 33.0033 2.65981 35.7176 2.12883C40.2043 1.25114 44.6209 1.70372 47.9043 3.79717C51.1668 5.87723 53.3797 9.6214 53.3954 15.4896C53.4065 19.3985 50.8338 23.5153 46.569 26.8504C42.3152 30.1769 36.4349 32.6763 29.9699 33.3635L29.9698 33.3636C27.311 33.6466 24.552 33.62 21.8464 33.2851C21.31 32.7067 20.8198 32.1207 20.3764 31.5157C18.3196 28.7092 17.262 25.4767 17.3691 20.6552C19.7063 21.345 22.2416 21.7133 24.6106 21.3626C27.2482 20.9722 29.6754 19.6892 31.3635 16.9964L31.3636 16.9964C33.1007 14.2247 32.9925 11.5009 31.6786 9.14045C30.8227 7.60274 29.4629 6.23031 27.7954 5.08928ZM27.0385 5.53693C28.7696 6.66424 30.1511 8.02585 30.986 9.52596C32.1631 11.6408 32.2714 14.0553 30.6919 16.5754C29.1433 19.0458 26.9349 20.2172 24.4945 20.5785C22.2119 20.9164 19.7231 20.5441 17.3993 19.8367C17.6612 15.3581 19.9573 11.408 23.3078 8.33847C24.4455 7.29619 25.7026 6.35769 27.0385 5.53693ZM26.2844 5.07341C25.0324 5.86867 23.851 6.76578 22.7724 7.754C19.3596 10.8806 16.9556 14.9383 16.6215 19.5835C13.5106 18.4694 11.2343 15.9714 10.7542 13.7259C10.5116 12.5912 10.7277 11.5425 11.4939 10.7322C12.2723 9.90891 13.6732 9.27318 15.918 9.10777L15.8598 8.31724C13.5087 8.49049 11.884 9.16589 10.9179 10.1876C9.93971 11.2222 9.69267 12.5523 9.97902 13.8916C10.5415 16.5224 13.1611 19.2666 16.5825 20.4088C16.4333 25.4985 17.5268 28.9684 19.7371 31.9843C20.0179 32.3675 20.3167 32.7431 20.6328 33.1135C17.3035 32.5838 14.0914 31.5805 11.2886 30.1062C5.8923 27.2676 2.04728 22.7069 1.72672 16.43C1.46047 11.2124 4.04251 7.56286 6.67049 5.32741L6.41369 5.02552L6.67049 5.32741C11.3147 1.3768 18.9434 1.62505 24.6492 4.23029C25.2174 4.48971 25.764 4.77149 26.2844 5.07341ZM30.6919 16.5754L31.0277 16.7859L30.6919 16.5754Z" fill="#8C8C8C"/>
<path fill-rule="evenodd" clip-rule="evenodd" d="M101.808 19.6364L101.548 19.353C99.5405 19.353 97.5328 19.353 95.526 19.353L95.1752 19.6655L95.1481 31.5374C95.1441 32.5654 95.2566 33.2176 95.4757 33.4909C95.6958 33.7693 96.2063 33.924 97.0102 33.9552V34.3783H91.4541V33.9552C92.256 33.924 92.7665 33.7693 92.9876 33.4909C93.2087 33.2176 93.3202 32.5654 93.3202 31.5374V21.6251C93.3202 20.5971 93.2087 19.9449 92.9876 19.6705C92.7655 19.3962 92.255 19.2424 91.4541 19.2113V18.7832H105.54L105.579 19.1711C105.157 19.2656 104.635 19.1701 104.136 19.6575C103.66 20.1247 103.711 21.0985 103.711 21.7075V31.5786C103.711 33.6919 103.419 33.8326 105.5 33.914L105.539 34.3783H100.11V33.9552C101.497 33.924 101.408 33.7884 101.63 33.5201C101.853 33.2478 101.849 32.6137 101.846 31.5776L101.808 19.6364Z" fill="#8C8C8C"/>
<path fill-rule="evenodd" clip-rule="evenodd" d="M46.5881 21.5534L43.1393 31.5672C42.9272 32.1842 42.8137 32.6425 42.8137 32.95C42.8137 33.1901 42.9081 33.4022 43.093 33.5871C43.282 33.772 43.6839 33.8906 44.307 33.9478V34.3779H40.2441V33.9488C40.7838 33.8272 41.1305 33.6765 41.2902 33.4876C41.6148 33.1158 41.9726 32.3521 42.3655 31.2055L46.9066 18.1367H47.2383L51.7302 31.3461C52.0899 32.4093 52.4185 33.0957 52.714 33.4122C53.0094 33.7298 53.4224 33.9086 53.948 33.9498V34.3799H48.8551V33.9488C49.3686 33.9147 49.7163 33.8071 49.8982 33.6273C50.0801 33.4514 50.1706 33.2303 50.1706 32.9721C50.1706 32.6284 50.0309 32.0928 49.7877 31.3461L46.5881 21.5534Z" fill="#8C8C8C"/>
<path fill-rule="evenodd" clip-rule="evenodd" d="M163.524 34.3792L163.489 34.0546C164.177 34.0315 164.478 33.9129 164.669 33.6998C164.858 33.4878 164.95 32.9874 164.95 32.2005V28.4392C164.498 28.4161 164.131 28.3568 163.847 28.5085C163.101 28.9075 162.718 29.9355 162.284 30.7746L160.452 34.3379L158.36 34.3792V34.0546C159.161 33.9189 159.503 33.3903 159.885 32.8517C160.833 31.5132 161.548 28.6703 163.263 28.0171C161.57 26.6927 161.285 24.4688 160.5 23.6669C160.181 23.3433 159.808 23.479 159.448 23.3896C159.18 23.3222 158.824 22.9152 159.056 22.6067C159.239 22.3666 159.396 22.3183 159.809 22.3284C161.736 22.3736 161.863 26.6665 163.553 27.7177C163.979 27.9819 164.46 27.9337 164.95 27.8895V24.5984C164.95 23.8096 164.858 23.3092 164.669 23.0981C164.479 22.8881 164.193 22.7886 163.507 22.7635L163.526 22.4369L166.2 22.4882C166.152 26.0063 166.108 30.8027 166.117 34.348C163.879 34.3601 164.336 34.3792 163.524 34.3792Z" fill="#8C8C8C"/>
<path fill-rule="evenodd" clip-rule="evenodd" d="M167.801 34.3792L167.835 34.0546C167.149 34.0315 166.846 33.9129 166.655 33.6998C166.467 33.4878 166.373 32.9874 166.373 32.2005V28.4392C166.826 28.4161 167.195 28.3568 167.477 28.5085C168.223 28.9075 168.607 29.9355 169.04 30.7746L170.874 34.3379L172.965 34.3792V34.0546C172.164 33.9189 171.822 33.3903 171.441 32.8517C170.49 31.5132 169.777 28.6703 168.062 28.0171C169.755 26.6927 170.04 24.4688 170.825 23.6669C171.143 23.3433 171.516 23.479 171.878 23.3896C172.142 23.3222 172.502 22.9152 172.269 22.6067C172.086 22.3666 171.928 22.3183 171.515 22.3284C169.589 22.3736 169.462 26.6665 167.772 27.7177C167.346 27.9819 166.864 27.9337 166.373 27.8895V24.5984C166.373 23.8096 166.467 23.3092 166.655 23.0981C166.845 22.8881 167.132 22.7886 167.818 22.7635L167.8 22.4369L165.126 22.4882C165.172 26.0063 165.217 30.8027 165.207 34.348C167.444 34.3601 166.987 34.3792 167.801 34.3792Z" fill="#8C8C8C"/>
<path fill-rule="evenodd" clip-rule="evenodd" d="M154.554 24.3946C154.651 23.1677 154.32 22.6853 153.484 22.7154L153.455 22.4461L157.192 22.417V22.7436C156.523 22.8561 156.467 22.8561 156.283 23.0672C156.096 23.2782 155.971 23.8088 155.971 24.5956V32.1987C155.971 33.4197 155.997 34.0005 157.454 34.0527L157.483 34.3773H153.078L153.107 34.0527C153.795 34.0296 154.087 33.907 154.273 33.695C154.461 33.481 154.554 32.9825 154.554 32.1997V25.3362L149.062 32.3876C149.074 33.5031 149.259 34.0216 150.29 34.0537V34.3783H146.422V34.0537C147.096 34.0306 147.525 33.9121 147.71 33.699C147.897 33.487 147.991 32.9865 147.991 32.1997V24.5966C147.991 23.8078 147.896 23.3073 147.71 23.0963C147.524 22.8863 147.096 22.7697 146.422 22.7436V22.417L150.549 22.4461V22.7436C149.271 22.7898 149.029 23.5174 149.033 24.7142L149.061 31.3676L154.554 24.3946Z" fill="#8C8C8C"/>
<path fill-rule="evenodd" clip-rule="evenodd" d="M134.611 22.6902L134.676 25.5873L134.431 25.6245C134.107 24.4297 134.181 24.079 133.578 23.5534C132.546 22.652 130.056 22.8248 128.971 23.5755C128.399 23.9734 127.948 24.6035 127.619 25.4697C127.29 26.337 127.128 27.4172 127.128 28.7055C127.128 29.7677 127.28 30.6902 127.593 31.472C127.902 32.2498 128.369 32.8477 128.993 33.2658C129.615 33.6818 130.436 33.9541 131.233 33.9983C133.045 34.1028 134.17 32.6508 134.713 31.4539L135.067 31.4067C134.532 32.4538 134.699 32.9291 134.31 34.0345C129.267 35.6805 125.439 33.3241 125.439 28.6874C125.439 25.516 127.34 22.2139 131.239 22.2139C132.135 22.2139 134.472 22.5123 134.611 22.6902Z" fill="#8C8C8C"/>
<path fill-rule="evenodd" clip-rule="evenodd" d="M118.654 23.1434V27.8704H120.662C121.185 27.8704 121.605 27.8785 121.78 27.6735C122.013 27.4011 122.071 27.1459 122.098 26.4626L122.347 26.4987V29.8943L122.098 29.9687C122.036 29.3878 121.973 29.3416 121.909 29.1778C121.83 28.9728 121.767 28.7376 121.583 28.6201C121.399 28.5015 121.044 28.5146 120.661 28.5146H118.653V32.4598C118.653 32.9894 118.671 33.313 118.705 33.4265C118.742 33.5401 118.805 33.6325 118.894 33.6999C118.983 33.7662 119.156 33.8003 119.407 33.8003H120.959C121.474 33.8003 122.248 33.7883 122.481 33.6948C123.265 33.3803 123.316 32.2036 123.616 31.4549H123.885L123.531 34.4525H116.05V34.1289H116.373C116.588 34.1289 116.793 34.0606 116.985 33.9239C117.131 33.8305 117.228 33.6898 117.281 33.5019C117.331 33.313 117.356 32.9271 117.356 32.3473V24.5764C117.356 23.8156 117.298 23.3504 117.181 23.1725C117.021 22.9374 116.75 22.8208 116.372 22.8208H116.049V22.4922H123.061L123.09 25.112H122.754C122.552 23.7644 122.75 23.1454 121.449 23.1454H118.654V23.1434Z" fill="#8C8C8C"/>
<path fill-rule="evenodd" clip-rule="evenodd" d="M91.0796 22.4974L91.1077 25.2237L90.754 25.1433C90.6837 24.467 90.6756 23.653 90.0677 23.2501C89.8204 23.0863 89.0618 23.1656 88.6608 23.1656H87.2901V32.3072C87.2901 33.0428 87.3534 33.5011 87.483 33.6829C87.6609 33.9332 87.9453 34.0537 88.3221 34.0537H88.8578L88.8186 34.4185H84.3397L84.3005 34.0537H84.8834C85.2944 34.0537 85.5848 33.9 85.7566 33.5935C85.8611 33.4056 85.9154 32.9765 85.9154 32.3072V23.1656H84.7467C84.2935 23.1656 83.6524 23.1254 83.4624 23.2089C82.965 23.4279 82.5409 24.6248 82.5088 25.1433L82.1973 25.2237L82.2334 22.417L91.0796 22.4974Z" fill="#8C8C8C"/>
<path fill-rule="evenodd" clip-rule="evenodd" d="M145.281 22.4536L145.31 25.2653L144.956 25.1859C144.886 24.5096 144.878 23.6947 144.27 23.2917C144.024 23.1289 143.263 23.2083 142.863 23.2083H141.493V32.3489C141.493 33.0845 141.557 33.5437 141.686 33.7266C141.864 33.9748 142.149 34.0954 142.525 34.0954H143.061L143.021 34.4602H138.542L138.503 34.0954H139.086C139.496 34.0954 139.787 33.9427 139.959 33.6352C140.063 33.4472 140.117 33.0191 140.117 32.3489V23.2083H138.948C138.497 23.2083 137.855 23.1681 137.666 23.2515C137.168 23.4706 136.743 24.6664 136.711 25.1859L136.399 25.2653L136.436 22.4596L145.281 22.4536Z" fill="#8C8C8C"/>
<path fill-rule="evenodd" clip-rule="evenodd" d="M71.4124 25.0307L71.3119 22.417H64.4243V22.7436C64.8484 22.7737 65.1418 22.832 65.2986 22.9204C65.4574 23.0099 65.5699 23.1566 65.6382 23.3696C65.7096 23.5807 65.7437 23.9907 65.7437 24.5966V32.1997C65.7437 32.9865 65.6613 33.487 65.4925 33.699C65.3257 33.9121 64.9428 34.0306 64.3379 34.0537V34.3783H68.453C70.306 34.3783 72.2987 33.903 72.2987 31.036C72.2987 27.4264 69.3493 27.3249 67.1195 27.3249V23.0702H68.7524C69.5644 23.0702 70.1301 23.1847 70.4477 23.4128C70.7662 23.646 71.0014 24.1806 71.1551 25.0307H71.4124ZM68.2839 33.7893C68.0045 33.7893 67.6136 33.7441 67.1112 33.6577V28.1739C67.3735 28.1227 67.6337 28.0965 67.89 28.0965C68.8004 28.0965 69.5531 28.3267 70.145 28.7819C70.7379 29.2361 71.0343 29.9335 71.0343 30.8761C71.0343 31.7886 70.7509 32.499 70.1832 33.0145C69.6174 33.5321 68.9833 33.7893 68.2839 33.7893Z" fill="#8C8C8C"/>
<path fill-rule="evenodd" clip-rule="evenodd" d="M57.616 32.263L57.5759 29.4222C61.3814 30.0723 63.8193 26.5562 61.7372 23.8651C61.3543 23.3686 60.9714 22.9677 60.468 22.7476C59.9665 22.5275 59.2812 22.417 58.4129 22.417H54.8516V22.7436H55.2173C55.5841 22.7436 55.8625 22.8742 56.0494 23.1325C56.178 23.3144 56.2413 23.7806 56.2413 24.5343V32.263C56.2413 32.9443 56.1921 33.3764 56.0966 33.5603C55.9208 33.8879 55.6273 34.0537 55.2163 34.0537H54.8516V34.3783H59.0159V34.0537H58.641C58.2743 34.0537 58.0029 33.9221 57.819 33.6669C57.6874 33.481 57.6261 33.0147 57.616 32.263ZM60.4744 28.0763C59.7097 28.8732 58.759 28.833 57.6808 28.7707V23.3111C58.4616 23.1654 59.2605 23.1664 59.9669 23.4879C60.3589 23.6658 60.6 24.0788 60.797 24.5572C60.9909 25.0325 61.0884 25.549 61.0884 26.1047C61.0884 26.9136 60.9266 27.603 60.4744 28.0763Z" fill="#8C8C8C"/>
<path fill-rule="evenodd" clip-rule="evenodd" d="M109.821 32.3416L109.781 29.5017C113.588 30.1509 116.023 26.6348 113.943 23.9436C113.559 23.4492 113.177 23.0473 112.673 22.8272C112.172 22.6071 111.486 22.4966 110.618 22.4966H107.056V22.8242H107.42C107.786 22.8242 108.066 22.9538 108.253 23.2131C108.381 23.393 108.444 23.8612 108.444 24.6129V32.3416C108.444 33.0219 108.396 33.456 108.301 33.6399C108.124 33.9675 107.829 34.1323 107.419 34.1323H107.055V34.4589H111.219V34.1323H110.845C110.477 34.1323 110.207 34.0007 110.023 33.7454C109.892 33.5605 109.832 33.0933 109.821 32.3416ZM112.681 28.1576C111.917 28.9545 110.964 28.9143 109.887 28.852V23.3913C110.668 23.2466 111.468 23.2476 112.173 23.5692C112.565 23.7481 112.806 24.1591 113.002 24.6384C113.196 25.1127 113.294 25.6293 113.294 26.186C113.294 26.9939 113.133 27.6853 112.681 28.1576Z" fill="#8C8C8C"/>
<path fill-rule="evenodd" clip-rule="evenodd" d="M75.9226 29.8129H79.3282L80.0738 32.093C80.2577 32.6567 80.3622 33.0607 80.3622 33.319C80.3622 33.5149 80.2939 33.6807 80.1572 33.8144C80.0206 33.949 79.7583 34.0304 79.3714 34.0536V34.3781H83.2061V34.0536C82.8112 34.0234 82.5007 33.8878 82.2776 33.6506C82.0545 33.4124 81.8083 32.8949 81.536 32.093L78.1525 22.1465H77.9032L74.4836 31.9885C74.1871 32.8517 73.9178 33.4285 73.6736 33.7079C73.553 33.8496 73.2918 33.9641 72.8848 34.0546V34.3791H75.9457V34.0546C75.4764 34.0124 75.1729 33.9219 75.0312 33.7842C74.8916 33.6446 74.8212 33.4858 74.8212 33.3039C74.8212 33.0728 74.9046 32.7271 75.0664 32.2628L75.9226 29.8129ZM77.5382 24.8889L78.8808 29.1828H76.1615L77.5382 24.8889Z" fill="#8C8C8C"/>
<path fill-rule="evenodd" clip-rule="evenodd" d="M36.9671 37.1267H35.2045V39.9374C35.2045 40.1816 35.2366 40.3353 35.301 40.4016C35.3663 40.467 35.516 40.5041 35.7532 40.5102V40.6097H34.1172V40.5102C34.3533 40.5031 34.5031 40.467 34.5684 40.4016C34.6327 40.3363 34.6669 40.1816 34.6669 39.9374V37.597C34.6669 37.3538 34.6327 37.201 34.5684 37.1347C34.5031 37.0714 34.3533 37.0342 34.1172 37.0282V36.9257H38.0554V37.0282C37.8203 37.0352 37.6695 37.0714 37.6042 37.1347C37.5389 37.201 37.5047 37.3538 37.5047 37.597V39.9374C37.5047 40.1816 37.5389 40.3353 37.6042 40.4016C37.6685 40.467 37.8203 40.5041 38.0554 40.5102V40.6097H36.4214V40.5102C36.6536 40.5031 36.8033 40.467 36.8686 40.4026C36.9339 40.3393 36.9671 40.1836 36.9671 39.9374V37.1267ZM43.911 39.3766H42.4408L42.1825 39.9585C42.1192 40.1002 42.0871 40.2067 42.0871 40.279C42.0871 40.3343 42.1142 40.3836 42.1695 40.4258C42.2247 40.469 42.3433 40.4971 42.5262 40.5102V40.6097H41.3304V40.5102C41.4891 40.482 41.5906 40.4469 41.6379 40.4026C41.7343 40.3172 41.8388 40.1404 41.9544 39.8751L43.2919 36.8423H43.3894L44.7119 39.9062C44.8174 40.1534 44.9149 40.3122 45.0023 40.3866C45.0887 40.4609 45.2113 40.5011 45.3661 40.5112V40.6107H43.8657V40.5112C44.0165 40.5041 44.119 40.479 44.1722 40.4378C44.2255 40.3966 44.2526 40.3444 44.2526 40.2841C44.2526 40.2057 44.2144 40.0811 44.1401 39.9072L43.911 39.3766ZM43.8316 39.1757L43.1874 37.6874L42.5262 39.1757H43.8316ZM49.7334 38.8853V39.9585C49.7334 40.1896 49.7595 40.3333 49.8127 40.3896C49.8841 40.47 49.9906 40.5102 50.1343 40.5102H50.281V40.6097H48.6521V40.5102H48.7948C48.9556 40.5102 49.0711 40.4599 49.1395 40.3584C49.1766 40.3012 49.1957 40.1685 49.1957 39.9595V37.5779C49.1957 37.3467 49.1706 37.203 49.1204 37.1468C49.048 37.0674 48.9375 37.0282 48.7948 37.0282H48.6521V36.9257H50.0449C50.3845 36.9257 50.6518 36.9599 50.8488 37.0282C51.0458 37.0955 51.2096 37.2121 51.3452 37.3719C51.4799 37.5337 51.5472 37.7256 51.5472 37.9447C51.5472 38.2461 51.4437 38.4903 51.2387 38.6782C51.0347 38.8672 50.7453 38.9616 50.3715 38.9616C50.28 38.9616 50.1815 38.9546 50.075 38.9415C49.9695 38.9295 49.8549 38.9094 49.7334 38.8853ZM49.7334 38.7295C49.8328 38.7496 49.9203 38.7626 49.9966 38.7717C50.073 38.7797 50.1383 38.7848 50.1926 38.7848C50.3875 38.7848 50.5544 38.7134 50.6971 38.5667C50.8367 38.42 50.9071 38.2311 50.9071 38.0009C50.9071 37.8412 50.8739 37.6924 50.8076 37.5558C50.7393 37.4191 50.6448 37.3176 50.5212 37.2493C50.3976 37.1809 50.2569 37.1468 50.1001 37.1468C50.0057 37.1468 49.8841 37.1639 49.7334 37.198V38.7295ZM57.866 40.6097H56.226V40.5102C56.4401 40.5062 56.5838 40.478 56.6581 40.4248C56.7325 40.3725 56.7707 40.264 56.7747 40.0992C56.1436 40.0992 55.6884 39.9715 55.409 39.7123C55.1287 39.456 54.99 39.1335 54.99 38.7486C54.99 38.4602 55.0724 38.211 55.2382 38.006C55.404 37.804 55.608 37.6613 55.8502 37.5829C56.0934 37.5035 56.4009 37.4633 56.7747 37.4633C56.7707 37.3116 56.7466 37.2121 56.7023 37.1608C56.6571 37.1126 56.6069 37.0794 56.5526 37.0593C56.4983 37.0392 56.3888 37.0302 56.226 37.0272V36.9247H57.866V37.0272C57.6449 37.0342 57.5002 37.0644 57.4309 37.1237C57.3616 37.1809 57.3224 37.2935 57.3123 37.4633C57.7163 37.4633 58.0338 37.5065 58.266 37.5909C58.4981 37.6764 58.6961 37.819 58.8579 38.015C59.0206 38.213 59.102 38.4572 59.102 38.7486C59.102 39.1244 58.9664 39.442 58.6961 39.7042C58.4247 39.9685 57.9635 40.0992 57.3133 40.0992C57.3194 40.263 57.3585 40.3715 57.4309 40.4248C57.5022 40.478 57.648 40.5062 57.867 40.5102V40.6097H57.866ZM57.3123 39.8982C57.5867 39.8982 57.8057 39.864 57.9705 39.7947C58.1343 39.7243 58.27 39.5997 58.3765 39.4168C58.483 39.236 58.5383 39.0119 58.5383 38.7466C58.5383 38.4974 58.484 38.2853 58.3755 38.1115C58.266 37.9396 58.1303 37.8211 57.9675 37.7577C57.8047 37.6954 57.5867 37.6633 57.3123 37.6633V39.8982ZM56.7747 39.8982V37.6643C56.4853 37.6643 56.2622 37.6985 56.1054 37.7668C55.9487 37.8351 55.816 37.9507 55.7105 38.1145C55.606 38.2763 55.5527 38.4883 55.5527 38.7476C55.5527 39.031 55.614 39.2681 55.7376 39.457C55.8632 39.645 56.009 39.7665 56.1768 39.8168C56.3466 39.8721 56.5456 39.8982 56.7747 39.8982ZM64.4079 38.839H63.6261V39.9585C63.6261 40.1776 63.6553 40.3233 63.7125 40.3976C63.7708 40.473 63.8944 40.5102 64.0854 40.5102H64.1718V40.6097H62.5428V40.5102H62.6574C62.7629 40.5102 62.8493 40.4911 62.9187 40.4549C62.987 40.4187 63.0332 40.3715 63.0543 40.3142C63.0754 40.2549 63.0875 40.1353 63.0875 39.9585V37.5769C63.0875 37.402 63.0744 37.2834 63.0523 37.2211C63.0282 37.1568 62.983 37.1096 62.9146 37.0754C62.8463 37.0433 62.7518 37.0272 62.6292 37.0272H62.5428V36.9247H64.1718V37.0272H64.0854C63.9487 37.0272 63.8522 37.0443 63.7939 37.0794C63.7356 37.1146 63.6934 37.1568 63.6673 37.2071C63.6392 37.2563 63.6261 37.3809 63.6261 37.5769V38.6401H64.4079C64.4341 38.1095 64.632 37.6743 65.0038 37.3417C65.3746 37.0091 65.8078 36.8423 66.3052 36.8423C66.7835 36.8423 67.2066 37.0212 67.5744 37.3769C67.9432 37.7326 68.1271 38.1919 68.1271 38.7486C68.1271 39.2822 67.9502 39.7404 67.5985 40.1223C67.2468 40.5031 66.8006 40.6931 66.2579 40.6931C65.9072 40.6931 65.5957 40.6147 65.3254 40.4549C65.0531 40.2951 64.835 40.073 64.6692 39.7897C64.5024 39.5073 64.414 39.1917 64.4079 38.839ZM66.2509 37.0392C65.8881 37.0392 65.5977 37.186 65.3777 37.4774C65.1576 37.7668 65.046 38.1899 65.046 38.7446C65.046 39.2621 65.1495 39.6862 65.3555 40.0107C65.5626 40.3393 65.862 40.5021 66.2539 40.5021C66.6358 40.5021 66.9363 40.3584 67.1553 40.071C67.3754 39.7836 67.4849 39.3666 67.4849 38.8199C67.4849 38.2662 67.3804 37.8301 67.1754 37.5136C66.9684 37.197 66.6619 37.0392 66.2509 37.0392ZM73.8118 40.6097L72.3436 37.5105V39.9726C72.3436 40.1997 72.3677 40.3403 72.419 40.3966C72.4883 40.472 72.5989 40.5102 72.7476 40.5102H72.8813V40.6097H71.5588V40.5102H71.6935C71.8532 40.5102 71.9668 40.4619 72.0341 40.3685C72.0763 40.3102 72.0964 40.1776 72.0964 39.9715V37.5638C72.0964 37.401 72.0773 37.2834 72.0401 37.2111C72.014 37.1568 71.9658 37.1136 71.8964 37.0784C71.8251 37.0433 71.7136 37.0262 71.5588 37.0262V36.9237H72.634L74.0138 39.8067L75.3704 36.9237H76.4456V37.0262H76.314C76.1512 37.0262 76.0366 37.0724 75.9703 37.1669C75.9291 37.2252 75.908 37.3568 75.908 37.5638V39.9715C75.908 40.1987 75.9352 40.3393 75.9874 40.3956C76.0567 40.471 76.1643 40.5092 76.314 40.5092H76.4456V40.6087H74.8318V40.5092H74.9674C75.1292 40.5092 75.2428 40.4609 75.3091 40.3675C75.3513 40.3092 75.3704 40.1765 75.3704 39.9705V37.5085L73.9052 40.6077H73.8118V40.6097ZM80.8933 37.1267V38.5828H81.7284C81.9455 38.5828 82.0902 38.5516 82.1625 38.4883C82.26 38.4049 82.3133 38.2582 82.3253 38.0482H82.4288V39.3304H82.3253C82.2992 39.1505 82.2731 39.036 82.2469 38.9847C82.2128 38.9214 82.1575 38.8722 82.0811 38.836C82.0037 38.7998 81.8872 38.7807 81.7274 38.7807H80.8923V39.9957C80.8923 40.1585 80.8994 40.2579 80.9134 40.2931C80.9285 40.3283 80.9546 40.3564 80.9928 40.3775C81.029 40.3986 81.1013 40.4087 81.2048 40.4087H81.85C82.065 40.4087 82.2218 40.3946 82.3183 40.3645C82.4158 40.3363 82.5082 40.279 82.5976 40.1946C82.7142 40.0821 82.8318 39.9123 82.9534 39.6851H83.0649L82.7383 40.6087H79.808V40.5092H79.9437C80.0331 40.5092 80.1185 40.4871 80.1979 40.4459C80.2582 40.4157 80.2994 40.3725 80.3215 40.3152C80.3426 40.2559 80.3527 40.1384 80.3527 39.9595V37.5668C80.3527 37.3337 80.3286 37.189 80.2803 37.1337C80.213 37.0634 80.1005 37.0272 79.9437 37.0272H79.808V36.9247H82.7383L82.7815 37.7326H82.67C82.6308 37.5387 82.5866 37.406 82.5394 37.3337C82.4921 37.2623 82.4228 37.2061 82.3283 37.1679C82.254 37.1407 82.1223 37.1267 81.9334 37.1267H80.8933ZM87.5036 38.8853V39.9585C87.5036 40.1896 87.5287 40.3333 87.5819 40.3896C87.6513 40.47 87.7598 40.5102 87.9035 40.5102H88.0502V40.6097H86.4213V40.5102H86.564C86.7258 40.5102 86.8393 40.4599 86.9087 40.3584C86.9458 40.3012 86.9649 40.1685 86.9649 39.9595V37.5779C86.9649 37.3467 86.9408 37.203 86.8896 37.1468C86.8172 37.0674 86.7077 37.0282 86.564 37.0282H86.4213V36.9257H87.8151C88.1537 36.9257 88.4221 36.9599 88.618 37.0282C88.815 37.0955 88.9798 37.2121 89.1154 37.3719C89.2501 37.5337 89.3164 37.7256 89.3164 37.9447C89.3164 38.2461 89.2139 38.4903 89.0089 38.6782C88.8029 38.8672 88.5155 38.9616 88.1417 38.9616C88.0512 38.9616 87.9507 38.9546 87.8452 38.9415C87.7397 38.9295 87.6242 38.9094 87.5036 38.8853ZM87.5036 38.7295C87.6021 38.7496 87.6895 38.7626 87.7658 38.7717C87.8432 38.7797 87.9085 38.7848 87.9618 38.7848C88.1567 38.7848 88.3236 38.7134 88.4653 38.5667C88.6049 38.42 88.6763 38.2311 88.6763 38.0009C88.6763 37.8412 88.6421 37.6924 88.5758 37.5558C88.5085 37.4191 88.414 37.3176 88.2904 37.2493C88.1668 37.1819 88.0261 37.1468 87.8694 37.1468C87.7739 37.1468 87.6513 37.1639 87.5036 37.198V38.7295ZM95.598 37.5347C95.598 37.3126 95.5619 37.1739 95.4885 37.1146C95.4142 37.0553 95.2644 37.0272 95.0413 37.0272V36.9247H96.6874V37.0272C96.4522 37.0342 96.2995 37.0704 96.2362 37.1337C96.1718 37.2 96.1377 37.3528 96.1377 37.596V39.9364C96.1377 40.1806 96.1708 40.3343 96.2362 40.4006C96.2995 40.466 96.4522 40.5031 96.6874 40.5092V40.6087H95.0413V40.5092C95.2835 40.5021 95.4373 40.4639 95.5006 40.3996C95.5669 40.3333 95.5991 40.1786 95.5991 39.9364V37.8241L93.8365 40.0138C93.8375 40.1705 93.8485 40.276 93.8696 40.3303C93.8887 40.3836 93.9339 40.4268 94.0063 40.4569C94.0786 40.4861 94.2063 40.5051 94.3891 40.5092V40.6087H92.7481V40.5092C92.9843 40.5021 93.136 40.466 93.2004 40.4006C93.2637 40.3353 93.2978 40.1806 93.2978 39.9364V37.597C93.2978 37.3538 93.2647 37.201 93.2004 37.1347C93.136 37.0714 92.9843 37.0342 92.7481 37.0282V36.9257H94.3891V37.0282C94.152 37.0352 94.0003 37.0714 93.9359 37.1347C93.8706 37.201 93.8365 37.3538 93.8365 37.597V39.7193L95.598 37.5347ZM99.8649 40.6097H100.881L102.166 38.8883C102.262 38.8903 102.339 38.8933 102.399 38.8933C102.422 38.8933 102.45 38.8933 102.477 38.8913C102.504 38.8903 102.535 38.8903 102.564 38.8883V39.9585C102.564 40.1896 102.538 40.3333 102.487 40.3896C102.414 40.47 102.308 40.5102 102.166 40.5102H102.018V40.6097H103.646V40.5102H103.504C103.343 40.5102 103.228 40.4599 103.159 40.3584C103.12 40.3012 103.099 40.1685 103.099 39.9595V37.5779C103.099 37.3467 103.125 37.203 103.177 37.1468C103.25 37.0674 103.359 37.0282 103.503 37.0282H103.645V36.9257H102.261C101.858 36.9257 101.56 36.9538 101.368 37.0121C101.177 37.0694 101.013 37.1739 100.881 37.3266C100.748 37.4794 100.681 37.6623 100.681 37.8743C100.681 38.1004 100.755 38.2974 100.91 38.4642C101.061 38.63 101.298 38.7486 101.616 38.8169L100.833 39.8751C100.654 40.1173 100.499 40.277 100.37 40.3584C100.242 40.4368 100.074 40.4881 99.8649 40.5102V40.6097ZM102.565 38.7164C102.529 38.7164 102.5 38.7164 102.473 38.7164C102.447 38.7184 102.423 38.7194 102.408 38.7194C102.047 38.7194 101.772 38.6431 101.589 38.4903C101.406 38.3376 101.314 38.1446 101.314 37.9085C101.314 37.6794 101.388 37.4925 101.536 37.3477C101.685 37.203 101.882 37.1317 102.126 37.1317C102.234 37.1317 102.381 37.1488 102.566 37.1829V38.7164H102.565ZM111.26 37.5347C111.26 37.3126 111.223 37.1739 111.15 37.1146C111.076 37.0553 110.926 37.0272 110.703 37.0272V36.9247H112.349V37.0272C112.115 37.0342 111.962 37.0704 111.898 37.1337C111.831 37.2 111.798 37.3528 111.798 37.596V39.9364C111.798 40.1806 111.83 40.3343 111.898 40.4006C111.962 40.466 112.115 40.5031 112.349 40.5092V40.6087H110.703V40.5092C110.945 40.5021 111.097 40.4639 111.162 40.3996C111.227 40.3333 111.261 40.1786 111.261 39.9364V37.8241L109.498 40.0138C109.5 40.1705 109.511 40.276 109.53 40.3303C109.549 40.3836 109.595 40.4268 109.668 40.4569C109.739 40.4861 109.868 40.5051 110.051 40.5092V40.6087H108.41V40.5092C108.646 40.5021 108.796 40.466 108.862 40.4006C108.925 40.3353 108.96 40.1806 108.96 39.9364V37.597C108.96 37.3538 108.926 37.201 108.862 37.1347C108.796 37.0714 108.646 37.0342 108.41 37.0282V36.9257H110.051V37.0282C109.812 37.0352 109.662 37.0714 109.596 37.1347C109.531 37.201 109.498 37.3538 109.498 37.597V39.7193L111.26 37.5347ZM120.821 40.5102V40.6097H119.84C119.735 40.4459 119.509 40.1333 119.168 39.6771C118.826 39.2189 118.617 38.9656 118.542 38.9164C118.467 38.8662 118.353 38.841 118.203 38.839V39.9374C118.203 40.1816 118.235 40.3353 118.3 40.4016C118.365 40.467 118.516 40.5041 118.753 40.5102V40.6097H117.116V40.5102C117.349 40.5031 117.5 40.467 117.566 40.4026C117.632 40.3393 117.667 40.1836 117.667 39.9374V37.597C117.667 37.3538 117.633 37.201 117.567 37.1347C117.502 37.0714 117.351 37.0342 117.116 37.0282V36.9257H118.753V37.0282C118.516 37.0352 118.365 37.0714 118.3 37.1347C118.236 37.201 118.203 37.3538 118.203 37.597V38.623C118.406 38.622 118.548 38.6089 118.627 38.5848C118.706 38.5607 118.793 38.5034 118.893 38.418C118.99 38.3305 119.068 38.2371 119.125 38.1366C119.181 38.0361 119.254 37.8713 119.345 37.6402C119.429 37.4251 119.497 37.2754 119.55 37.191C119.603 37.1076 119.69 37.0352 119.807 36.9749C119.925 36.9116 120.063 36.8825 120.226 36.8825C120.514 36.8825 120.66 36.981 120.66 37.1759C120.66 37.2442 120.631 37.3055 120.573 37.3548C120.518 37.407 120.451 37.4312 120.38 37.4312C120.327 37.4312 120.238 37.403 120.114 37.3447C120.007 37.2915 119.932 37.2653 119.888 37.2653C119.826 37.2653 119.777 37.2955 119.735 37.3578C119.691 37.4171 119.624 37.5728 119.529 37.819C119.348 38.2843 119.121 38.5778 118.842 38.7034C119.013 38.7325 119.247 38.9586 119.548 39.3807C119.867 39.8268 120.104 40.1273 120.251 40.278C120.401 40.4258 120.591 40.5041 120.821 40.5102ZM125.923 36.8423C126.416 36.8423 126.844 37.0242 127.206 37.3859C127.566 37.7507 127.749 38.2029 127.749 38.7466C127.749 39.3063 127.566 39.7706 127.201 40.1404C126.838 40.5102 126.395 40.6941 125.879 40.6941C125.356 40.6941 124.917 40.5132 124.559 40.1544C124.204 39.7937 124.027 39.3274 124.027 38.7546C124.027 38.1698 124.233 37.6924 124.642 37.3226C125 37.0011 125.428 36.8423 125.923 36.8423ZM125.872 37.0392C125.53 37.0392 125.258 37.1608 125.054 37.407C124.797 37.7115 124.669 38.1557 124.669 38.7436C124.669 39.3455 124.802 39.8077 125.067 40.1323C125.27 40.3775 125.54 40.5011 125.874 40.5011C126.231 40.5011 126.526 40.3655 126.759 40.0972C126.992 39.8258 127.109 39.4018 127.109 38.8199C127.109 38.1899 126.98 37.7206 126.724 37.4101C126.516 37.1628 126.233 37.0392 125.872 37.0392ZM134.622 36.8423L134.709 38.0944H134.622C134.506 37.7206 134.34 37.4492 134.125 37.2854C133.911 37.1196 133.653 37.0372 133.352 37.0372C133.099 37.0372 132.871 37.0995 132.667 37.2231C132.464 37.3478 132.303 37.5457 132.187 37.818C132.07 38.0894 132.012 38.426 132.012 38.831C132.012 39.1636 132.067 39.453 132.177 39.6982C132.287 39.9414 132.453 40.1293 132.674 40.26C132.894 40.3906 133.148 40.4559 133.433 40.4559C133.678 40.4559 133.897 40.4037 134.086 40.3022C134.274 40.2007 134.481 39.9967 134.707 39.6932L134.793 39.7485C134.604 40.0751 134.38 40.3162 134.127 40.469C133.872 40.6197 133.571 40.6961 133.223 40.6961C132.591 40.6961 132.105 40.47 131.758 40.0168C131.501 39.6791 131.373 39.2832 131.373 38.826C131.373 38.4592 131.457 38.1205 131.627 37.813C131.798 37.5045 132.032 37.2664 132.328 37.0965C132.628 36.9267 132.952 36.8433 133.306 36.8433C133.579 36.8433 133.852 36.9076 134.119 37.0382C134.197 37.0784 134.255 37.0985 134.287 37.0985C134.337 37.0985 134.381 37.0804 134.419 37.0453C134.468 36.997 134.501 36.9297 134.522 36.8433H134.622V36.8423ZM140.468 40.6097L139.001 37.5105V39.9726C139.001 40.1997 139.025 40.3403 139.076 40.3966C139.143 40.472 139.254 40.5102 139.404 40.5102H139.538V40.6097H138.218V40.5102H138.35C138.511 40.5102 138.625 40.4619 138.693 40.3685C138.734 40.3102 138.756 40.1776 138.756 39.9715V37.5638C138.756 37.401 138.737 37.2834 138.699 37.2111C138.673 37.1568 138.624 37.1136 138.555 37.0784C138.484 37.0433 138.372 37.0262 138.218 37.0262V36.9237H139.293L140.67 39.8067L142.027 36.9237H143.103V37.0262H142.971C142.808 37.0262 142.695 37.0724 142.627 37.1669C142.586 37.2252 142.564 37.3568 142.564 37.5638V39.9715C142.564 40.1987 142.59 40.3393 142.645 40.3956C142.712 40.471 142.82 40.5092 142.97 40.5092H143.102V40.6087H141.488V40.5092H141.624C141.786 40.5092 141.899 40.4609 141.965 40.3675C142.007 40.3092 142.027 40.1765 142.027 39.9705V37.5085L140.562 40.6077H140.468V40.6097ZM147.551 37.1267V38.5828H148.386C148.602 38.5828 148.746 38.5516 148.82 38.4883C148.917 38.4049 148.97 38.2582 148.982 38.0482H149.087V39.3304H148.982C148.956 39.1505 148.929 39.036 148.904 38.9847C148.871 38.9214 148.816 38.8722 148.738 38.836C148.663 38.7998 148.545 38.7807 148.386 38.7807H147.551V39.9957C147.551 40.1585 147.558 40.2579 147.573 40.2931C147.589 40.3283 147.613 40.3564 147.65 40.3775C147.687 40.3986 147.759 40.4087 147.864 40.4087H148.509C148.723 40.4087 148.88 40.3946 148.977 40.3645C149.074 40.3363 149.166 40.279 149.258 40.1946C149.372 40.0821 149.492 39.9123 149.613 39.6851H149.724L149.396 40.6087H146.467V40.5092H146.603C146.693 40.5092 146.778 40.4871 146.859 40.4459C146.919 40.4157 146.959 40.3725 146.981 40.3152C147.002 40.2559 147.012 40.1384 147.012 39.9595V37.5668C147.012 37.3337 146.988 37.189 146.939 37.1337C146.873 37.0634 146.76 37.0272 146.603 37.0272H146.467V36.9247H149.396L149.441 37.7326H149.33C149.292 37.5387 149.249 37.406 149.199 37.3337C149.152 37.2623 149.082 37.2061 148.988 37.1679C148.913 37.1407 148.782 37.1267 148.593 37.1267H147.551ZM156.304 36.9257L156.347 37.7899H156.242C156.22 37.6382 156.193 37.5286 156.155 37.4633C156.099 37.3588 156.021 37.2814 155.925 37.2332C155.829 37.1809 155.701 37.1578 155.545 37.1578H155.009V39.9736C155.009 40.2007 155.035 40.3413 155.084 40.3976C155.156 40.473 155.266 40.5112 155.413 40.5112H155.545V40.6107H153.934V40.5112H154.069C154.229 40.5112 154.343 40.4629 154.411 40.3695C154.452 40.3112 154.473 40.1786 154.473 39.9726V37.1568H154.017C153.839 37.1568 153.711 37.1699 153.638 37.194C153.541 37.2282 153.458 37.2955 153.387 37.393C153.32 37.4915 153.279 37.6231 153.265 37.7899H153.16L153.205 36.9257H156.304ZM162.571 37.5347C162.571 37.3126 162.531 37.1739 162.458 37.1146C162.387 37.0553 162.236 37.0272 162.015 37.0272V36.9247H163.659V37.0272C163.425 37.0342 163.273 37.0704 163.208 37.1337C163.143 37.2 163.109 37.3528 163.109 37.596V39.9364C163.109 40.1806 163.142 40.3343 163.208 40.4006C163.273 40.466 163.425 40.5031 163.659 40.5092V40.6087H162.015V40.5092C162.254 40.5021 162.408 40.4639 162.472 40.3996C162.538 40.3333 162.572 40.1786 162.572 39.9364V37.8241L160.809 40.0138C160.81 40.1705 160.821 40.276 160.841 40.3303C160.86 40.3836 160.905 40.4268 160.978 40.4569C161.05 40.4861 161.178 40.5051 161.361 40.5092V40.6087H159.721V40.5092C159.956 40.5021 160.108 40.466 160.171 40.4006C160.236 40.3353 160.271 40.1806 160.271 39.9364V37.597C160.271 37.3538 160.237 37.201 160.171 37.1347C160.108 37.0714 159.956 37.0342 159.721 37.0282V36.9257H161.361V37.0282C161.124 37.0352 160.971 37.0714 160.907 37.1347C160.842 37.201 160.809 37.3538 160.809 37.597V39.7193L162.571 37.5347ZM170.695 40.5102V40.6097H169.716C169.61 40.4459 169.384 40.1333 169.043 39.6771C168.702 39.2189 168.494 38.9656 168.417 38.9164C168.342 38.8662 168.228 38.841 168.079 38.839V39.9374C168.079 40.1816 168.111 40.3353 168.176 40.4016C168.241 40.468 168.391 40.5041 168.627 40.5102V40.6097H166.991V40.5102C167.224 40.5031 167.375 40.467 167.44 40.4026C167.507 40.3393 167.542 40.1836 167.542 39.9374V37.597C167.542 37.3538 167.508 37.201 167.441 37.1347C167.378 37.0714 167.226 37.0342 166.991 37.0282V36.9257H168.627V37.0282C168.391 37.0352 168.24 37.0714 168.176 37.1347C168.112 37.201 168.079 37.3538 168.079 37.597V38.623C168.282 38.622 168.423 38.6089 168.503 38.5848C168.581 38.5607 168.667 38.5034 168.767 38.418C168.866 38.3305 168.943 38.2371 168.999 38.1366C169.057 38.0361 169.13 37.8713 169.22 37.6402C169.304 37.4251 169.371 37.2754 169.425 37.191C169.478 37.1076 169.565 37.0352 169.681 36.9749C169.8 36.9116 169.939 36.8825 170.101 36.8825C170.389 36.8825 170.534 36.981 170.534 37.1759C170.534 37.2442 170.506 37.3055 170.449 37.3548C170.392 37.407 170.328 37.4312 170.254 37.4312C170.203 37.4312 170.113 37.403 169.991 37.3447C169.882 37.2915 169.806 37.2653 169.763 37.2653C169.701 37.2653 169.652 37.2955 169.61 37.3578C169.566 37.4171 169.499 37.5728 169.405 37.819C169.223 38.2843 168.996 38.5778 168.718 38.7034C168.89 38.7325 169.123 38.9586 169.425 39.3807C169.743 39.8268 169.977 40.1273 170.127 40.278C170.277 40.4258 170.466 40.5041 170.695 40.5102ZM176.468 39.3766H174.997L174.74 39.9585C174.676 40.1002 174.644 40.2067 174.644 40.279C174.644 40.3343 174.672 40.3836 174.726 40.4258C174.782 40.469 174.9 40.4971 175.085 40.5102V40.6097H173.887V40.5102C174.045 40.482 174.148 40.4469 174.194 40.4026C174.291 40.3172 174.396 40.1404 174.512 39.8751L175.849 36.8423H175.947L177.27 39.9062C177.375 40.1534 177.471 40.3122 177.559 40.3866C177.645 40.4609 177.769 40.5011 177.923 40.5112V40.6107H176.422V40.5112C176.573 40.5041 176.676 40.479 176.732 40.4378C176.784 40.3966 176.81 40.3444 176.81 40.2841C176.81 40.2057 176.773 40.0811 176.698 39.9072L176.468 39.3766ZM176.39 39.1757L175.746 37.6874L175.086 39.1757H176.39Z" fill="#8C8C8C"/>
</svg>
