<svg width="161" height="26" viewBox="0 0 161 26" fill="none" xmlns="http://www.w3.org/2000/svg">
<path d="M23.0099 5.76953C23.5958 6.53726 24.0918 7.37132 24.4879 8.25499L13.2523 16.6488L8.55664 13.6657V10.0769L13.2523 13.06L23.0099 5.76953Z" fill="#8C8C8C"/>
<path d="M3.76461 13.4129C3.76461 13.2519 3.76849 13.0919 3.77624 12.9328L0.930537 12.7915C0.920851 12.9976 0.915043 13.2058 0.915043 13.4158C0.913832 15.0569 1.23235 16.6821 1.85233 18.1981C2.4723 19.7142 3.38153 21.0913 4.52786 22.2504L6.54639 20.2057C5.66398 19.315 4.96397 18.2564 4.48658 17.0906C4.00919 15.9249 3.76383 14.675 3.76461 13.4129Z" fill="#8C8C8C"/>
<path d="M13.2505 3.80003C13.4093 3.80003 13.5671 3.80592 13.724 3.81377L13.8664 0.928795C13.6624 0.918979 13.4571 0.914072 13.2505 0.914072C11.6303 0.91207 10.0259 1.23441 8.52909 1.86257C7.0323 2.49074 5.67268 3.41237 4.52832 4.57453L6.54685 6.62022C7.42573 5.72565 8.47042 5.01596 9.62087 4.53198C10.7713 4.04799 12.0048 3.79923 13.2505 3.80003Z" fill="#8C8C8C"/>
<path d="M13.2498 23.0257C13.0909 23.0257 12.933 23.0257 12.7752 23.013L12.6328 25.897C12.8375 25.9074 13.0432 25.9127 13.2498 25.9127C14.8692 25.9144 16.4729 25.5918 17.9689 24.9635C19.4649 24.3351 20.8236 23.4134 21.9671 22.2512L19.9524 20.2065C19.0734 21.1006 18.0288 21.8099 16.8786 22.2937C15.7284 22.7775 14.4951 23.0263 13.2498 23.0257Z" fill="#8C8C8C"/>
<path d="M18.5966 5.47714L20.9948 3.68569C18.8028 1.88683 16.0666 0.907604 13.2461 0.912617V3.79956C15.156 3.79716 17.0217 4.38212 18.5966 5.47714Z" fill="#8C8C8C"/>
<path d="M25.5836 13.4124C25.5852 12.6614 25.5203 11.9117 25.3899 11.1724L22.735 13.1552C22.735 13.2407 22.735 13.3261 22.735 13.4124C22.7357 14.7556 22.4579 16.0839 21.9197 17.3112C21.3813 18.5385 20.5946 19.6375 19.6104 20.537L21.5253 22.6819C22.8048 21.5112 23.8273 20.0811 24.5264 18.4843C25.2256 16.8874 25.5858 15.1594 25.5836 13.4124Z" fill="#8C8C8C"/>
<path d="M13.2499 23.0261C11.9245 23.0265 10.6137 22.7449 9.40253 22.1994C8.19138 21.6539 7.10675 20.8567 6.2189 19.8594L4.10352 21.7991C5.25851 23.096 6.66959 24.1324 8.24526 24.8412C9.82092 25.5499 11.526 25.915 13.2499 25.913V23.0261Z" fill="#8C8C8C"/>
<path d="M6.88928 6.28742L4.97535 4.14258C3.69544 5.31304 2.67257 6.74307 1.97308 8.33994C1.2736 9.9368 0.913132 11.6648 0.915047 13.412H3.76462C3.76403 12.0689 4.04189 10.7406 4.58016 9.51329C5.11843 8.28599 5.90513 7.18695 6.88928 6.28742Z" fill="#8C8C8C"/>
<path d="M72.0958 8.06033L75.6251 5.45508H63.8135V21.1104H75.6251V18.5051H67.1838V14.495H74.3846V11.8898H67.1838V8.06033H72.0958Z" fill="#8C8C8C"/>
<path d="M55.8655 11.554H51.7648V8.05946H58.3094L61.8365 5.44629H48.3965V21.1016H55.4318C59.3761 21.1016 61.6398 19.3104 61.6398 16.1865C61.6398 13.1979 59.5894 11.554 55.8655 11.554ZM55.2801 18.4955H51.7648V14.1577H55.2801C57.4134 14.1577 58.4137 14.8846 58.4137 16.3266C58.4137 17.7686 57.3494 18.4955 55.2801 18.4955Z" fill="#8C8C8C"/>
<path d="M84.3074 5.45312H77.8779V21.1084H81.2478V16.6735H84.3074C88.4094 16.6735 90.947 14.5107 90.947 11.055C90.947 7.59929 88.4094 5.45312 84.3074 5.45312ZM84.2363 14.0663H81.2478V8.06037H84.2363C86.3939 8.06037 87.5847 9.12751 87.5847 11.0645C87.5847 13.0015 86.3939 14.0663 84.2363 14.0663Z" fill="#8C8C8C"/>
<path d="M43.3393 17.4141C42.4688 17.8865 41.4934 18.1311 40.5035 18.1253C37.5408 18.1253 35.3914 16.0059 35.3914 13.0875C35.3914 10.169 37.5408 8.04508 40.5035 8.04508C41.572 8.0269 42.6183 8.35153 43.4895 8.97159L45.8468 7.23209L45.6874 7.11859C44.3123 5.90721 42.4749 5.26562 40.3719 5.26562C38.0908 5.26562 36.0224 6.0346 34.5456 7.4336C33.7988 8.15392 33.2083 9.02074 32.8106 9.97995C32.413 10.9392 32.2168 11.9702 32.2345 13.0087C32.2187 14.0578 32.414 15.0993 32.8086 16.0712C33.2033 17.043 33.7893 17.9251 34.5317 18.665C36.0154 20.1195 38.0792 20.9209 40.3441 20.9209C42.7107 20.9209 44.7791 20.094 46.1797 18.5885L44.0696 17.0135L43.3393 17.4141Z" fill="#8C8C8C"/>
<path d="M104.309 11.554H100.21V8.05946H109.019V5.44629H96.8398V21.1016H103.866C107.81 21.1016 110.074 19.3104 110.074 16.1865C110.083 13.1979 108.033 11.554 104.309 11.554ZM103.724 18.4955H100.21V14.1577H103.724C105.857 14.1577 106.857 14.8846 106.857 16.3266C106.857 17.7686 105.802 18.4955 103.724 18.4955Z" fill="#8C8C8C"/>
<path d="M148.387 21.0796H144.971V5.42432H148.387V11.9996H150.247L155.268 5.42432H159.14L153.184 12.8717L160.1 21.0796H155.567L150.484 14.9225H148.387V21.0796Z" fill="#8C8C8C"/>
<path d="M122.486 18.1045H115.259L114.033 21.1445H110.397L117.176 5.48926H120.811L127.48 21.1445H123.711L122.486 18.1045ZM121.354 15.2679L118.894 9.18766L116.42 15.2679H121.354Z" fill="#8C8C8C"/>
<path d="M132.079 5.48926V12.0266H139.149V5.48926H142.672V21.1445H139.149V14.9758H132.079V21.1445H128.557V5.48926H132.079Z" fill="#8C8C8C"/>
</svg>
