<svg width="143" height="66" viewBox="0 0 143 66" fill="none" xmlns="http://www.w3.org/2000/svg">
<path d="M5.08413 65.4477H0.915039V64.8292H2.11678V54.4045H1.01199V53.7866H8.39695C9.96406 53.7866 12.0818 53.8187 12.1027 53.8177L12.1078 53.8294L12.5257 57.457H11.9741L11.9297 57.304C11.2653 55.0515 10.7974 54.4045 8.39695 54.4045H4.0564V59.4943H6.60684C8.76691 59.4943 9.39457 59.297 9.39457 57.9051V57.6813H9.94416V61.8553H9.39457V61.6346C9.39457 60.6435 8.78324 60.1127 6.60684 60.1127H4.0564V64.8292H5.08413V65.4477Z" fill="#8C8C8C"/>
<path d="M19.4903 56.2224C16.6031 56.2224 14.9477 57.8498 14.9477 60.6891C14.9477 63.5335 16.5608 65.1002 19.4903 65.1002C22.4281 65.1002 24.0452 63.5335 24.0452 60.6891C24.0452 57.8498 22.3857 56.2224 19.4903 56.2224ZM19.4903 65.658C15.2692 65.658 12.9902 63.0981 12.9902 60.6891C12.9902 57.5424 16.2959 55.6631 19.4903 55.6631C23.7125 55.6631 25.9905 58.2526 25.9905 60.6891C25.9905 63.9164 22.6419 65.658 19.4903 65.658Z" fill="#8C8C8C"/>
<path d="M32.7691 65.6583C30.3952 65.6583 27.5646 64.814 27.5646 60.7883V56.4348H26.5879V55.875H30.4345V56.4348H29.37V60.7883C29.37 64.5402 31.4995 65.1006 32.7691 65.1006C34.7587 65.1006 36.8846 63.9682 36.8846 60.7883V56.4348H35.9211V55.875H38.2685V56.4348H37.3821V60.7883C37.3821 64.3837 34.898 65.6583 32.7691 65.6583Z" fill="#8C8C8C"/>
<path d="M41.925 60.6364H45.3741C47.0223 60.6364 47.7908 59.9705 47.7908 58.5425C47.7908 57.1042 47.0264 56.4348 45.3868 56.4348H41.925V60.6364ZM45.4741 61.1947H41.925V64.8885H42.8078V65.4478H39.0908V64.8885H40.1946V56.4348H39.0908V55.875H45.3868C46.4661 55.875 49.7483 55.875 49.7483 58.5425C49.7483 59.7534 49.0716 60.5859 47.7852 60.9596C47.7852 60.9596 47.059 61.1947 45.4741 61.1947Z" fill="#8C8C8C"/>
<path d="M68.5489 54.8888L68.8056 57.7327L68.2871 57.7179L68.1361 57.2407C67.4114 55.1004 65.9137 54.1858 63.5511 54.1858C61.2144 54.1858 59.8203 54.8491 59.8203 55.9585C59.8203 57.1673 61.7548 57.6567 63.8021 58.1737C66.3306 58.811 69.1934 59.5345 69.1934 61.9333C69.1934 64.4407 67.2675 65.7127 63.4674 65.7127C63.4674 65.7127 60.67 65.6138 58.5027 64.7945L57.873 61.4132H58.3507L58.5405 61.9251C59.3167 63.8503 61.2507 65.0948 63.4674 65.0948C65.1054 65.0948 67.8523 64.7976 67.8523 62.8071C67.8523 61.3827 65.804 60.8861 63.6358 60.3599C61.1001 59.7445 58.4788 59.1072 58.4788 56.8334C58.4788 54.7573 60.327 53.5688 63.5511 53.5688C64.5329 53.5688 65.1192 53.6861 66.0576 53.9492C66.0576 53.9492 67.6727 54.4213 68.5489 54.8888Z" fill="#8C8C8C"/>
<path d="M80.6662 65.5266L80.6193 65.5251C80.603 65.5241 78.9608 65.4476 78.0541 65.4476H70.9033V64.8878H71.9693V56.4347H70.9033V55.8749H77.8275C78.6996 55.8749 79.6007 55.8749 79.8038 55.803L80.3279 55.7397L80.6402 58.4256L80.2197 58.4485L80.1758 58.3114C79.6043 56.5361 78.7312 56.4347 77.8275 56.4347H73.6982V60.1845H76.0165C77.6693 60.1845 78.2199 59.9673 78.2199 58.7809V58.5724H78.7174V62.2514H78.2199V62.0444C78.2199 61.1542 77.6836 60.7433 76.0165 60.7433H73.6982V64.8878H78.0541C79.6436 64.8878 80.0146 64.3887 80.5555 63.1263L80.6014 62.9943H81.1199L80.6662 65.5266Z" fill="#8C8C8C"/>
<path d="M85.127 61.7382H90.5326L87.8351 56.8605L85.127 61.7382ZM91.2914 65.4478V64.8879H92.2808L90.8397 62.2964H84.8066L83.3548 64.8879H84.3478V65.4478H81.9219V64.8879H82.7654L87.48 56.4343H86.6421V55.875H89.2099L89.2655 55.9734L94.1903 64.8879H95.1267V65.4442L91.2914 65.4478Z" fill="#8C8C8C"/>
<path d="M113.175 55.6631C109.979 55.6631 106.675 57.5429 106.675 60.6891C106.675 63.0986 108.954 65.658 113.175 65.658C116.326 65.658 119.675 63.9164 119.675 60.6891C119.675 58.2526 117.396 55.6631 113.175 55.6631ZM113.175 65.1007C110.246 65.1007 108.631 63.5335 108.631 60.6891C108.631 57.8498 110.288 56.2224 113.175 56.2224C116.069 56.2224 117.73 57.8498 117.73 60.6891C117.73 63.5335 116.112 65.1007 113.175 65.1007Z" fill="#8C8C8C"/>
<path d="M120.481 55.874V56.4343H121.231L121.654 56.831V64.888H120.52V65.4473H123.168V64.888H122.15V57.2939L131.189 65.8139L131.295 65.9123V56.4343H132.151V55.875H129.752V56.4343H130.797V63.0796L123.193 55.8908L123.174 55.874H120.481Z" fill="#8C8C8C"/>
<path d="M50.8684 65.1199C49.412 65.0663 49.2538 64.5203 48.891 63.7943L47.5673 60.9229H45.6104L48.0552 65.672H50.874L50.8684 65.1199Z" fill="#8C8C8C"/>
<path d="M104.762 56.8674L104.972 59.1912L104.548 59.1795L104.424 58.789C103.833 57.0402 102.609 56.2933 100.678 56.2933C98.7687 56.2933 97.6292 56.8348 97.6292 57.7413C97.6292 58.7298 99.2106 59.129 100.884 59.5517C102.949 60.0733 105.289 60.6632 105.289 62.624C105.289 64.6741 103.715 65.7126 100.61 65.7126C100.61 65.7126 98.3242 65.6315 96.5525 64.9621L96.0381 62.1988H96.4285L96.5831 62.6179C97.2179 64.1907 98.7983 65.2074 100.61 65.2074C101.948 65.2074 104.193 64.9642 104.193 63.3378C104.193 62.1743 102.519 61.768 100.747 61.3382C98.6748 60.8355 96.5331 60.3154 96.5331 58.4566C96.5331 56.7608 98.043 55.7886 100.678 55.7886C101.48 55.7886 101.959 55.8844 102.726 56.0996C102.726 56.0996 104.046 56.4855 104.762 56.8674Z" fill="#8C8C8C"/>
<path d="M141.892 56.8674L142.102 59.1912L141.678 59.1795L141.554 58.789C140.963 57.0402 139.739 56.2933 137.808 56.2933C135.899 56.2933 134.759 56.8348 134.759 57.7413C134.759 58.7298 136.339 59.129 138.013 59.5517C140.079 60.0733 142.419 60.6632 142.419 62.624C142.419 64.6741 140.844 65.7126 137.739 65.7126C137.739 65.7126 135.454 65.6315 133.682 64.9621L133.168 62.1988H133.558L133.713 62.6179C134.348 64.1907 135.928 65.2074 137.739 65.2074C139.077 65.2074 141.323 64.9642 141.323 63.3378C141.323 62.1743 139.649 61.768 137.877 61.3382C135.805 60.8355 133.663 60.3154 133.663 58.4566C133.663 56.7608 135.173 55.7886 137.808 55.7886C138.61 55.7886 139.089 55.8844 139.856 56.0996C139.856 56.0996 141.175 56.4855 141.892 56.8674Z" fill="#8C8C8C"/>
<path d="M86.8579 28.1758C86.0414 28.5113 85.524 29.1078 85.7235 30.1239C86.7048 29.795 86.9666 29.0517 86.8579 28.1758Z" fill="#8C8C8C"/>
<path d="M83.5713 28.7729C83.729 29.6407 84.2015 30.2734 85.2354 30.2902C85.1221 29.2614 84.45 28.8489 83.5713 28.7729Z" fill="#8C8C8C"/>
<path d="M85.2316 32.945C85.1882 31.9222 84.5049 31.5098 83.5762 31.4292C83.6798 32.2954 84.137 32.9241 85.2316 32.945Z" fill="#8C8C8C"/>
<path d="M82.2412 19.3193C81.362 19.3968 80.6904 19.8093 80.5771 20.8366C81.6095 20.8213 82.0846 20.1886 82.2412 19.3193Z" fill="#8C8C8C"/>
<path d="M78.2617 18.5601C78.4194 19.4298 78.8935 20.0615 79.9258 20.0779C79.8125 19.0521 79.1404 18.6376 78.2617 18.5601Z" fill="#8C8C8C"/>
<path d="M78.0273 15.3937C79.0607 15.3769 79.5322 14.7463 79.6914 13.8765C78.8122 13.9524 78.1406 14.3669 78.0273 15.3937Z" fill="#8C8C8C"/>
<path d="M78.8352 11.5806C78.0254 11.9293 77.5161 12.5329 77.7309 13.5445C78.7051 13.2024 78.9572 12.4534 78.8352 11.5806Z" fill="#8C8C8C"/>
<path d="M75.9297 12.3184C75.9603 13.1968 76.3384 13.8871 77.3534 14.0493C77.3886 13.023 76.7839 12.5182 75.9297 12.3184Z" fill="#8C8C8C"/>
<path d="M75.5527 9.84375C76.5815 9.82743 77.0555 9.19676 77.2142 8.33105C76.3355 8.40651 75.667 8.81897 75.5527 9.84375Z" fill="#8C8C8C"/>
<path d="M76.4162 6.24512C75.6523 6.6744 75.2104 7.32445 75.5298 8.30436C76.4575 7.86641 76.6295 7.09757 76.4162 6.24512Z" fill="#8C8C8C"/>
<path d="M75.2577 9.04048C75.2919 8.01417 74.6882 7.50943 73.834 7.30957C73.8646 8.18802 74.2427 8.87835 75.2577 9.04048Z" fill="#8C8C8C"/>
<path d="M74.697 10.5312C74.5852 9.50845 73.9157 9.09752 73.04 9.02002C73.1993 9.88624 73.6692 10.5144 74.697 10.5312Z" fill="#8C8C8C"/>
<path d="M71.947 12.5502C72.244 12.3621 75.4323 10.4976 75.4323 10.4976C75.44 10.493 75.4517 10.4844 75.4512 10.4589L75.3042 9.33008H75.2547C75.2547 9.33008 75.2981 9.80474 75.2854 9.99491C75.2711 10.2121 75.242 10.2876 75.0777 10.3951L71.5449 12.2153C71.55 12.489 71.5546 12.7654 71.5602 13.0458C71.6077 12.8852 71.7138 12.6981 71.947 12.5502Z" fill="#8C8C8C"/>
<path d="M71.1647 2.48378C71.0515 1.46002 70.3814 1.04909 69.5078 0.973633C69.665 1.8373 70.136 2.46644 71.1647 2.48378Z" fill="#8C8C8C"/>
<path d="M71.1393 4.15756C71.0271 3.13584 70.3571 2.72389 69.4824 2.64844C69.6406 3.51262 70.1116 4.14125 71.1393 4.15756Z" fill="#8C8C8C"/>
<path d="M71.1139 5.82167C71.0016 4.79893 70.3316 4.38851 69.458 4.31152C69.6152 5.17468 70.0862 5.80637 71.1139 5.82167Z" fill="#8C8C8C"/>
<path d="M71.0886 7.49252C70.9753 6.47182 70.3063 6.06089 69.4316 5.9834C69.5898 6.8486 70.0608 7.47723 71.0886 7.49252Z" fill="#8C8C8C"/>
<path d="M71.0636 9.16888C70.9508 8.14614 70.2813 7.73521 69.4082 7.65771C69.5649 8.52342 70.0364 9.15053 71.0636 9.16888Z" fill="#8C8C8C"/>
<path d="M71.0398 10.8344C70.9265 9.81167 70.2565 9.40074 69.3818 9.32324C69.5395 10.1895 70.011 10.8171 71.0398 10.8344Z" fill="#8C8C8C"/>
<path d="M68.8181 7.02637C67.9802 7.29862 67.4209 7.8518 67.5418 8.87505C68.5399 8.62675 68.8604 7.90584 68.8181 7.02637Z" fill="#8C8C8C"/>
<path d="M67.5723 10.1035C68.6005 10.0861 69.071 9.45799 69.2287 8.59229C68.3545 8.66978 67.685 9.08071 67.5723 10.1035Z" fill="#8C8C8C"/>
<path d="M67.1692 9.0687C67.3146 8.04953 66.7676 7.48208 65.9378 7.18994C65.8741 8.06891 66.1751 8.79696 67.1692 9.0687Z" fill="#8C8C8C"/>
<path d="M66.9549 10.2237C66.8421 9.19894 66.1716 8.78546 65.2949 8.70898C65.4536 9.57673 65.9241 10.2054 66.9549 10.2237Z" fill="#8C8C8C"/>
<path d="M69.4053 14.915C68.5276 14.9915 67.8545 15.4045 67.7412 16.4333C68.7746 16.4165 69.2486 15.7838 69.4053 14.915Z" fill="#8C8C8C"/>
<path d="M66.5195 15.8024C67.5529 15.7871 68.0254 15.1549 68.1841 14.2852C67.3064 14.3627 66.6338 14.7756 66.5195 15.8024Z" fill="#8C8C8C"/>
<path d="M70.628 15.5449C69.7487 15.6209 69.0762 16.0354 68.9629 17.0622C69.9952 17.0454 70.4698 16.4147 70.628 15.5449Z" fill="#8C8C8C"/>
<path d="M68.4434 13.8267C69.4731 13.8114 69.9457 13.1797 70.1038 12.3135C69.2272 12.3905 68.5561 12.8004 68.4434 13.8267Z" fill="#8C8C8C"/>
<path d="M67.2744 13.1475C68.3047 13.1311 68.7772 12.5005 68.9359 11.6348C68.0582 11.7102 67.3877 12.1232 67.2744 13.1475Z" fill="#8C8C8C"/>
<path d="M66.0869 12.461C67.1172 12.4437 67.5887 11.8151 67.7464 10.9463C66.8707 11.0228 66.1992 11.4357 66.0869 12.461Z" fill="#8C8C8C"/>
<path d="M66.957 13.6289C66.0788 13.7033 65.4052 14.1178 65.293 15.1452C66.3253 15.1273 66.7994 14.4972 66.957 13.6289Z" fill="#8C8C8C"/>
<path d="M64.9866 13.5338C65.1137 12.508 64.5554 11.9508 63.7185 11.6719C63.6706 12.5519 63.9849 13.2774 64.9866 13.5338Z" fill="#8C8C8C"/>
<path d="M64.668 15.09C64.5542 14.0627 63.8811 13.6502 63.0029 13.5728C63.1601 14.442 63.6347 15.0747 64.668 15.09Z" fill="#8C8C8C"/>
<path d="M65.5444 20.3193C64.6657 20.3953 63.9941 20.8078 63.8809 21.8351C64.9132 21.8178 65.3867 21.1871 65.5444 20.3193Z" fill="#8C8C8C"/>
<path d="M62.6943 21.1599C63.7272 21.1435 64.2007 20.5119 64.3584 19.6426C63.4797 19.7201 62.8076 20.1325 62.6943 21.1599Z" fill="#8C8C8C"/>
<path d="M66.7617 20.9512C65.8825 21.0287 65.2109 21.4411 65.0977 22.4685C66.13 22.4506 66.604 21.8204 66.7617 20.9512Z" fill="#8C8C8C"/>
<path d="M67.9844 21.582C67.1072 21.6595 66.4336 22.072 66.3203 23.0993C67.3526 23.0815 67.8262 22.4513 67.9844 21.582Z" fill="#8C8C8C"/>
<path d="M69.2046 22.2109C68.3259 22.2884 67.6538 22.7009 67.54 23.7282C68.5734 23.7104 69.0469 23.0787 69.2046 22.2109Z" fill="#8C8C8C"/>
<path d="M70.4307 22.835C69.5525 22.9125 68.8794 23.327 68.7666 24.3528C69.7989 24.3364 70.2725 23.7058 70.4307 22.835Z" fill="#8C8C8C"/>
<path d="M68.6807 20.3522C69.714 20.3339 70.1886 19.7042 70.3457 18.835C69.4675 18.9125 68.795 19.3249 68.6807 20.3522Z" fill="#8C8C8C"/>
<path d="M67.4961 19.6594C68.5294 19.6425 69.002 19.0119 69.1607 18.1421C68.2819 18.2196 67.6099 18.6326 67.4961 19.6594Z" fill="#8C8C8C"/>
<path d="M66.3262 18.9689C67.3585 18.952 67.8326 18.3214 67.9902 17.4536C67.112 17.5291 66.4384 17.942 66.3262 18.9689Z" fill="#8C8C8C"/>
<path d="M65.1562 18.278C66.1886 18.2617 66.6616 17.63 66.8203 16.7607C65.9416 16.8382 65.2685 17.2507 65.1562 18.278Z" fill="#8C8C8C"/>
<path d="M63.9795 17.5876C65.0118 17.5692 65.4854 16.9396 65.6436 16.0703C64.7653 16.1458 64.0938 16.5582 63.9795 17.5876Z" fill="#8C8C8C"/>
<path d="M64.3233 18.0972C63.4441 18.1736 62.7725 18.5871 62.6582 19.6145C63.6905 19.5971 64.1641 18.9664 64.3233 18.0972Z" fill="#8C8C8C"/>
<path d="M62.457 18.7634C62.7085 17.7616 62.2217 17.1401 61.4251 16.7607C61.2715 17.63 61.4945 18.3887 62.457 18.7634Z" fill="#8C8C8C"/>
<path d="M62.1797 20.0935C62.0664 19.0671 61.3938 18.6537 60.5156 18.5762C60.6738 19.4454 61.1474 20.0771 62.1797 20.0935Z" fill="#8C8C8C"/>
<path d="M61.9521 21.6111C61.8399 20.5817 61.1663 20.1692 60.2881 20.0933C60.4458 20.961 60.9188 21.5927 61.9521 21.6111Z" fill="#8C8C8C"/>
<path d="M64.8242 25.8357C65.8565 25.8173 66.3306 25.1877 66.4883 24.3179C65.6106 24.3938 64.9375 24.8083 64.8242 25.8357Z" fill="#8C8C8C"/>
<path d="M64.8242 28.2097C65.8565 28.1918 66.3306 27.5622 66.4883 26.6924C65.6106 26.7683 64.9385 27.1828 64.8242 28.2097Z" fill="#8C8C8C"/>
<path d="M63.6582 25.1506C64.6915 25.1338 65.1661 24.5011 65.3233 23.6318C64.4451 23.7088 63.7725 24.1233 63.6582 25.1506Z" fill="#8C8C8C"/>
<path d="M62.498 24.4621C63.5314 24.4443 64.0039 23.8126 64.1631 22.9448C63.2829 23.0203 62.6113 23.4333 62.498 24.4621Z" fill="#8C8C8C"/>
<path d="M61.3281 23.781C62.3615 23.7641 62.8345 23.1314 62.9922 22.2637C62.114 22.3396 61.4414 22.7521 61.3281 23.781Z" fill="#8C8C8C"/>
<path d="M85.4584 30.2513C85.4584 30.2513 85.614 31.9532 85.5701 32.6364C85.5181 33.4118 85.4155 33.6841 84.8251 34.068L72.0515 40.649V40.648C72.03 39.3948 72.0045 37.9611 71.977 36.4005L71.9785 35.9891C71.9632 35.132 72.1974 34.6716 73.2098 34.0303C74.0875 33.473 83.5172 27.9581 83.5172 27.9581C83.5387 27.9453 83.5739 27.9203 83.5718 27.8444L83.1366 24.5034H82.9916C82.9916 24.5034 83.1202 25.91 83.0825 26.4729C83.0411 27.1138 82.9554 27.3391 82.4686 27.6552L71.9183 33.0901C71.8897 31.4729 71.8596 29.7716 71.8285 28.0325L71.8193 27.5604C71.8366 27.02 72.029 26.6972 72.7123 26.2649C73.368 25.8489 80.4121 21.7283 80.4121 21.7283C80.4284 21.7192 80.455 21.6993 80.4524 21.6437L80.1274 19.1485H80.0197C80.0197 19.1485 80.1156 20.1983 80.0881 20.6189C80.0564 21.0977 79.9926 21.2659 79.6288 21.502L71.7841 25.544C71.7489 23.5887 71.7142 21.6131 71.679 19.6747V19.6737C71.733 19.3984 71.8912 19.0415 72.3224 18.7682C72.7914 18.471 77.8336 15.521 77.8336 15.521C77.8448 15.5149 77.8642 15.5001 77.8622 15.4609L77.63 13.6739H77.5524C77.5524 13.6739 77.6208 14.4264 77.6014 14.7272C77.5784 15.0698 77.5335 15.1896 77.2728 15.3589L71.6534 18.2558V18.2548C71.6203 16.4546 71.5896 14.7017 71.5601 13.0458C71.5544 12.7664 71.5504 12.489 71.5447 12.2152C71.4284 5.76117 71.3422 0.96766 71.3422 0.96766C71.3422 0.93707 71.3197 0.912598 71.2881 0.912598C71.2585 0.912598 71.236 0.93707 71.236 0.96766C71.236 0.96766 71.1523 5.75557 71.0401 12.2045C71.038 12.333 71.0355 12.4645 71.0324 12.5956C71.0355 12.4645 71.037 12.333 71.0401 12.2045L67.5272 10.3951C67.3634 10.287 67.3343 10.2111 67.32 9.99488C67.3073 9.8042 67.3496 9.32903 67.3496 9.32903H67.3012L67.1542 10.4583C67.1537 10.4843 67.1659 10.4935 67.1731 10.4976C67.1731 10.4976 70.3614 12.3621 70.6584 12.5502C70.8645 12.6807 70.9707 12.8423 71.0253 12.9882V12.9892L71.0263 12.9902C70.9977 14.6594 70.9671 16.4286 70.9344 18.2456L65.3324 15.3599C65.0707 15.1902 65.0268 15.0703 65.0043 14.7272C64.9844 14.4264 65.0528 13.6749 65.0528 13.6749H64.9752L64.742 15.4609C64.7405 15.5012 64.7604 15.5149 64.7721 15.5221C64.7721 15.5221 69.8138 18.471 70.2828 18.7682C70.6783 19.018 70.8436 19.3387 70.911 19.6028V19.6043C70.8768 21.5652 70.8421 23.5653 70.8079 25.544L62.9621 21.503C62.5983 21.2659 62.5345 21.0982 62.5029 20.6199C62.4758 20.1993 62.5712 19.1485 62.5712 19.1485H62.4626L62.1385 21.6442C62.1355 21.7003 62.1625 21.7192 62.1788 21.7294C62.1788 21.7294 69.2219 25.8489 69.8786 26.2649C70.5818 26.71 70.7655 27.0398 70.7717 27.6119L70.7635 28.1156V28.1146C70.7339 29.8241 70.7048 31.4943 70.6772 33.0855L60.1377 27.6552C59.6508 27.3391 59.5641 27.1138 59.5228 26.4729C59.486 25.91 59.6136 24.5044 59.6136 24.5044H59.4682L59.0334 27.8444C59.0314 27.9193 59.0655 27.9453 59.088 27.9581C59.088 27.9581 68.5177 33.474 69.3964 34.0308C70.4088 34.6716 70.641 35.132 70.6277 35.9891V35.9962C70.5982 37.7133 70.5711 39.2847 70.5476 40.6454L57.7796 34.068C57.1902 33.6841 57.0866 33.4118 57.0361 32.6364C56.9912 31.9542 57.1468 30.2513 57.1468 30.2513H56.9703L56.4447 34.2969C56.4401 34.3877 56.4835 34.4193 56.5095 34.4346C56.5095 34.4346 67.9303 41.115 68.9933 41.789C70.2343 42.5752 70.4844 42.6302 70.4844 44.0695C70.4844 44.1358 70.4604 45.802 70.4604 45.8631C70.4604 47.1173 69.4673 47.151 69.4673 47.151L69.4704 47.3978H73.1297L73.1323 47.151C73.1323 47.151 72.1397 47.1173 72.1397 45.8631C72.1397 45.802 72.1198 44.1954 72.1198 44.0695C72.1198 42.6302 72.3699 42.5747 73.6114 41.789C74.6749 41.114 86.0968 34.4346 86.0968 34.4346C86.1228 34.4193 86.1651 34.3877 86.1616 34.2969L85.6339 30.2513H85.4584Z" fill="#8C8C8C"/>
<path d="M67.2305 27.2697C68.2633 27.2524 68.7369 26.6217 68.8956 25.7524C68.0158 25.8279 67.3427 26.2424 67.2305 27.2697Z" fill="#8C8C8C"/>
<path d="M70.0586 26.5112C69.1794 26.5867 68.5073 27.0012 68.3945 28.0285C69.4269 28.0112 69.9004 27.3805 70.0586 26.5112Z" fill="#8C8C8C"/>
<path d="M76.2735 23.0767C77.0828 22.4333 77.0737 21.643 76.6675 20.8584C76.0179 21.4564 75.7377 22.1937 76.2735 23.0767Z" fill="#8C8C8C"/>
<path d="M74.5998 21.9541C73.9507 22.5527 73.6701 23.2894 74.2064 24.1724C75.0157 23.529 75.0065 22.7387 74.5998 21.9541Z" fill="#8C8C8C"/>
<path d="M72.4062 18.9009C72.5644 19.7707 73.037 20.4003 74.0713 20.4187C73.957 19.3913 73.2845 18.9784 72.4062 18.9009Z" fill="#8C8C8C"/>
<path d="M78.3393 25.7043C78.225 24.677 77.5535 24.264 76.6758 24.1865C76.8335 25.0563 77.306 25.686 78.3393 25.7043Z" fill="#8C8C8C"/>
<path d="M76.2539 26.8303C76.1396 25.8029 75.468 25.3905 74.5908 25.313C74.749 26.1823 75.2215 26.8124 76.2539 26.8303Z" fill="#8C8C8C"/>
<path d="M82.0997 35.1757C81.9859 34.1463 81.3113 33.7318 80.4326 33.6543C80.5903 34.5256 81.0638 35.1593 82.0997 35.1757Z" fill="#8C8C8C"/>
<path d="M79.7072 36.2801C79.5939 35.2513 78.9188 34.8368 78.04 34.7593C78.1967 35.6306 78.6713 36.2638 79.7072 36.2801Z" fill="#8C8C8C"/>
<path d="M76.9316 32.1855C77.0903 33.0558 77.5634 33.6865 78.5957 33.7028C78.4824 32.6775 77.8104 32.263 76.9316 32.1855Z" fill="#8C8C8C"/>
<path d="M75.358 38.4969C75.2447 37.4681 74.5696 37.0536 73.6914 36.9761C73.8486 37.8474 74.3221 38.4811 75.358 38.4969Z" fill="#8C8C8C"/>
<path d="M84.5652 35.9155C84.3994 36.9265 84.9847 37.4695 85.8756 37.7362C85.9501 36.8679 85.6332 36.1587 84.5652 35.9155Z" fill="#8C8C8C"/>
<path d="M82.2725 37.5762C82.3163 38.6071 83.0047 39.0226 83.937 39.1026C83.8355 38.2313 83.3757 37.5971 82.2725 37.5762Z" fill="#8C8C8C"/>
<path d="M78.7697 40.9621C79.7316 40.5629 79.9398 39.7956 79.7679 38.9248C78.9739 39.3215 78.4967 39.9567 78.7697 40.9621Z" fill="#8C8C8C"/>
<path d="M82.8667 25.3269C82.7529 24.3005 82.0809 23.8871 81.2021 23.8096C81.3608 24.6788 81.8344 25.3105 82.8667 25.3269Z" fill="#8C8C8C"/>
<path d="M82.7988 26.8439C82.6866 25.8151 82.0135 25.4026 81.1348 25.3267C81.2924 26.1944 81.7655 26.8261 82.7988 26.8439Z" fill="#8C8C8C"/>
<path d="M83.7051 27.8606C84.7374 27.8432 85.2099 27.2126 85.3697 26.3428C84.4899 26.4187 83.8179 26.8312 83.7051 27.8606Z" fill="#8C8C8C"/>
<path d="M85.1182 23.8091C84.238 23.885 83.5659 24.2975 83.4531 25.3269C84.4849 25.3085 84.959 24.6789 85.1182 23.8091Z" fill="#8C8C8C"/>
</svg>
