<svg width="90" height="37" viewBox="0 0 90 37" fill="none" xmlns="http://www.w3.org/2000/svg">
<path d="M38.4814 12.1724C31.9269 12.1724 26.5898 17.7323 26.5898 24.5537C26.5898 31.364 31.9269 36.9016 38.4814 36.9016C45.0359 36.9016 50.3729 31.364 50.3729 24.5537C50.3621 17.7323 45.0359 12.1724 38.4814 12.1724ZM38.4814 34.0212C33.5682 34.0212 29.5682 29.7787 29.5682 24.5537C29.5682 19.3176 33.5682 15.0528 38.4814 15.0528C43.3945 15.0528 47.3946 19.3176 47.3946 24.5537C47.3946 29.7675 43.3945 34.0212 38.4814 34.0212Z" fill="#8C8C8C"/>
<path d="M23.8616 14.4946C23.7094 13.5568 23.4268 12.1724 21.5137 12.1724C19.4267 12.1724 19.3506 13.1883 18.9267 14.4946C18.9267 14.4946 14.1332 30.5155 13.7853 32.7373C13.4375 30.5044 8.65478 14.4946 8.65478 14.4946C8.23086 13.1772 8.15477 12.1724 6.06777 12.1724C4.15469 12.1724 3.87207 13.5568 3.7199 14.4946L0.926363 35.8856C0.893754 36.254 0.958973 36.5108 1.31768 36.5108H3.13293C3.67642 36.5108 3.79599 36.254 3.87208 35.7516C4.33948 32.4246 6.18734 19.1055 6.37213 16.3479C6.95909 19.3734 11.3396 34.2556 11.3396 34.2556C11.8614 35.9749 12.0244 36.5108 13.7962 36.5108C15.568 36.5108 15.731 35.9749 16.2528 34.2556C16.2528 34.2556 20.6333 19.3734 21.2311 16.3479C21.4159 19.139 23.3072 32.7484 23.7529 35.8633C23.829 36.2875 23.9594 36.4997 24.4703 36.4997H26.2856C26.6769 36.4997 26.7204 36.1871 26.666 35.7628L23.8616 14.4946Z" fill="#8C8C8C"/>
<path d="M83.5032 15.1305C85.2098 14.9966 87.4055 15.0077 88.5685 15.0301C88.9816 15.0412 89.1881 14.9184 89.1881 14.416V12.8977C89.1881 12.4064 89.0033 12.3059 88.6229 12.2724C87.2859 12.1608 85.6119 12.105 83.4923 12.239C79.677 12.4734 77.2966 13.5452 75.0574 15.9121C72.8834 18.2119 71.9595 21.2487 71.916 24.4752V24.598C71.9595 27.8357 72.8943 30.8724 75.0574 33.1611C77.2966 35.528 79.6662 36.5886 83.4923 36.8342C85.6011 36.9682 87.275 36.9124 88.612 36.8007C88.9924 36.7672 89.1772 36.6556 89.1772 36.1643V34.7353C89.1772 34.2441 89.1229 34.0319 88.612 34.0319C87.4489 34.0543 85.1989 34.0766 83.4923 33.9426C81.0792 33.7528 78.8183 32.9378 77.1553 31.118C75.8291 29.6666 75.1769 27.8357 74.9704 25.8596H88.1555C88.4272 25.8596 88.6446 25.6363 88.6446 25.3572V23.5485C88.6446 23.2694 88.4272 23.0461 88.1555 23.0461H74.9922C75.2204 21.1258 75.8726 19.3619 77.1553 17.9551C78.8401 16.1353 81.0901 15.3203 83.5032 15.1305Z" fill="#8C8C8C"/>
<path d="M70.1993 12.5514H68.2862C68.0145 12.5514 67.7971 12.7747 67.7971 13.0538L67.8079 32.4353C66.7318 30.6825 61.0469 21.4718 58.3838 17.4749L56.1447 13.9805C55.1012 12.384 53.9164 12.5514 53.9164 12.5514C52.7098 12.5514 52.1446 13.1096 51.862 13.746C51.862 13.746 51.5576 14.2707 51.5576 15.4653V36.0191C51.5576 36.2982 51.775 36.5215 52.0468 36.5215H53.9598C54.2316 36.5215 54.449 36.2982 54.449 36.0191L54.4381 16.5371C54.4381 16.5371 60.6448 26.6856 63.8405 31.5868L66.0796 35.0812C67.1231 36.6778 68.3079 36.5103 68.3079 36.5103C69.5145 36.5103 70.0797 35.9521 70.3623 35.3157C70.3623 35.3157 70.6776 34.791 70.6776 33.5964V13.0538C70.6884 12.7747 70.471 12.5514 70.1993 12.5514Z" fill="#8C8C8C"/>
<path d="M79.4057 8.3202C79.6013 8.52116 79.9166 8.52116 80.1014 8.3202L81.0361 7.34889L85.2101 3.06175C85.4058 2.86079 85.4058 2.53702 85.2101 2.34723L83.9601 1.06332C83.7645 0.862358 83.4601 0.862358 83.2645 1.06332L82.3188 2.03462L78.1448 6.32176C77.9491 6.52272 77.9491 6.84649 78.1448 7.03629L79.4057 8.3202Z" fill="#8C8C8C"/>
</svg>
