<?xml version="1.0" encoding="UTF-8"?>
<!-- Generator: Adobe Illustrator 17.1.0, SVG Export Plug-In . SVG Version: 6.00 Build 0)  -->
<!DOCTYPE svg PUBLIC "-//W3C//DTD SVG 1.1//EN" "http://www.w3.org/Graphics/SVG/1.1/DTD/svg11.dtd">
<svg version="1.1" id="Layer_1" xmlns="http://www.w3.org/2000/svg" xmlns:xlink="http://www.w3.org/1999/xlink" x="0px" y="0px" viewBox="0 0 38 38" enable-background="new 0 0 38 38" xml:space="preserve">
<g>
	<path fill="#FFFFFF" d="M8,4v31h22V4H8z M28,33H10V6h18V33z"/>
	<path fill="#FFFFFF" d="M27,7H11v6h16V7z M25,11H13V9h12V11z"/>
	<rect x="11" y="16" fill="#FFFFFF" width="4" height="2"/>
	<rect x="17" y="16" fill="#FFFFFF" width="4" height="2"/>
	<rect x="23" y="16" fill="#FFFFFF" width="4" height="2"/>
	<rect x="11" y="28" fill="#FFFFFF" width="4" height="2"/>
	<rect x="17" y="28" fill="#FFFFFF" width="4" height="2"/>
	<rect x="11" y="20" fill="#FFFFFF" width="4" height="2"/>
	<rect x="17" y="20" fill="#FFFFFF" width="4" height="2"/>
	<rect x="23" y="20" fill="#FFFFFF" width="4" height="2"/>
	<rect x="11" y="24" fill="#FFFFFF" width="4" height="2"/>
	<rect x="17" y="24" fill="#FFFFFF" width="4" height="2"/>
	<rect x="23" y="24" fill="#FFFFFF" width="4" height="6"/>
</g>
</svg>