<svg style="display: none;" aria-hidden="true" xmlns="http://www.w3.org/2000/svg" xmlns:xlink="http://www.w3.org/1999/xlink"><symbol viewBox="0 0 28 33" fill="none" id="svg-advantages-list-1"><path d="M27.3286 12.4009L15.6489 0.720215L0.411133 15.9575V27.6382H4.85813C4.87973 27.66 4.89833 27.6843 4.92043 27.7056C5.35643 28.1265 5.87163 28.7818 5.84913 29.5122C5.83303 30.0327 5.53563 30.5435 4.96583 31.0298L6.26373 32.5513C7.53083 31.4702 7.82473 30.3355 7.84823 29.5738C7.86853 28.9152 7.68523 28.2648 7.34903 27.6383H12.0919L27.3286 12.4009ZM5.85363 25.6382C5.67933 25.3113 5.58393 24.9622 5.58163 24.6243C5.85173 24.7016 6.13113 24.7563 6.42573 24.7563C8.12933 24.7563 9.51553 23.3706 9.51553 21.6665C9.51553 19.9634 8.12933 18.5776 6.42573 18.5776C4.72213 18.5776 3.33593 19.9633 3.33593 21.6665C3.33593 22.2755 3.51883 22.8401 3.82423 23.3191C3.71033 23.6016 3.62113 23.8975 3.58693 24.2173C3.53703 24.6853 3.58093 25.1683 3.70583 25.6382H2.41113V16.7857L15.6489 3.54831L24.5005 12.4008L11.2636 25.6382H5.85363ZM5.33593 21.6665C5.33593 21.0659 5.82473 20.5776 6.42573 20.5776C7.02673 20.5776 7.51553 21.0659 7.51553 21.6665C7.51553 22.2671 7.02673 22.7563 6.42573 22.7563C5.82473 22.7563 5.33593 22.2671 5.33593 21.6665Z" fill="#000"/></symbol><symbol viewBox="0 0 26 32" fill="none" id="svg-advantages-list-10"><path d="M24.2791 25.0543L15.9999 17V10H17.9999V8H15.9999 9.99988 7.99988V10H9.99988V17L1.72868 24.9444C.669783 26.1014.357983 27.7586.924283 29.2213L.978884 29.3624C1.59428 30.9521 3.12358 32 4.82818 32H21.1967C22.8888 32 24.4095 30.9672 25.0335 29.3943L25.0535 29.3439C25.633 27.8832 25.3327 26.2202 24.2791 25.0543zM23.1945 28.6065L23.1745 28.6569C22.8508 29.4728 22.0745 30 21.1967 30H4.82818C3.95618 30 3.15878 29.4536 2.84398 28.6404L2.78938 28.4993C2.50198 27.7569 2.64758 26.9328 3.16808 26.3351L11.3854 18.4424 11.9999 17.8521V17 10H13.9999V17 17.8446L14.6053 18.4335 22.8309 26.4358C23.349 27.0381 23.4887 27.8647 23.1945 28.6065zM9.99988 6.5C10.8283 6.5 11.4999 5.82843 11.4999 5 11.4999 4.17157 10.8283 3.5 9.99988 3.5 9.17145 3.5 8.49988 4.17157 8.49988 5 8.49988 5.82843 9.17145 6.5 9.99988 6.5zM14.9999 3.5C15.8283 3.5 16.4999 2.82843 16.4999 2 16.4999 1.17157 15.8283.5 14.9999.5 14.1715.5 13.4999 1.17157 13.4999 2 13.4999 2.82843 14.1715 3.5 14.9999 3.5z" fill="#000"/></symbol><symbol viewBox="0 0 32 32" fill="none" id="svg-advantages-list-11"><path d="M16 0C7.1777 0 0 7.1777 0 16C0 24.8223 7.1777 32 16 32C24.8223 32 32 24.8223 32 16C32 7.1777 24.8223 0 16 0ZM7.7749 4.6957L10.5498 7.6235L8.2422 11.0131L2.3267 13.0196C3.0679 9.6175 5.0521 6.6825 7.7749 4.6957ZM2 16C2 15.1667 2.0867 14.3547 2.2269 13.561L5.4912 16.6801L6.7187 19.0009L5.3787 25.0958C3.2781 22.6465 2 19.4723 2 16ZM7.0599 26.7628L8.8301 18.7138L7.1074 15.4584L5.6025 14.0204L9.5185 12.6918L13.1093 7.4174L9.502 3.6101C11.446 2.5865 13.6546 2 16 2C18.0826 2 20.0533 2.4696 21.8314 3.2887L18.0996 5.7192L21.2607 9.6523L21.8994 9.5024L21.6621 9.8916L22.0586 12.5312L22.9492 13.125L22.0996 13.1675L17.1523 15.3662L17.4052 20.04L22.6093 22.6894L24.0527 27.4332C21.7725 29.0442 18.9981 30 16 30C12.6033 30 9.4869 28.7822 7.0599 26.7628ZM25.7233 26.0509L24.2754 21.293L19.3408 18.7803L19.2246 16.6338L22.5723 15.146L29.0977 14.8193L23.9043 11.3584L23.748 10.3115L26.0908 6.4604L22.0303 7.4169L21.043 6.189L23.81 4.3869C27.5412 6.9042 30 11.1701 30 16C30 19.9431 28.3552 23.504 25.7233 26.0509Z" fill="#000"/></symbol><symbol viewBox="0 0 30 32" fill="none" id="svg-advantages-list-12"><path d="M7.27591 7.0518C7.27591 5.1094 8.41601 3.3169 10.1802 2.4854L12.0991 1.5806 10.1806.6763C9.22901.2275 8.21971 0 7.18071 0 3.29251 0 .128906 3.1636.128906 7.0518.128906 10.94 3.29251 14.1031 7.18071 14.1031 8.21931 14.1031 9.22861 13.876 10.1802 13.4278L12.1001 12.5235 10.1802 11.6182C8.41601 10.7866 7.27591 8.9941 7.27591 7.0518zM7.18071 12.103C4.39511 12.103 2.12891 9.8369 2.12891 7.0517 2.12891 4.2661 4.39501 2 7.18071 2 7.25881 2 7.33651 2.002 7.41411 2.0054 6.07381 3.3135 5.27591 5.1299 5.27591 7.0518 5.27591 8.9737 6.07381 10.7896 7.41361 12.0977 7.33641 12.1011 7.25881 12.103 7.18071 12.103zM14 6V32H30V6H14zM28 30H16V8H28V30z" fill="#000"/><path d="M24 26H20V28H24V26Z" fill="#000"/></symbol><symbol viewBox="0 0 31 31" fill="none" id="svg-advantages-list-2"><path d="M15.4106 5.79883C10.2182 5.79883 5.99414 10.0234 5.99414 15.2158 5.99414 18.8735 8.06594 22.1313 11.3271 23.6958V27.6323H19.4936V23.6958C22.7553 22.1313 24.8276 18.8735 24.8276 15.2158 24.8276 10.0234 20.603 5.79883 15.4106 5.79883zM18.1264 22.1108L17.4936 22.3608V25.6323H13.3271V22.3608L12.6943 22.1108C9.83884 20.9848 7.99414 18.2778 7.99414 15.2158 7.99414 11.126 11.3212 7.79883 15.4106 7.79883 19.5004 7.79883 22.8276 11.1259 22.8276 15.2158 22.8276 18.2778 20.9829 20.9848 18.1264 22.1108zM16.4106.632324H14.4106V4.63232H16.4106V.632324zM4.41064 14.6323H.410645V16.6323H4.41064V14.6323zM30.4106 14.6323H26.4106V16.6323H30.4106V14.6323zM27.0313 6.04652L25.6171 4.63232 22.7887 7.46072 24.2029 8.87492 27.0313 6.04652zM8.03189 7.46072L5.20349 4.63232 3.78929 6.04652 6.61769 8.87492 8.03189 7.46072zM19.4106 28.6323H11.4106V30.6323H19.4106V28.6323z" fill="#000"/></symbol><symbol viewBox="0 0 29 33" fill="none" id="svg-advantages-list-3"><path d="M15.4106 5.31042V2.63232H18.4106V0.632324H10.4106V2.63232H13.4106V5.31042C6.33052 5.82602 0.724121 11.7369 0.724121 18.9458C0.724121 26.4927 6.86372 32.6323 14.4106 32.6323C21.9575 32.6323 28.0971 26.4927 28.0971 18.9458C28.0971 11.7369 22.4907 5.82602 15.4106 5.31042ZM14.4106 30.6323C7.96632 30.6323 2.72412 25.3901 2.72412 18.9458C2.72412 12.502 7.96632 7.25982 14.4106 7.25982C20.8549 7.25982 26.0971 12.502 26.0971 18.9458C26.0971 25.3901 20.8549 30.6323 14.4106 30.6323Z" fill="#000"/><path d="M12.6824 19.666L14.0965 21.0801 22.0881 13.0884 20.6741 11.6744 12.6824 19.666zM17.7895 12.7036L18.6958 10.9214C17.354 10.2378 15.9048 9.8916 14.3892 9.8916 11.7525 9.8916 9.30233 10.9458 7.48883 12.8608L8.94003 14.2358C10.3726 12.7241 12.3072 11.8916 14.3892 11.8916 15.5864 11.8916 16.7299 12.165 17.7895 12.7036zM14.892 16.2548L15.2729 14.2909C13.5854 13.9647 11.7553 14.5414 10.5639 15.8002L12.0151 17.1752C12.7524 16.3973 13.8579 16.056 14.892 16.2548z" fill="#000"/></symbol><symbol viewBox="0 0 32 33" fill="none" id="svg-advantages-list-4"><path d="M13.6705 22.061C14.499 22.061 15.1705 21.3895 15.1705 20.561 15.1705 19.7326 14.499 19.061 13.6705 19.061 12.8421 19.061 12.1705 19.7326 12.1705 20.561 12.1705 21.3895 12.8421 22.061 13.6705 22.061zM29.8648 6.29259L31.6031 4.10609 28.3267.829692 26.1255 2.54009C25.2671 2.31449 24.3482 2.31449 23.4907 2.53419L21.3003.791992 18.024 4.06839 19.7349 6.27099C19.5074 7.13479 19.5054 8.04049 19.7281 8.90579L17.9869 11.0962 21.2633 14.3721 23.4606 12.6646C24.32 12.8902 25.2428 12.8926 26.1042 12.6719L28.2897 14.4092 31.5661 11.1338 29.8591 8.93599C30.0875 8.06889 30.0894 7.16019 29.8648 6.29259zM27.817 6.44489C28.1041 7.19539 28.1031 8.02199 27.8131 8.77199L27.609 9.29979 28.9039 10.9668 28.1373 11.7334 26.4859 10.4204 25.9527 10.624C25.2105 10.9077 24.3697 10.9067 23.6256 10.6181L23.0983 10.4135 21.4294 11.7099 20.6628 10.9438 21.9792 9.28849 21.7761 8.75629C21.49 8.00679 21.4919 7.18209 21.781 6.43449L21.9851 5.90719 20.6861 4.23539 21.4527 3.46879 23.109 4.78569 23.6412 4.58209C24.3844 4.30039 25.2213 4.29939 25.9625 4.58649L26.4898 4.78959 28.1607 3.49179 28.9273 4.25839 27.6128 5.91169 27.817 6.44489z" fill="#000"/><path d="M26.7486 19.8765L25.2896 14.4312 20.8628 15.0918C19.8716 13.7915 18.5444 12.7793 17.0342 12.1724L16.5235 7.69629H10.8858L10.3248 12.1651C8.78089 12.7813 7.42929 13.8194 6.42979 15.1573L1.99379 14.4952.53479 19.941 4.69789 21.6353C4.85899 22.9966 5.32579 24.2945 6.06799 25.4468L4.14809 29.8648 9.03039 32.6841 11.5592 29.3472C12.8634 29.6617 14.2418 29.6783 15.5563 29.399L18.1266 32.7906 23.0084 29.9713 21.1334 25.6549C21.9752 24.4264 22.4928 23.025 22.652 21.5436L26.7486 19.8765zM20.7232 20.1695L20.7007 20.817C20.647 22.315 20.1284 23.7301 19.2007 24.9078L18.8316 25.3775 20.4634 29.1314 18.6538 30.1753 16.3325 27.1118 15.6699 27.3081C14.3071 27.7095 12.8349 27.689 11.4844 27.2495L10.8072 27.0278 8.50199 30.0688 6.69389 29.0249 8.35359 25.2056 8.01029 24.7417C7.18019 23.6196 6.70709 22.2896 6.64209 20.894L6.61239 20.2554 2.92339 18.7534 3.46339 16.7363 7.39019 17.3222 7.73929 16.7768C8.62889 15.3857 9.97949 14.3471 11.542 13.852L12.1528 13.6586 12.6504 9.69619H14.7383L15.1909 13.6586 15.8076 13.8549C17.3428 14.3442 18.6772 15.3608 19.5649 16.7187L19.9155 17.2548 23.8188 16.6723 24.3598 18.6889 20.7232 20.1695zM24.795 8.60107C25.3473 8.60107 25.795 8.15336 25.795 7.60107 25.795 7.04879 25.3473 6.60107 24.795 6.60107 24.2428 6.60107 23.795 7.04879 23.795 7.60107 23.795 8.15336 24.2428 8.60107 24.795 8.60107z" fill="#000"/></symbol><symbol viewBox="0 0 32 32" fill="none" id="svg-advantages-list-5"><path d="M2 30V23.2705L16.0747 9.1963L21 14.1509V9H23V16.1006L27.167 20.3604L31.9395 15.5864L30.5254 14.1724L27.1826 17.5166L25 15.2852V7H19V9.3022L16.0786 6.3633L2 20.4423V0H0V30V32H2H32V30H2Z" fill="#000"/></symbol><symbol viewBox="0 0 32 26" fill="none" id="svg-advantages-list-6"><path d="M13 7H5V9H13V7zM13 12H5V14H13V12z" fill="#000"/><path d="M0 0V1V2V19V21H2H17V25.6494L22 21.2617L27 25.6494V21H30H32V19V2V1V0H0ZM22 15.5C19.5186 15.5 17.5 13.4814 17.5 11C17.5 8.5186 19.5186 6.5 22 6.5C24.4814 6.5 26.5 8.5186 26.5 11C26.5 13.4814 24.4814 15.5 22 15.5ZM22 18.6016L19 21.2334V16.7604C19.8985 17.2303 20.9177 17.5 22 17.5C23.0823 17.5 24.1015 17.2303 25 16.7604V21.2334L22 18.6016ZM30 19H27V15.1473C27.9359 14.021 28.5 12.5753 28.5 11C28.5 7.416 25.584 4.5 22 4.5C18.416 4.5 15.5 7.416 15.5 11C15.5 12.5754 16.0641 14.0211 17 15.1473V19H2V2H30V19Z" fill="#000"/></symbol><symbol viewBox="0 0 32 22" fill="none" id="svg-advantages-list-7"><path d="M19.146 0H12.854H0V7.8662V14.1338V22H12.854H19.146H32V14.1338V7.8662V0H19.146ZM27.45 2L19.146 7.0818V2H27.45ZM12.854 7.0818L4.55 2H12.854V7.0818ZM2 2.7844L10.304 7.8662H2V2.7844ZM2 14.1338H10.3042L2 19.216V14.1338ZM4.5492 20L12.854 14.9177V20H4.5492ZM14.854 20V12.1338H2V9.8662H14.854V2H17.146V9.8662H30V12.1338H17.146V20H14.854ZM19.146 14.9177L27.4508 20H19.146V14.9177ZM30 19.216L21.6958 14.1338H30V19.216ZM21.696 7.8662L30 2.7844V7.8662H21.696Z" fill="#000"/></symbol><symbol viewBox="0 0 32 32" fill="none" id="svg-advantages-list-8"><path d="M16 0C7.1777 0 0 7.1777 0 16C0 24.8223 7.1777 32 16 32C24.8223 32 32 24.8223 32 16C32 7.1777 24.8223 0 16 0ZM16 30C8.2803 30 2 23.7197 2 16C2 8.2803 8.2803 2 16 2C23.7197 2 30 8.2803 30 16C30 23.7197 23.7197 30 16 30Z" fill="#000"/><path d="M18.0417 18V17.9958C20.7789 17.9727 23 15.7426 23 13C23 10.2574 20.7789 8.0273 18.0417 8.0042V8H13.7917H11.7917V10V16V18V19H9.79175V21H11.7917V24H13.7917V21H21V19H13.7917V18H18.0417ZM13.7917 10H18C19.6543 10 21 11.3457 21 13C21 14.6543 19.6543 16 18 16H13.7917V10Z" fill="#000"/></symbol><symbol viewBox="0 0 32 31" fill="none" id="svg-advantages-list-9"><path d="M21.1014 8.56136L9.21204 20.4507L10.6261 21.8647L22.5154 9.97542L21.1014 8.56136Z" fill="#000"/><path d="M31.8271 15.3682L28.0253 11.4385L28.7909 6.02489L23.4052 5.08059L20.8427 0.250488L15.9311 2.65189L11.0195 0.250488L8.45654 5.08059L3.07134 6.02489L3.83694 11.439L0.0356445 15.3682L3.83694 19.2979L3.07134 24.711L8.45665 25.6563L11.0196 30.4854L15.9312 28.085L20.8428 30.4854L23.4053 25.6563L28.791 24.711L28.0254 19.2979L31.8271 15.3682ZM22.0967 23.8555L19.9834 27.8389L15.9312 25.8584L11.879 27.8389L9.76524 23.8555L5.32234 23.0762L5.95414 18.6104L2.81794 15.3682L5.95414 12.1265L5.32234 7.66069L9.76524 6.88139L11.879 2.89699L15.9312 4.87839L19.9834 2.89699L22.0967 6.88139L26.5391 7.66069L25.9082 12.127L29.0439 15.3682L25.9082 18.6104L26.5391 23.0762L22.0967 23.8555Z" fill="#000"/><path d="M15.1719 11.7725C15.1719 9.84276 13.5996 8.27246 11.6675 8.27246 9.7349 8.27246 8.1626 9.84276 8.1626 11.7725 8.1626 13.7022 9.7349 15.2725 11.6675 15.2725 13.5996 15.2725 15.1719 13.7021 15.1719 11.7725zM10.1626 11.7725C10.1626 10.9454 10.8379 10.2725 11.6675 10.2725 12.4971 10.2725 13.1719 10.9454 13.1719 11.7725 13.1719 12.5996 12.4971 13.2725 11.6675 13.2725 10.8379 13.2725 10.1626 12.5996 10.1626 11.7725zM20.2394 15.1475C18.3068 15.1475 16.7345 16.7198 16.7345 18.6524 16.7345 20.585 18.3068 22.1573 20.2394 22.1573 22.172 22.1573 23.7443 20.585 23.7443 18.6524 23.7443 16.7198 22.172 15.1475 20.2394 15.1475zM20.2394 20.1572C19.4093 20.1572 18.7345 19.4824 18.7345 18.6523 18.7345 17.8222 19.4093 17.1474 20.2394 17.1474 21.0695 17.1474 21.7443 17.8222 21.7443 18.6523 21.7443 19.4824 21.0694 20.1572 20.2394 20.1572z" fill="#000"/></symbol><symbol viewBox="0 0 32 13" fill="none" id="svg-arrow-right"><path stroke="inherit" stroke-width="1.5" d="M30.808 6.651L.808 6.651M25.1509.975708L30.8077 6.63256 25.1509 12.2894"/></symbol><symbol viewBox="0 0 102 13" fill="none" id="svg-arrow-right-long"><path d="M100.808 6.651L.808 6.651M95.1509.975586L100.808 6.63244 95.1509 12.2893"/></symbol><symbol viewBox="0 0 39 38" fill="none" id="svg-menu-calculator"><path d="M9.91504 6V32H29.915V6H9.91504ZM27.915 30H11.915V8H27.915V30Z" fill="#fff"/><path d="M21.915 12L19.915 12 19.915 14 21.915 14 21.915 12zM23.915 12L21.915 12 21.915 14 23.915 14 23.915 12zM25.915 12L23.915 12 23.915 14 25.915 14 25.915 12zM27.915 12L25.915 12 25.915 14 27.915 14 27.915 12zM17.915 12L15.915 12 15.915 14 17.915 14 17.915 12zM13.915 12L11.915 12 11.915 14 13.915 14 13.915 12zM19.915 12L17.915 12 17.915 14 19.915 14 19.915 12zM15.915 12L13.915 12 13.915 14 15.915 14 15.915 12zM24.915 17L22.915 17 22.915 19 24.915 19 24.915 17zM20.915 17L18.915 17 18.915 19 20.915 19 20.915 17zM16.915 17L14.915 17 14.915 19 16.915 19 16.915 17zM24.915 25L22.915 25 22.915 27 24.915 27 24.915 25zM24.915 21L22.915 21 22.915 23 24.915 23 24.915 21zM24.915 23L22.915 23 22.915 25 24.915 25 24.915 23zM20.915 21L18.915 21 18.915 23 20.915 23 20.915 21zM20.915 25L18.915 25 18.915 27 20.915 27 20.915 25zM16.915 21L14.915 21 14.915 23 16.915 23 16.915 21zM16.915 25L14.915 25 14.915 27 16.915 27 16.915 25z" fill="#fff"/></symbol><symbol viewBox="0 0 39 38" fill="none" id="svg-menu-services"><path d="M28.1367 10L10.1367 10 10.1367 12 28.1367 12 28.1367 10zM18.1367 6L10.1367 6 10.1367 8 18.1367 8 18.1367 6zM28.1367 14L10.1367 14 10.1367 16 28.1367 16 28.1367 14zM28.1367 24L10.1367 24 10.1367 26 28.1367 26 28.1367 24zM18.1367 20L10.1367 20 10.1367 22 18.1367 22 18.1367 20zM28.1367 28L10.1367 28 10.1367 30 28.1367 30 28.1367 28z" fill="#fff"/></symbol><symbol viewBox="0 0 27 38" id="svg-percent"><path d="M14.5077 32.0325C14.5077 35.9825 16.5077 37.9325 20.1577 37.9325H21.1077C24.5577 37.9325 26.7577 35.8825 26.7577 32.0325V26.4825C26.7577 22.6325 24.7577 20.5825 21.1577 20.5825H20.1077C16.7077 20.5825 14.5077 22.5325 14.5077 26.4825V32.0325ZM0.357727 11.5325C0.357727 15.3825 2.35773 17.4325 5.95773 17.4325H6.95773C10.4077 17.4325 12.6077 15.3325 12.6077 11.5325V5.98252C12.6077 2.03252 10.5577 0.0825195 6.95773 0.0825195H5.95773C2.55773 0.0825195 0.357727 1.98252 0.357727 5.98252V11.5325ZM18.6077 0.432521L3.65773 37.6325H8.55773L23.5077 0.432521H18.6077ZM7.20773 12.3325C7.20773 12.8825 6.95773 13.1825 6.45773 13.1825C6.00773 13.1825 5.75773 12.8825 5.75773 12.3325V5.08252C5.75773 4.53252 6.00773 4.23252 6.45773 4.23252C6.95773 4.23252 7.20773 4.53252 7.20773 5.08252V12.3325ZM20.6577 33.7325C20.2077 33.7325 19.9577 33.4325 19.9577 32.8825V25.6325C19.9577 25.0825 20.1077 24.7325 20.6577 24.7325C21.2077 24.7325 21.3577 25.0825 21.3577 25.6325V32.8825C21.3577 33.4325 21.1077 33.7325 20.6577 33.7325Z"/></symbol><symbol viewBox="0 0 19 14" fill="none" id="svg-play-eye"><path fill-rule="evenodd" clip-rule="evenodd" d="M9.33333 0C5.34513 0 1.86302 2.81539 0 7C1.86302 11.1846 5.34513 14 9.33333 14C13.3215 14 16.8037 11.1846 18.6667 7C16.8037 2.8154 13.3215 0 9.33333 0ZM9.33395 10.5C11.2669 10.5 12.8339 8.933 12.8339 7C12.8339 5.067 11.2669 3.5 9.33395 3.5C7.40095 3.5 5.83395 5.067 5.83395 7C5.83395 8.933 7.40095 10.5 9.33395 10.5Z" fill="#000"/></symbol><symbol viewBox="0 0 11 17" fill="none" id="svg-play-triangle"><path d="M10.8077 8.63241L0.807739 16.9657L0.807739 0.299079L10.8077 8.63241Z" fill="#fff"/></symbol><symbol viewBox="0 0 57 44" fill="none" id="svg-quotes"><path d="M2.96064 22.9823H12.7106V25.0623C12.7106 27.0557 12.3206 28.399 11.5406 29.0923C10.7606 29.699 9.37398 30.0023 7.38065 30.0023H0.750645V43.1323H7.64064C14.054 43.1323 18.8206 41.789 21.9406 39.1023C25.0606 36.329 26.6206 31.4323 26.6206 24.4123V0.232323H2.96064V22.9823ZM33.1206 22.9823H42.8706V25.0623C42.8706 27.0557 42.4806 28.399 41.7006 29.0923C40.9206 29.699 39.534 30.0023 37.5406 30.0023H30.9106V43.1323H37.8006C44.214 43.1323 48.9806 41.789 52.1006 39.1023C55.2206 36.329 56.7806 31.4323 56.7806 24.4123V0.232323H33.1206V22.9823Z" fill="#fff" fill-opacity=".7"/></symbol><symbol viewBox="0 0 33 16" fill="none" id="svg-services-arch-1"><path d="M29.4106 13.6323V7.37794L9.27144 0.944336L3.41064 7.02154V13.6323H0.410645V15.6323H32.4106V13.6323H29.4106ZM25.4106 13.6323V9.63234H21.4106V13.6323H5.41064V7.82914L9.84764 3.22754L27.4106 8.83883V13.6323H25.4106Z" fill="#000"/></symbol><symbol viewBox="0 0 33 22" fill="none" id="svg-services-arch-2"><path d="M28.4106 19.6323V12.6323V11.6323V10.6323H24.4106V2.63232V0.632324H22.4106H10.4106H8.41064V2.63232V10.6323H4.41064V11.6323V12.6323V19.6323H0.410645V21.6323H4.41064H6.41064H8.41064H10.4106H22.4106H24.4106H26.4106H28.4106H32.4106V19.6323H28.4106ZM6.41064 19.6323V12.6323H8.41064V19.6323H6.41064ZM18.4096 19.6323V15.6419H14.4192V19.6323H10.4106V12.6323V10.6323V2.63232H22.4106V10.6323V12.6323V19.6323H18.4096ZM24.4106 19.6323V12.6323H26.4106V19.6323H24.4106Z" fill="#000"/></symbol><symbol viewBox="0 0 33 23" fill="none" id="svg-services-arch-3"><path d="M24.8076 20.2626V16.3323L28.7661 12.0976L25.7641 0.632324L20.5707 2.17092L18.849 12.9492L22.8076 16.3045V20.2626H10.8076V16.3323L14.7661 12.0976L11.7641 0.632324L6.57082 2.17082L4.84912 12.9491L8.80762 16.3045V20.2626H0.807617V22.2626H32.8076V20.2626H24.8076ZM21.0014 12.1522L22.3461 3.73032L24.352 3.13612L26.5512 11.537L24.8076 13.4029V11.2626H22.8076V13.6827L21.0014 12.1522ZM7.00142 12.1522L8.34612 3.73032L10.352 3.13612L12.5512 11.537L10.8076 13.4029V11.2626H8.80762V13.6827L7.00142 12.1522Z" fill="#000"/></symbol><symbol viewBox="0 0 33 33" fill="none" id="svg-services-arch-4"><path d="M0.807617 0.632324V32.6323H32.8076V0.632324H0.807617ZM30.8076 30.6323H2.80762V2.63232H30.8076V30.6323Z" fill="#000"/><path d="M11.8076 5.63232H5.80762V8.63232H11.8076V5.63232zM27.3076 27.6323V24.6323H22.3076V21.6323H19.3076V24.6323 27.6323H22.3076 27.3076zM10.4341 19.479L12.4331 19.5552C12.4556 18.9546 12.5532 18.3853 12.7231 17.8628L10.8208 17.2446C10.5942 17.9428 10.4639 18.6948 10.4341 19.479zM29.0957 3.65674H27.0957C27.0957 4.30664 27.0547 4.93014 26.9727 5.50974L28.9532 5.78904C29.0478 5.11724 29.0957 4.39994 29.0957 3.65674zM8.01611 25.857L9.19481 27.4722C9.81931 27.0171 10.3642 26.4585 10.8144 25.812L9.17281 24.6694C8.85011 25.1324 8.46091 25.5328 8.01611 25.857zM9.9375 23.1353L11.8301 23.7837C12.0562 23.1226 12.2202 22.4009 12.3174 21.6382L10.333 21.3862C10.2529 22.0142 10.1201 22.6031 9.9375 23.1353zM28.4542 7.91508L26.5616 7.26758C26.3653 7.84328 26.1104 8.37358 25.8057 8.84468L27.4854 9.93058C27.878 9.32328 28.2042 8.64508 28.4542 7.91508zM14.6836 15.1992L13.5137 13.5771C12.8775 14.0361 12.3257 14.5781 11.8741 15.1884L13.4825 16.3779C13.8105 15.9336 14.2148 15.5371 14.6836 15.1992zM7.14843 28.5161L6.51663 26.6177C5.99463 26.7925 5.41363 26.9077 4.79053 26.9624L4.96433 28.9546C5.74363 28.8862 6.47853 28.7387 7.14843 28.5161zM25.9902 11.6479L24.6855 10.1323C24.2587 10.4995 23.7724 10.8125 23.2382 11.0625L24.0859 12.874C24.7851 12.5464 25.4258 12.1338 25.9902 11.6479zM17.9414 13.9389L17.6401 11.9614C16.8921 12.0757 16.1733 12.2622 15.5039 12.5161L16.2139 14.3862C16.7514 14.1821 17.3325 14.0317 17.9414 13.9389zM21.9756 13.5728L21.5615 11.6167C20.9941 11.7368 20.3867 11.8062 19.7578 11.8232L19.8105 13.8222C20.5615 13.8023 21.29 13.7183 21.9756 13.5728z" fill="#000"/></symbol><symbol viewBox="0 0 30 24" fill="none" id="svg-services-consult-1"><path d="M29.8939 8.85698C29.8939 4.33698 25.432 0.65918 19.9476 0.65918C16.3112 0.65918 13.1306 2.27838 11.3955 4.68478C11.1915 4.67448 10.9889 4.65918 10.7818 4.65918C5.29741 4.65918 0.83551 8.33688 0.83551 12.857C0.83551 14.8926 2.05031 16.7725 2.30331 17.1417L1.32141 23.1163L7.62661 20.629C8.17451 20.7403 9.80481 21.0548 10.7819 21.0548C14.4177 21.0548 17.5948 19.4337 19.3299 17.0276C19.5353 17.0383 19.739 17.0548 19.9477 17.0548C20.9125 17.0548 22.5297 16.7452 23.103 16.629L29.4077 19.1163L28.4263 13.1427C28.6878 12.7599 29.8939 10.8907 29.8939 8.85698ZM10.7817 19.0548C10.0864 19.0548 8.69581 18.8068 7.98041 18.6603L7.45011 18.549L3.86611 19.9621L4.41051 16.6437L3.96911 16.0343C3.95741 16.0187 2.83531 14.4308 2.83531 12.8571C2.83531 9.43958 6.39981 6.65928 10.7816 6.65928C15.1634 6.65928 18.7284 9.43958 18.7284 12.8571C18.7284 16.2746 15.1636 19.0548 10.7817 19.0548ZM26.8626 15.962L23.2786 14.5489L22.7444 14.6612C22.0194 14.8097 21.0468 14.9765 20.3615 15.0331C20.594 14.3388 20.7285 13.6113 20.7285 12.857C20.7285 9.18168 17.7782 6.06368 13.7269 5.02638C15.1832 3.59048 17.4232 2.65918 19.9475 2.65918C24.3293 2.65918 27.8938 5.43948 27.8938 8.85698C27.8938 10.4298 26.7708 12.0201 26.762 12.0323L26.3186 12.6412L26.8626 15.962Z" fill="#000"/></symbol><symbol viewBox="0 0 30 30" fill="none" id="svg-services-consult-2"><path d="M5 20C2.2386 20 0 22.2386 0 25 0 27.7614 2.2386 30 5 30 7.7614 30 10 27.7614 10 25 10 22.2386 7.7614 20 5 20zM5 28C3.3458 28 2 26.6542 2 25 2 23.3458 3.3458 22 5 22 6.6542 22 8 23.3458 8 25 8 26.6542 6.6542 28 5 28zM19.1716 12.2426L22 9.41422 24.8284 12.2426 26.2426 10.8284 23.4142 8.00002 26.2426 5.17162 24.8284 3.75732 22 6.58582 19.1716 3.75732 17.7574 5.17162 20.5858 8.00002 17.7574 10.8284 19.1716 12.2426zM8.09833 4.32562L11.1867 7.41402 12.6009 5.99992 8.35833 1.75722 6.94403.343018 5.52983 1.75722 1.28723 5.99992 2.70143 7.41412 6.05653 4.05902C7.21923 16.2475 17.512 25.8134 30 25.8134V23.8134C18.7072 23.8134 9.37533 15.281 8.09833 4.32562z" fill="#000"/></symbol><symbol viewBox="0 0 28 32" fill="none" id="svg-services-consult-3"><path d="M16.5 10.5C16.5 7.4673 14.0327 5 11 5C7.9673 5 5.5 7.4673 5.5 10.5C5.5 13.5327 7.9673 16 11 16C11.7366 16 12.4387 15.852 13.0813 15.5881L16.8721 21.625L18.5655 20.5605L14.7608 14.5023C15.8284 13.4984 16.5 12.0778 16.5 10.5ZM7.5 10.5C7.5 8.5703 9.0703 7 11 7C12.9297 7 14.5 8.5703 14.5 10.5C14.5 12.4297 12.9297 14 11 14C9.0703 14 7.5 12.4297 7.5 10.5Z" fill="#000"/><path d="M23.5 4V0H0.5V28H4.5V32H27.5V4H23.5ZM2.5 26V2H21.5V26H2.5ZM25.5 30H6.5V28H23.5V6H25.5V30Z" fill="#000"/></symbol><symbol viewBox="0 0 32 31" fill="none" id="svg-services-consult-4"><path d="M13.9232 19.9999C11.3553 19.9999 9.26599 17.911 9.26599 15.3427C9.26599 12.7748 11.3554 10.686 13.9232 10.686C16.491 10.686 18.5799 12.7749 18.5799 15.3427H20.5799C20.5799 11.6723 17.5936 8.68604 13.9232 8.68604C10.2523 8.68604 7.26599 11.6723 7.26599 15.3427C7.26599 19.0136 10.2523 21.9999 13.9232 21.9999V19.9999Z" fill="#000"/><path d="M31.9233 20V18H28.9237V17H22.9237V20H13.9233V22H22.9237V25H28.9237V24H31.9233V22H28.9237V20H31.9233zM26.9237 23H24.9237V19H26.9237V23zM14.9233 0H12.9233V6H14.9233V0zM14.9233 25H12.9233V31H14.9233V25zM.000167012 8.61621L5.19617 11.6162 6.19617 9.88421 1.00017 6.88421.000167012 8.61621zM27.847 8.6153L26.847 6.8833 21.651 9.8833 22.651 11.6153 27.847 8.6153zM-.000610352 22.3842L.99939 24.1162 6.19539 21.1162 5.19539 19.3842-.000610352 22.3842z" fill="#000"/></symbol><symbol viewBox="0 0 38 38" fill="none" id="svg-services-design-1"><path d="M19 7H17V9H19V7zM15 7H13V9H15V7zM11 7H9V9H11V7zM34.4451 34.3168L28.0444 13.0573 28.0616 13H29 31V11 5 3H29 25 23V5 7H21V9H23V11 13H25 25.9384L25.9556 13.0573 19.5549 34.3168 21.47 34.8934 26 19.8474V33H28V19.8474L32.53 34.8934 34.4451 34.3168zM25 5H29V11H25V5zM7 7H5V9H7V7z" fill="#000"/></symbol><symbol viewBox="0 0 32 31" fill="none" id="svg-services-design-2"><path d="M32 10H26.9495C26.4436 4.3942 21.7375 0 16 0C10.2625 0 5.5564 4.3942 5.0505 10H0V12H1.7172C2.2113 19.1049 7.8951 24.7883 15 25.2823V29H9V31H15H17H23V29H17V25.2823C24.1049 24.7883 29.7883 19.1049 30.2823 12H32V10ZM16 2C20.9626 2 25 6.0374 25 11C25 15.9626 20.9626 20 16 20C11.0374 20 7 15.9626 7 11C7 6.0374 11.0374 2 16 2ZM16 23.333C9.5367 23.333 4.2291 18.3336 3.7172 12H5.0505C5.5564 17.6058 10.2625 22 16 22C21.7375 22 26.4436 17.6058 26.9495 12H28.2823C27.7704 18.3336 22.4633 23.333 16 23.333Z" fill="#000"/></symbol><symbol viewBox="0 0 32 16" fill="none" id="svg-services-design-3"><path fill-rule="evenodd" clip-rule="evenodd" d="M30 5H28V2V0H26H6H4V2V5H2H0V7V12V14H2H4V16H6V14H26V16H28V14H30H32V12V7V5H30ZM6 2H26V5V7V8H6V7V5V2ZM2 12V7H4V8V10V12H2ZM6 12V10H26V12H6ZM30 12H28V10V8V7H30V12Z" fill="#000"/></symbol><symbol viewBox="0 0 32 19" fill="none" id="svg-services-design-4"><path d="M27 0H23L9 9H5C2.2432 9 0 11.2432 0 14C0 16.7568 2.2432 19 5 19H9L23 10H27C29.7568 10 32 7.7568 32 5C32 2.2432 29.7568 0 27 0ZM27 8H23L9 17H5C3.3457 17 2 15.6543 2 14C2 12.3457 3.3457 11 5 11H9L23 2H27C28.6543 2 30 3.3457 30 5C30 6.6543 28.6543 8 27 8Z" fill="#000"/></symbol><symbol viewBox="0 0 22 30" fill="none" id="svg-services-design-5"><path fill-rule="evenodd" clip-rule="evenodd" d="M20 11.8333V20H18V18V16H16H12V14H18V13.0833V12V2V1V0H4V1V2V12V13.0833V14H10V16H6H4V18V20H2V11.8333H0V20V22H2H10V25H4V26V27V30H6V27H10V30H12V27H16V30H18V27V26V25H12V22H20H22V20V11.8333H20ZM6 2H16V12H6V2ZM12 20H10H6V18H16V20H12Z" fill="#000"/></symbol><symbol viewBox="0 0 32 32" fill="none" id="svg-services-design-6"><path d="M15.7212 4.21387L13.5461 12H2.49756.497559V14 23 25H2.49756 2.99996V27H4.99996V25H15V27H17V25H17.5024 19.5024V23 14 12.0259L21.2753 5.79487 15.7212 4.21387zM17.1064 6.68747L18.8046 7.17087 17.4302 12H15.6223L17.1064 6.68747zM17.5024 23H17 15 4.99996 2.99996 2.49756V14H17.5025L17.5024 23zM28 29C28.5523 29 29 28.5523 29 28 29 27.4477 28.5523 27 28 27 27.4477 27 27 27.4477 27 28 27 28.5523 27.4477 29 28 29z" fill="#000"/><path d="M31.5 0H30H26H24.5H24V32H24.5H26H30H31.5H32V0H31.5ZM26 30V26H29V24H26V23H28V21H26V20H29V18H26V17H28V15H26V14H29V12H26V11H28V9H26V8H29V6H26V5H28V3H26V2H30V30H26Z" fill="#000"/></symbol><symbol viewBox="0 0 30 25" fill="none" id="svg-services-design-7"><path d="M15 3.74527L0 0.00537109V10.9947V21.0054V24.9942H14H14.002H15.9981L16 24.9946L30 24.9941V21.0053V10.9946V0.00537109L15 3.74527ZM2 2.56517L14 5.55707V22.4347L2 19.4428V10.9946V2.56517ZM2 21.504L7.9765 22.9941H2V21.504ZM28 22.9941H22.0235L28 21.504V22.9941ZM28 19.4428L16 22.4347V5.55717L28 2.56527V10.9947V19.4428Z" fill="#000"/><path d="M25.5 15H18.5V17H25.5V15zM11.5 15H4.5V17H11.5V15zM18.5 11H19V14H21V11H23V14H25V11H25.5V9H18.5V11zM7 12H9V14H11V12 10 7H9V10H7 5V12 14H7V12z" fill="#000"/></symbol><symbol viewBox="0 0 28 32" fill="none" id="svg-services-design-8"><path d="M14 0.240234L0 10.9634V32H28V10.9634L14 0.240234ZM26 30H2V11.9507L14 2.75983L26 11.9507V30Z" fill="#000"/><path d="M18 19.2518V28H20V19.2518C21.3708 18.7787 22.375 17.3827 22.375 15.7187 22.375 13.6682 20.8607 12 19 12 17.1393 12 15.625 13.6682 15.625 15.7188 15.625 17.3828 16.6292 18.7787 18 19.2518zM19 13.8168C19.8683 13.8168 20.575 14.6702 20.575 15.7188 20.575 16.7673 19.8683 17.6207 19 17.6207 18.1317 17.6207 17.425 16.7673 17.425 15.7188 17.425 14.6702 18.1317 13.8168 19 13.8168zM11 17H10V12H8V17H7V12H5V17 17.9375 19H8V28H10V19H13V17.9375 17 12H11V17z" fill="#000"/></symbol><symbol viewBox="0 0 15 22" fill="none" id="svg-slider-mouse"><path d="M7.80078 7.4061C7.24778 7.4061 6.80078 7.8541 6.80078 8.4061V9.8231C6.80078 10.3751 7.24778 10.8231 7.80078 10.8231C8.35378 10.8231 8.80078 10.3751 8.80078 9.8231V8.4061C8.80078 7.8541 8.35378 7.4061 7.80078 7.4061Z" fill="#fff"/><rect x="1.551" y="1.739" width="12.5" height="19.5" rx="6.25" stroke="#fff" stroke-width="1.5"/></symbol></svg>