<svg style="display: none;" aria-hidden="true" xmlns="http://www.w3.org/2000/svg" xmlns:xlink="http://www.w3.org/1999/xlink"><symbol viewBox="0 0 32 13" fill="none" id="svg-arrow-right"><path stroke="#fff" stroke-width="1.5" d="M30.808 6.651L.808 6.651M25.1509.975708L30.8077 6.63256 25.1509 12.2894"/></symbol><symbol viewBox="0 0 19 14" fill="none" id="svg-play-eye"><path fill-rule="evenodd" clip-rule="evenodd" d="M9.33333 0C5.34513 0 1.86302 2.81539 0 7C1.86302 11.1846 5.34513 14 9.33333 14C13.3215 14 16.8037 11.1846 18.6667 7C16.8037 2.8154 13.3215 0 9.33333 0ZM9.33395 10.5C11.2669 10.5 12.8339 8.933 12.8339 7C12.8339 5.067 11.2669 3.5 9.33395 3.5C7.40095 3.5 5.83395 5.067 5.83395 7C5.83395 8.933 7.40095 10.5 9.33395 10.5Z" fill="#000"/></symbol><symbol viewBox="0 0 11 17" fill="none" id="svg-play-triangle"><path d="M10.8077 8.63241L0.807739 16.9657L0.807739 0.299079L10.8077 8.63241Z" fill="#fff"/></symbol><symbol viewBox="0 0 57 44" fill="none" id="svg-quotes"><path d="M2.96064 22.9823H12.7106V25.0623C12.7106 27.0557 12.3206 28.399 11.5406 29.0923C10.7606 29.699 9.37398 30.0023 7.38065 30.0023H0.750645V43.1323H7.64064C14.054 43.1323 18.8206 41.789 21.9406 39.1023C25.0606 36.329 26.6206 31.4323 26.6206 24.4123V0.232323H2.96064V22.9823ZM33.1206 22.9823H42.8706V25.0623C42.8706 27.0557 42.4806 28.399 41.7006 29.0923C40.9206 29.699 39.534 30.0023 37.5406 30.0023H30.9106V43.1323H37.8006C44.214 43.1323 48.9806 41.789 52.1006 39.1023C55.2206 36.329 56.7806 31.4323 56.7806 24.4123V0.232323H33.1206V22.9823Z" fill="#fff" fill-opacity=".7"/></symbol><symbol viewBox="0 0 33 16" fill="none" id="svg-services-arch-1"><path d="M29.4106 13.6323V7.37794L9.27144 0.944336L3.41064 7.02154V13.6323H0.410645V15.6323H32.4106V13.6323H29.4106ZM25.4106 13.6323V9.63234H21.4106V13.6323H5.41064V7.82914L9.84764 3.22754L27.4106 8.83883V13.6323H25.4106Z" fill="#000"/></symbol><symbol viewBox="0 0 33 22" fill="none" id="svg-services-arch-2"><path d="M28.4106 19.6323V12.6323V11.6323V10.6323H24.4106V2.63232V0.632324H22.4106H10.4106H8.41064V2.63232V10.6323H4.41064V11.6323V12.6323V19.6323H0.410645V21.6323H4.41064H6.41064H8.41064H10.4106H22.4106H24.4106H26.4106H28.4106H32.4106V19.6323H28.4106ZM6.41064 19.6323V12.6323H8.41064V19.6323H6.41064ZM18.4096 19.6323V15.6419H14.4192V19.6323H10.4106V12.6323V10.6323V2.63232H22.4106V10.6323V12.6323V19.6323H18.4096ZM24.4106 19.6323V12.6323H26.4106V19.6323H24.4106Z" fill="#000"/></symbol><symbol viewBox="0 0 33 23" fill="none" id="svg-services-arch-3"><path d="M24.8076 20.2626V16.3323L28.7661 12.0976L25.7641 0.632324L20.5707 2.17092L18.849 12.9492L22.8076 16.3045V20.2626H10.8076V16.3323L14.7661 12.0976L11.7641 0.632324L6.57082 2.17082L4.84912 12.9491L8.80762 16.3045V20.2626H0.807617V22.2626H32.8076V20.2626H24.8076ZM21.0014 12.1522L22.3461 3.73032L24.352 3.13612L26.5512 11.537L24.8076 13.4029V11.2626H22.8076V13.6827L21.0014 12.1522ZM7.00142 12.1522L8.34612 3.73032L10.352 3.13612L12.5512 11.537L10.8076 13.4029V11.2626H8.80762V13.6827L7.00142 12.1522Z" fill="#000"/></symbol><symbol viewBox="0 0 33 33" fill="none" id="svg-services-arch-4"><path d="M0.807617 0.632324V32.6323H32.8076V0.632324H0.807617ZM30.8076 30.6323H2.80762V2.63232H30.8076V30.6323Z" fill="#000"/><path d="M11.8076 5.63232H5.80762V8.63232H11.8076V5.63232zM27.3076 27.6323V24.6323H22.3076V21.6323H19.3076V24.6323 27.6323H22.3076 27.3076zM10.4341 19.479L12.4331 19.5552C12.4556 18.9546 12.5532 18.3853 12.7231 17.8628L10.8208 17.2446C10.5942 17.9428 10.4639 18.6948 10.4341 19.479zM29.0957 3.65674H27.0957C27.0957 4.30664 27.0547 4.93014 26.9727 5.50974L28.9532 5.78904C29.0478 5.11724 29.0957 4.39994 29.0957 3.65674zM8.01611 25.857L9.19481 27.4722C9.81931 27.0171 10.3642 26.4585 10.8144 25.812L9.17281 24.6694C8.85011 25.1324 8.46091 25.5328 8.01611 25.857zM9.9375 23.1353L11.8301 23.7837C12.0562 23.1226 12.2202 22.4009 12.3174 21.6382L10.333 21.3862C10.2529 22.0142 10.1201 22.6031 9.9375 23.1353zM28.4542 7.91508L26.5616 7.26758C26.3653 7.84328 26.1104 8.37358 25.8057 8.84468L27.4854 9.93058C27.878 9.32328 28.2042 8.64508 28.4542 7.91508zM14.6836 15.1992L13.5137 13.5771C12.8775 14.0361 12.3257 14.5781 11.8741 15.1884L13.4825 16.3779C13.8105 15.9336 14.2148 15.5371 14.6836 15.1992zM7.14843 28.5161L6.51663 26.6177C5.99463 26.7925 5.41363 26.9077 4.79053 26.9624L4.96433 28.9546C5.74363 28.8862 6.47853 28.7387 7.14843 28.5161zM25.9902 11.6479L24.6855 10.1323C24.2587 10.4995 23.7724 10.8125 23.2382 11.0625L24.0859 12.874C24.7851 12.5464 25.4258 12.1338 25.9902 11.6479zM17.9414 13.9389L17.6401 11.9614C16.8921 12.0757 16.1733 12.2622 15.5039 12.5161L16.2139 14.3862C16.7514 14.1821 17.3325 14.0317 17.9414 13.9389zM21.9756 13.5728L21.5615 11.6167C20.9941 11.7368 20.3867 11.8062 19.7578 11.8232L19.8105 13.8222C20.5615 13.8023 21.29 13.7183 21.9756 13.5728z" fill="#000"/></symbol><symbol viewBox="0 0 30 24" fill="none" id="svg-services-consult-1"><path d="M29.8939 8.85698C29.8939 4.33698 25.432 0.65918 19.9476 0.65918C16.3112 0.65918 13.1306 2.27838 11.3955 4.68478C11.1915 4.67448 10.9889 4.65918 10.7818 4.65918C5.29741 4.65918 0.83551 8.33688 0.83551 12.857C0.83551 14.8926 2.05031 16.7725 2.30331 17.1417L1.32141 23.1163L7.62661 20.629C8.17451 20.7403 9.80481 21.0548 10.7819 21.0548C14.4177 21.0548 17.5948 19.4337 19.3299 17.0276C19.5353 17.0383 19.739 17.0548 19.9477 17.0548C20.9125 17.0548 22.5297 16.7452 23.103 16.629L29.4077 19.1163L28.4263 13.1427C28.6878 12.7599 29.8939 10.8907 29.8939 8.85698ZM10.7817 19.0548C10.0864 19.0548 8.69581 18.8068 7.98041 18.6603L7.45011 18.549L3.86611 19.9621L4.41051 16.6437L3.96911 16.0343C3.95741 16.0187 2.83531 14.4308 2.83531 12.8571C2.83531 9.43958 6.39981 6.65928 10.7816 6.65928C15.1634 6.65928 18.7284 9.43958 18.7284 12.8571C18.7284 16.2746 15.1636 19.0548 10.7817 19.0548ZM26.8626 15.962L23.2786 14.5489L22.7444 14.6612C22.0194 14.8097 21.0468 14.9765 20.3615 15.0331C20.594 14.3388 20.7285 13.6113 20.7285 12.857C20.7285 9.18168 17.7782 6.06368 13.7269 5.02638C15.1832 3.59048 17.4232 2.65918 19.9475 2.65918C24.3293 2.65918 27.8938 5.43948 27.8938 8.85698C27.8938 10.4298 26.7708 12.0201 26.762 12.0323L26.3186 12.6412L26.8626 15.962Z" fill="#000"/></symbol><symbol viewBox="0 0 30 30" fill="none" id="svg-services-consult-2"><path d="M5 20C2.2386 20 0 22.2386 0 25 0 27.7614 2.2386 30 5 30 7.7614 30 10 27.7614 10 25 10 22.2386 7.7614 20 5 20zM5 28C3.3458 28 2 26.6542 2 25 2 23.3458 3.3458 22 5 22 6.6542 22 8 23.3458 8 25 8 26.6542 6.6542 28 5 28zM19.1716 12.2426L22 9.41422 24.8284 12.2426 26.2426 10.8284 23.4142 8.00002 26.2426 5.17162 24.8284 3.75732 22 6.58582 19.1716 3.75732 17.7574 5.17162 20.5858 8.00002 17.7574 10.8284 19.1716 12.2426zM8.09833 4.32562L11.1867 7.41402 12.6009 5.99992 8.35833 1.75722 6.94403.343018 5.52983 1.75722 1.28723 5.99992 2.70143 7.41412 6.05653 4.05902C7.21923 16.2475 17.512 25.8134 30 25.8134V23.8134C18.7072 23.8134 9.37533 15.281 8.09833 4.32562z" fill="#000"/></symbol><symbol viewBox="0 0 28 32" fill="none" id="svg-services-consult-3"><path d="M16.5 10.5C16.5 7.4673 14.0327 5 11 5C7.9673 5 5.5 7.4673 5.5 10.5C5.5 13.5327 7.9673 16 11 16C11.7366 16 12.4387 15.852 13.0813 15.5881L16.8721 21.625L18.5655 20.5605L14.7608 14.5023C15.8284 13.4984 16.5 12.0778 16.5 10.5ZM7.5 10.5C7.5 8.5703 9.0703 7 11 7C12.9297 7 14.5 8.5703 14.5 10.5C14.5 12.4297 12.9297 14 11 14C9.0703 14 7.5 12.4297 7.5 10.5Z" fill="#000"/><path d="M23.5 4V0H0.5V28H4.5V32H27.5V4H23.5ZM2.5 26V2H21.5V26H2.5ZM25.5 30H6.5V28H23.5V6H25.5V30Z" fill="#000"/></symbol><symbol viewBox="0 0 32 31" fill="none" id="svg-services-consult-4"><path d="M13.9232 19.9999C11.3553 19.9999 9.26599 17.911 9.26599 15.3427C9.26599 12.7748 11.3554 10.686 13.9232 10.686C16.491 10.686 18.5799 12.7749 18.5799 15.3427H20.5799C20.5799 11.6723 17.5936 8.68604 13.9232 8.68604C10.2523 8.68604 7.26599 11.6723 7.26599 15.3427C7.26599 19.0136 10.2523 21.9999 13.9232 21.9999V19.9999Z" fill="#000"/><path d="M31.9233 20V18H28.9237V17H22.9237V20H13.9233V22H22.9237V25H28.9237V24H31.9233V22H28.9237V20H31.9233zM26.9237 23H24.9237V19H26.9237V23zM14.9233 0H12.9233V6H14.9233V0zM14.9233 25H12.9233V31H14.9233V25zM.000167012 8.61621L5.19617 11.6162 6.19617 9.88421 1.00017 6.88421.000167012 8.61621zM27.847 8.6153L26.847 6.8833 21.651 9.8833 22.651 11.6153 27.847 8.6153zM-.000610352 22.3842L.99939 24.1162 6.19539 21.1162 5.19539 19.3842-.000610352 22.3842z" fill="#000"/></symbol><symbol viewBox="0 0 38 38" fill="none" id="svg-services-design-1"><path d="M19 7H17V9H19V7zM15 7H13V9H15V7zM11 7H9V9H11V7zM34.4451 34.3168L28.0444 13.0573 28.0616 13H29 31V11 5 3H29 25 23V5 7H21V9H23V11 13H25 25.9384L25.9556 13.0573 19.5549 34.3168 21.47 34.8934 26 19.8474V33H28V19.8474L32.53 34.8934 34.4451 34.3168zM25 5H29V11H25V5zM7 7H5V9H7V7z" fill="#000"/></symbol><symbol viewBox="0 0 32 31" fill="none" id="svg-services-design-2"><path d="M32 10H26.9495C26.4436 4.3942 21.7375 0 16 0C10.2625 0 5.5564 4.3942 5.0505 10H0V12H1.7172C2.2113 19.1049 7.8951 24.7883 15 25.2823V29H9V31H15H17H23V29H17V25.2823C24.1049 24.7883 29.7883 19.1049 30.2823 12H32V10ZM16 2C20.9626 2 25 6.0374 25 11C25 15.9626 20.9626 20 16 20C11.0374 20 7 15.9626 7 11C7 6.0374 11.0374 2 16 2ZM16 23.333C9.5367 23.333 4.2291 18.3336 3.7172 12H5.0505C5.5564 17.6058 10.2625 22 16 22C21.7375 22 26.4436 17.6058 26.9495 12H28.2823C27.7704 18.3336 22.4633 23.333 16 23.333Z" fill="#000"/></symbol><symbol viewBox="0 0 32 16" fill="none" id="svg-services-design-3"><path fill-rule="evenodd" clip-rule="evenodd" d="M30 5H28V2V0H26H6H4V2V5H2H0V7V12V14H2H4V16H6V14H26V16H28V14H30H32V12V7V5H30ZM6 2H26V5V7V8H6V7V5V2ZM2 12V7H4V8V10V12H2ZM6 12V10H26V12H6ZM30 12H28V10V8V7H30V12Z" fill="#000"/></symbol><symbol viewBox="0 0 32 19" fill="none" id="svg-services-design-4"><path d="M27 0H23L9 9H5C2.2432 9 0 11.2432 0 14C0 16.7568 2.2432 19 5 19H9L23 10H27C29.7568 10 32 7.7568 32 5C32 2.2432 29.7568 0 27 0ZM27 8H23L9 17H5C3.3457 17 2 15.6543 2 14C2 12.3457 3.3457 11 5 11H9L23 2H27C28.6543 2 30 3.3457 30 5C30 6.6543 28.6543 8 27 8Z" fill="#000"/></symbol><symbol viewBox="0 0 22 30" fill="none" id="svg-services-design-5"><path fill-rule="evenodd" clip-rule="evenodd" d="M20 11.8333V20H18V18V16H16H12V14H18V13.0833V12V2V1V0H4V1V2V12V13.0833V14H10V16H6H4V18V20H2V11.8333H0V20V22H2H10V25H4V26V27V30H6V27H10V30H12V27H16V30H18V27V26V25H12V22H20H22V20V11.8333H20ZM6 2H16V12H6V2ZM12 20H10H6V18H16V20H12Z" fill="#000"/></symbol><symbol viewBox="0 0 32 32" fill="none" id="svg-services-design-6"><path d="M15.7212 4.21387L13.5461 12H2.49756.497559V14 23 25H2.49756 2.99996V27H4.99996V25H15V27H17V25H17.5024 19.5024V23 14 12.0259L21.2753 5.79487 15.7212 4.21387zM17.1064 6.68747L18.8046 7.17087 17.4302 12H15.6223L17.1064 6.68747zM17.5024 23H17 15 4.99996 2.99996 2.49756V14H17.5025L17.5024 23zM28 29C28.5523 29 29 28.5523 29 28 29 27.4477 28.5523 27 28 27 27.4477 27 27 27.4477 27 28 27 28.5523 27.4477 29 28 29z" fill="#000"/><path d="M31.5 0H30H26H24.5H24V32H24.5H26H30H31.5H32V0H31.5ZM26 30V26H29V24H26V23H28V21H26V20H29V18H26V17H28V15H26V14H29V12H26V11H28V9H26V8H29V6H26V5H28V3H26V2H30V30H26Z" fill="#000"/></symbol><symbol viewBox="0 0 30 25" fill="none" id="svg-services-design-7"><path d="M15 3.74527L0 0.00537109V10.9947V21.0054V24.9942H14H14.002H15.9981L16 24.9946L30 24.9941V21.0053V10.9946V0.00537109L15 3.74527ZM2 2.56517L14 5.55707V22.4347L2 19.4428V10.9946V2.56517ZM2 21.504L7.9765 22.9941H2V21.504ZM28 22.9941H22.0235L28 21.504V22.9941ZM28 19.4428L16 22.4347V5.55717L28 2.56527V10.9947V19.4428Z" fill="#000"/><path d="M25.5 15H18.5V17H25.5V15zM11.5 15H4.5V17H11.5V15zM18.5 11H19V14H21V11H23V14H25V11H25.5V9H18.5V11zM7 12H9V14H11V12 10 7H9V10H7 5V12 14H7V12z" fill="#000"/></symbol><symbol viewBox="0 0 28 32" fill="none" id="svg-services-design-8"><path d="M14 0.240234L0 10.9634V32H28V10.9634L14 0.240234ZM26 30H2V11.9507L14 2.75983L26 11.9507V30Z" fill="#000"/><path d="M18 19.2518V28H20V19.2518C21.3708 18.7787 22.375 17.3827 22.375 15.7187 22.375 13.6682 20.8607 12 19 12 17.1393 12 15.625 13.6682 15.625 15.7188 15.625 17.3828 16.6292 18.7787 18 19.2518zM19 13.8168C19.8683 13.8168 20.575 14.6702 20.575 15.7188 20.575 16.7673 19.8683 17.6207 19 17.6207 18.1317 17.6207 17.425 16.7673 17.425 15.7188 17.425 14.6702 18.1317 13.8168 19 13.8168zM11 17H10V12H8V17H7V12H5V17 17.9375 19H8V28H10V19H13V17.9375 17 12H11V17z" fill="#000"/></symbol><symbol viewBox="0 0 15 22" fill="none" id="svg-slider-mouse"><path d="M7.80078 7.4061C7.24778 7.4061 6.80078 7.8541 6.80078 8.4061V9.8231C6.80078 10.3751 7.24778 10.8231 7.80078 10.8231C8.35378 10.8231 8.80078 10.3751 8.80078 9.8231V8.4061C8.80078 7.8541 8.35378 7.4061 7.80078 7.4061Z" fill="#fff"/><rect x="1.551" y="1.739" width="12.5" height="19.5" rx="6.25" stroke="#fff" stroke-width="1.5"/></symbol></svg>