<svg width="188" height="76" viewBox="0 0 188 76" fill="none" xmlns="http://www.w3.org/2000/svg">
<rect x="37.8359" y="37.6841" width="37.5" height="37.5" fill="black"/>
<rect x="0.335938" y="0.184082" width="37.5" height="37.5" fill="black"/>
<rect x="37.8359" y="0.184082" width="37.5" height="37.5" fill="black"/>
<rect x="75.3359" y="0.184082" width="37.5" height="37.5" fill="#FFEC55"/>
<rect x="150.336" y="0.184082" width="37.5" height="37.5" fill="#FFEC55"/>
<rect x="112.836" y="0.184082" width="37.5" height="37.5" fill="#FFEC55"/>
<rect x="75.3359" y="37.6841" width="37.5" height="37.5" fill="black"/>
<path d="M17.0843 21.9116H20.4514V20.187H17.0843V21.9116ZM15.4692 27.9341H17.3033L18.0972 10.8795L17.9329 11.0437H19.5481L19.3838 10.8795L20.1777 27.9341H22.0392L21.0811 9.31908H16.4273L15.4692 27.9341Z" fill="white"/>
<path d="M92.0843 59.4116H95.4514V57.687H92.0843V59.4116ZM90.4692 65.4341H92.3033L93.0972 48.3795L92.9329 48.5437H94.5481L94.3838 48.3795L95.1777 65.4341H97.0392L96.0811 46.8191H91.4273L90.4692 65.4341Z" fill="white"/>
<path d="M54.5843 21.9116H57.9514V20.187H54.5843V21.9116ZM52.9692 27.9341H54.8033L55.5972 10.8795L55.4329 11.0437H57.0481L56.8838 10.8795L57.6777 27.9341H59.5392L58.5811 9.31908H53.9273L52.9692 27.9341Z" fill="white"/>
<path d="M53.5167 65.4341H57.1849C58.1157 65.4341 58.7909 65.2151 59.2107 64.7771C59.6304 64.3208 59.8403 63.5817 59.8403 62.5597V58.2618C59.8403 57.6231 59.7582 57.1212 59.5939 56.7562C59.4479 56.373 59.2198 56.1175 58.9096 55.9897C59.1651 55.8255 59.3658 55.5608 59.5118 55.1958C59.6578 54.8126 59.7308 54.329 59.7308 53.745V49.6935C59.7308 48.6897 59.5209 47.9597 59.1012 47.5035C58.6814 47.0472 58.0062 46.8191 57.0754 46.8191H53.5167V65.4341ZM56.7196 48.5437C57.1393 48.5437 57.4313 48.635 57.5956 48.8175C57.7781 48.9817 57.8693 49.3102 57.8693 49.803V53.9913C57.8693 54.4476 57.7872 54.767 57.6229 54.9495C57.4769 55.1137 57.1758 55.1958 56.7196 55.1958H55.4056V48.5437H56.7196ZM56.7743 56.8383C57.2306 56.8383 57.5408 56.9296 57.7051 57.1121C57.8876 57.2763 57.9788 57.6048 57.9788 58.0976V62.4502C57.9788 62.9247 57.8967 63.2532 57.7324 63.4357C57.5682 63.6182 57.2671 63.7095 56.8291 63.7095H55.4056V56.8383H56.7743Z" fill="white"/>
<path d="M92.0843 21.9116H95.4514V20.187H92.0843V21.9116ZM90.4692 27.9341H92.3033L93.0972 10.8795L92.9329 11.0437H94.5481L94.3838 10.8795L95.1777 27.9341H97.0392L96.0811 9.31908H91.4273L90.4692 27.9341ZM99.4366 27.9341H101.326V20.6797H102.722L103.954 27.9341H105.842L104.501 20.3512C104.884 20.2052 105.167 19.9406 105.35 19.5573C105.532 19.1741 105.623 18.6905 105.623 18.1065V11.9471C105.623 11.0346 105.404 10.3685 104.966 9.94871C104.528 9.52896 103.899 9.31908 103.078 9.31908H99.4366V27.9341ZM102.831 11.0711C103.16 11.0711 103.397 11.1532 103.543 11.3175C103.689 11.4635 103.762 11.7372 103.762 12.1387V17.8327C103.762 18.2342 103.689 18.5171 103.543 18.6813C103.415 18.8456 103.196 18.9277 102.886 18.9277H101.326V11.0711H102.831ZM110.555 28.0162H112.006C112.827 28.0162 113.43 27.7972 113.813 27.3592C114.196 26.9212 114.388 26.2551 114.388 25.3608V21.72H112.581V25.2513C112.581 25.6163 112.508 25.881 112.362 26.0452C112.234 26.1912 112.024 26.2642 111.732 26.2642H110.911C110.619 26.2642 110.4 26.1912 110.254 26.0452C110.126 25.881 110.062 25.6163 110.062 25.2513V12.0018C110.062 11.6368 110.126 11.3813 110.254 11.2353C110.382 11.0711 110.592 10.989 110.884 10.989H111.76C112.052 10.989 112.262 11.0711 112.389 11.2353C112.517 11.3813 112.581 11.6368 112.581 12.0018V15.5606H114.388V11.8923C114.388 10.9798 114.196 10.3137 113.813 9.89396C113.43 9.45596 112.827 9.23696 112.006 9.23696H110.555C109.734 9.23696 109.132 9.45596 108.748 9.89396C108.365 10.3137 108.174 10.9798 108.174 11.8923V25.3608C108.174 26.2551 108.365 26.9212 108.748 27.3592C109.15 27.7972 109.752 28.0162 110.555 28.0162ZM116.972 27.9341H118.86V19.4205H121.434V27.9341H123.295V9.31908H121.434V17.6411H118.86V9.31908H116.972V27.9341ZM127.588 27.9341H129.449V9.31908H127.588V27.9341ZM125.644 27.9341H131.393V26.1821H125.644V27.9341ZM125.644 11.0711H131.393V9.31908H125.644V11.0711ZM135.456 27.9341H137.317V11.0711H139.754V9.31908H132.992V11.0711H135.456V27.9341ZM141.991 27.9341H147.329V26.1821H143.88V19.4752H146.809V17.7506H143.88V11.0711H147.329V9.31908H141.991V27.9341ZM151.746 28.0162H153.197C154.018 28.0162 154.62 27.7972 155.004 27.3592C155.387 26.9212 155.578 26.2551 155.578 25.3608V21.72H153.772V25.2513C153.772 25.6163 153.699 25.881 153.553 26.0452C153.425 26.1912 153.215 26.2642 152.923 26.2642H152.102C151.81 26.2642 151.591 26.1912 151.445 26.0452C151.317 25.881 151.253 25.6163 151.253 25.2513V12.0018C151.253 11.6368 151.317 11.3813 151.445 11.2353C151.573 11.0711 151.782 10.989 152.074 10.989H152.95C153.242 10.989 153.452 11.0711 153.58 11.2353C153.708 11.3813 153.772 11.6368 153.772 12.0018V15.5606H155.578V11.8923C155.578 10.9798 155.387 10.3137 155.004 9.89396C154.62 9.45596 154.018 9.23696 153.197 9.23696H151.746C150.925 9.23696 150.322 9.45596 149.939 9.89396C149.556 10.3137 149.364 10.9798 149.364 11.8923V25.3608C149.364 26.2551 149.556 26.9212 149.939 27.3592C150.341 27.7972 150.943 28.0162 151.746 28.0162ZM159.887 27.9341H161.749V11.0711H164.185V9.31908H157.423V11.0711H159.887V27.9341ZM166.148 21.7473V25.3882C166.148 26.2642 166.34 26.9212 166.723 27.3592C167.106 27.7972 167.699 28.0162 168.502 28.0162H169.981C170.51 28.0162 170.948 27.925 171.295 27.7425C171.66 27.5417 171.924 27.2497 172.089 26.8665C172.253 26.465 172.335 25.9631 172.335 25.3608V20.2691C172.335 19.3201 172.143 18.6631 171.76 18.2981C171.377 17.9148 170.765 17.7232 169.926 17.7232H168.968C168.585 17.7232 168.32 17.6411 168.174 17.4768C168.028 17.2943 167.955 16.9841 167.955 16.5461V11.9745C167.955 11.6095 168.019 11.354 168.147 11.208C168.274 11.0437 168.475 10.9616 168.749 10.9616H169.597C169.871 10.9616 170.063 11.0437 170.172 11.208C170.3 11.354 170.364 11.6095 170.364 11.9745V15.5332H172.198V11.865C172.198 10.9707 172.006 10.3137 171.623 9.89396C171.24 9.45596 170.647 9.23696 169.844 9.23696H168.448C167.9 9.23696 167.453 9.33733 167.106 9.53808C166.778 9.72058 166.522 10.0035 166.34 10.3867C166.176 10.77 166.093 11.2627 166.093 11.865V16.8472C166.093 17.7597 166.285 18.4258 166.668 18.8456C167.052 19.2653 167.672 19.4752 168.53 19.4752H169.488C169.871 19.4752 170.127 19.5573 170.254 19.7216C170.4 19.8858 170.473 20.1778 170.473 20.5976V25.2787C170.473 25.6437 170.41 25.9083 170.282 26.0726C170.154 26.2186 169.953 26.2916 169.68 26.2916H168.804C168.53 26.2916 168.32 26.2186 168.174 26.0726C168.046 25.9083 167.982 25.6437 167.982 25.2787V21.7473H166.148Z" fill="black"/>
</svg>
