<svg width="57" height="44" viewBox="0 0 57 44" fill="none" xmlns="http://www.w3.org/2000/svg">
<path d="M2.96064 22.9823H12.7106V25.0623C12.7106 27.0557 12.3206 28.399 11.5406 29.0923C10.7606 29.699 9.37398 30.0023 7.38065 30.0023H0.750645V43.1323H7.64064C14.054 43.1323 18.8206 41.789 21.9406 39.1023C25.0606 36.329 26.6206 31.4323 26.6206 24.4123V0.232323H2.96064V22.9823ZM33.1206 22.9823H42.8706V25.0623C42.8706 27.0557 42.4806 28.399 41.7006 29.0923C40.9206 29.699 39.534 30.0023 37.5406 30.0023H30.9106V43.1323H37.8006C44.214 43.1323 48.9806 41.789 52.1006 39.1023C55.2206 36.329 56.7806 31.4323 56.7806 24.4123V0.232323H33.1206V22.9823Z" fill="white" fill-opacity="0.7"/>
</svg>
