<svg width="32" height="32" viewBox="0 0 32 32" fill="none" xmlns="http://www.w3.org/2000/svg">
<path d="M15.7212 4.21387L13.5461 12H2.49756H0.497559V14V23V25H2.49756H2.99996V27H4.99996V25H15V27H17V25H17.5024H19.5024V23V14V12.0259L21.2753 5.79487L15.7212 4.21387ZM17.1064 6.68747L18.8046 7.17087L17.4302 12H15.6223L17.1064 6.68747ZM17.5024 23H17H15H4.99996H2.99996H2.49756V14H17.5025L17.5024 23Z" fill="black"/>
<path d="M28 29C28.5523 29 29 28.5523 29 28C29 27.4477 28.5523 27 28 27C27.4477 27 27 27.4477 27 28C27 28.5523 27.4477 29 28 29Z" fill="black"/>
<path d="M31.5 0H30H26H24.5H24V32H24.5H26H30H31.5H32V0H31.5ZM26 30V26H29V24H26V23H28V21H26V20H29V18H26V17H28V15H26V14H29V12H26V11H28V9H26V8H29V6H26V5H28V3H26V2H30V30H26Z" fill="black"/>
</svg>
