<svg width="30" height="24" viewBox="0 0 30 24" fill="none" xmlns="http://www.w3.org/2000/svg">
<path d="M29.8939 8.85698C29.8939 4.33698 25.432 0.65918 19.9476 0.65918C16.3112 0.65918 13.1306 2.27838 11.3955 4.68478C11.1915 4.67448 10.9889 4.65918 10.7818 4.65918C5.29741 4.65918 0.83551 8.33688 0.83551 12.857C0.83551 14.8926 2.05031 16.7725 2.30331 17.1417L1.32141 23.1163L7.62661 20.629C8.17451 20.7403 9.80481 21.0548 10.7819 21.0548C14.4177 21.0548 17.5948 19.4337 19.3299 17.0276C19.5353 17.0383 19.739 17.0548 19.9477 17.0548C20.9125 17.0548 22.5297 16.7452 23.103 16.629L29.4077 19.1163L28.4263 13.1427C28.6878 12.7599 29.8939 10.8907 29.8939 8.85698ZM10.7817 19.0548C10.0864 19.0548 8.69581 18.8068 7.98041 18.6603L7.45011 18.549L3.86611 19.9621L4.41051 16.6437L3.96911 16.0343C3.95741 16.0187 2.83531 14.4308 2.83531 12.8571C2.83531 9.43958 6.39981 6.65928 10.7816 6.65928C15.1634 6.65928 18.7284 9.43958 18.7284 12.8571C18.7284 16.2746 15.1636 19.0548 10.7817 19.0548ZM26.8626 15.962L23.2786 14.5489L22.7444 14.6612C22.0194 14.8097 21.0468 14.9765 20.3615 15.0331C20.594 14.3388 20.7285 13.6113 20.7285 12.857C20.7285 9.18168 17.7782 6.06368 13.7269 5.02638C15.1832 3.59048 17.4232 2.65918 19.9475 2.65918C24.3293 2.65918 27.8938 5.43948 27.8938 8.85698C27.8938 10.4298 26.7708 12.0201 26.762 12.0323L26.3186 12.6412L26.8626 15.962Z" fill="black"/>
</svg>
