<svg width="28" height="32" viewBox="0 0 28 32" fill="none" xmlns="http://www.w3.org/2000/svg">
<path d="M14 0.240234L0 10.9634V32H28V10.9634L14 0.240234ZM26 30H2V11.9507L14 2.75983L26 11.9507V30Z" fill="black"/>
<path d="M18 19.2518V28H20V19.2518C21.3708 18.7787 22.375 17.3827 22.375 15.7187C22.375 13.6682 20.8607 12 19 12C17.1393 12 15.625 13.6682 15.625 15.7188C15.625 17.3828 16.6292 18.7787 18 19.2518ZM19 13.8168C19.8683 13.8168 20.575 14.6702 20.575 15.7188C20.575 16.7673 19.8683 17.6207 19 17.6207C18.1317 17.6207 17.425 16.7673 17.425 15.7188C17.425 14.6702 18.1317 13.8168 19 13.8168Z" fill="black"/>
<path d="M11 17H10V12H8V17H7V12H5V17V17.9375V19H8V28H10V19H13V17.9375V17V12H11V17Z" fill="black"/>
</svg>
