<?xml version="1.0" encoding="UTF-8"?>
<!-- Generator: Adobe Illustrator 17.1.0, SVG Export Plug-In . SVG Version: 6.00 Build 0)  -->
<!DOCTYPE svg PUBLIC "-//W3C//DTD SVG 1.1//EN" "http://www.w3.org/Graphics/SVG/1.1/DTD/svg11.dtd">
<svg version="1.1" id="Layer_1" xmlns="http://www.w3.org/2000/svg" xmlns:xlink="http://www.w3.org/1999/xlink" x="0px" y="0px" viewBox="0 0 38 38" enable-background="new 0 0 38 38" xml:space="preserve">
<path d="M35,14h-5.0505C29.4436,8.3942,24.7375,4,19,4S8.5564,8.3942,8.0505,14H3v2h1.7172  C5.2113,23.1049,10.8951,28.7883,18,29.2823V33h-6v2h6h2h6v-2h-6v-3.7177C27.1049,28.7883,32.7883,23.1049,33.2823,16H35V14z M19,6  c4.9626,0,9,4.0374,9,9c0,4.9626-4.0374,9-9,9s-9-4.0374-9-9C10,10.0374,14.0374,6,19,6z M19,27.333  c-6.4633,0-11.7709-4.9994-12.2828-11.333h1.3333C8.5564,21.6058,13.2625,26,19,26s10.4436-4.3942,10.9495-10h1.3328  C30.7704,22.3336,25.4633,27.333,19,27.333z"/>
</svg>