<svg width="32" height="31" viewBox="0 0 32 31" fill="none" xmlns="http://www.w3.org/2000/svg">
<path d="M32 10H26.9495C26.4436 4.3942 21.7375 0 16 0C10.2625 0 5.5564 4.3942 5.0505 10H0V12H1.7172C2.2113 19.1049 7.8951 24.7883 15 25.2823V29H9V31H15H17H23V29H17V25.2823C24.1049 24.7883 29.7883 19.1049 30.2823 12H32V10ZM16 2C20.9626 2 25 6.0374 25 11C25 15.9626 20.9626 20 16 20C11.0374 20 7 15.9626 7 11C7 6.0374 11.0374 2 16 2ZM16 23.333C9.5367 23.333 4.2291 18.3336 3.7172 12H5.0505C5.5564 17.6058 10.2625 22 16 22C21.7375 22 26.4436 17.6058 26.9495 12H28.2823C27.7704 18.3336 22.4633 23.333 16 23.333Z" fill="black"/>
</svg>
