<svg width="33" height="33" viewBox="0 0 33 33" fill="none" xmlns="http://www.w3.org/2000/svg">
<path d="M0.807617 0.632324V32.6323H32.8076V0.632324H0.807617ZM30.8076 30.6323H2.80762V2.63232H30.8076V30.6323Z" fill="black"/>
<path d="M11.8076 5.63232H5.80762V8.63232H11.8076V5.63232Z" fill="black"/>
<path d="M27.3076 27.6323V24.6323H22.3076V21.6323H19.3076V24.6323V27.6323H22.3076H27.3076Z" fill="black"/>
<path d="M10.4341 19.479L12.4331 19.5552C12.4556 18.9546 12.5532 18.3853 12.7231 17.8628L10.8208 17.2446C10.5942 17.9428 10.4639 18.6948 10.4341 19.479Z" fill="black"/>
<path d="M29.0957 3.65674H27.0957C27.0957 4.30664 27.0547 4.93014 26.9727 5.50974L28.9532 5.78904C29.0478 5.11724 29.0957 4.39994 29.0957 3.65674Z" fill="black"/>
<path d="M8.01611 25.857L9.19481 27.4722C9.81931 27.0171 10.3642 26.4585 10.8144 25.812L9.17281 24.6694C8.85011 25.1324 8.46091 25.5328 8.01611 25.857Z" fill="black"/>
<path d="M9.9375 23.1353L11.8301 23.7837C12.0562 23.1226 12.2202 22.4009 12.3174 21.6382L10.333 21.3862C10.2529 22.0142 10.1201 22.6031 9.9375 23.1353Z" fill="black"/>
<path d="M28.4542 7.91508L26.5616 7.26758C26.3653 7.84328 26.1104 8.37358 25.8057 8.84468L27.4854 9.93058C27.878 9.32328 28.2042 8.64508 28.4542 7.91508Z" fill="black"/>
<path d="M14.6836 15.1992L13.5137 13.5771C12.8775 14.0361 12.3257 14.5781 11.8741 15.1884L13.4825 16.3779C13.8105 15.9336 14.2148 15.5371 14.6836 15.1992Z" fill="black"/>
<path d="M7.14843 28.5161L6.51663 26.6177C5.99463 26.7925 5.41363 26.9077 4.79053 26.9624L4.96433 28.9546C5.74363 28.8862 6.47853 28.7387 7.14843 28.5161Z" fill="black"/>
<path d="M25.9902 11.6479L24.6855 10.1323C24.2587 10.4995 23.7724 10.8125 23.2382 11.0625L24.0859 12.874C24.7851 12.5464 25.4258 12.1338 25.9902 11.6479Z" fill="black"/>
<path d="M17.9414 13.9389L17.6401 11.9614C16.8921 12.0757 16.1733 12.2622 15.5039 12.5161L16.2139 14.3862C16.7514 14.1821 17.3325 14.0317 17.9414 13.9389Z" fill="black"/>
<path d="M21.9756 13.5728L21.5615 11.6167C20.9941 11.7368 20.3867 11.8062 19.7578 11.8232L19.8105 13.8222C20.5615 13.8023 21.29 13.7183 21.9756 13.5728Z" fill="black"/>
</svg>
