<svg width="32" height="31" viewBox="0 0 32 31" fill="none" xmlns="http://www.w3.org/2000/svg">
<path d="M13.9232 19.9999C11.3553 19.9999 9.26599 17.911 9.26599 15.3427C9.26599 12.7748 11.3554 10.686 13.9232 10.686C16.491 10.686 18.5799 12.7749 18.5799 15.3427H20.5799C20.5799 11.6723 17.5936 8.68604 13.9232 8.68604C10.2523 8.68604 7.26599 11.6723 7.26599 15.3427C7.26599 19.0136 10.2523 21.9999 13.9232 21.9999V19.9999Z" fill="black"/>
<path d="M31.9233 20V18H28.9237V17H22.9237V20H13.9233V22H22.9237V25H28.9237V24H31.9233V22H28.9237V20H31.9233ZM26.9237 23H24.9237V19H26.9237V23Z" fill="black"/>
<path d="M14.9233 0H12.9233V6H14.9233V0Z" fill="black"/>
<path d="M14.9233 25H12.9233V31H14.9233V25Z" fill="black"/>
<path d="M0.000167012 8.61621L5.19617 11.6162L6.19617 9.88421L1.00017 6.88421L0.000167012 8.61621Z" fill="black"/>
<path d="M27.847 8.6153L26.847 6.8833L21.651 9.8833L22.651 11.6153L27.847 8.6153Z" fill="black"/>
<path d="M-0.000610352 22.3842L0.99939 24.1162L6.19539 21.1162L5.19539 19.3842L-0.000610352 22.3842Z" fill="black"/>
</svg>
