<svg width="28" height="32" viewBox="0 0 28 32" fill="none" xmlns="http://www.w3.org/2000/svg">
<path d="M16.5 10.5C16.5 7.4673 14.0327 5 11 5C7.9673 5 5.5 7.4673 5.5 10.5C5.5 13.5327 7.9673 16 11 16C11.7366 16 12.4387 15.852 13.0813 15.5881L16.8721 21.625L18.5655 20.5605L14.7608 14.5023C15.8284 13.4984 16.5 12.0778 16.5 10.5ZM7.5 10.5C7.5 8.5703 9.0703 7 11 7C12.9297 7 14.5 8.5703 14.5 10.5C14.5 12.4297 12.9297 14 11 14C9.0703 14 7.5 12.4297 7.5 10.5Z" fill="black"/>
<path d="M23.5 4V0H0.5V28H4.5V32H27.5V4H23.5ZM2.5 26V2H21.5V26H2.5ZM25.5 30H6.5V28H23.5V6H25.5V30Z" fill="black"/>
</svg>
