<svg width="33" height="23" viewBox="0 0 33 23" fill="none" xmlns="http://www.w3.org/2000/svg">
<path d="M24.8076 20.2626V16.3323L28.7661 12.0976L25.7641 0.632324L20.5707 2.17092L18.849 12.9492L22.8076 16.3045V20.2626H10.8076V16.3323L14.7661 12.0976L11.7641 0.632324L6.57082 2.17082L4.84912 12.9491L8.80762 16.3045V20.2626H0.807617V22.2626H32.8076V20.2626H24.8076ZM21.0014 12.1522L22.3461 3.73032L24.352 3.13612L26.5512 11.537L24.8076 13.4029V11.2626H22.8076V13.6827L21.0014 12.1522ZM7.00142 12.1522L8.34612 3.73032L10.352 3.13612L12.5512 11.537L10.8076 13.4029V11.2626H8.80762V13.6827L7.00142 12.1522Z" fill="black"/>
</svg>
