<svg width="30" height="30" viewBox="0 0 30 30" fill="none" xmlns="http://www.w3.org/2000/svg">
<path d="M5 20C2.2386 20 0 22.2386 0 25C0 27.7614 2.2386 30 5 30C7.7614 30 10 27.7614 10 25C10 22.2386 7.7614 20 5 20ZM5 28C3.3458 28 2 26.6542 2 25C2 23.3458 3.3458 22 5 22C6.6542 22 8 23.3458 8 25C8 26.6542 6.6542 28 5 28Z" fill="black"/>
<path d="M19.1716 12.2426L22 9.41422L24.8284 12.2426L26.2426 10.8284L23.4142 8.00002L26.2426 5.17162L24.8284 3.75732L22 6.58582L19.1716 3.75732L17.7574 5.17162L20.5858 8.00002L17.7574 10.8284L19.1716 12.2426Z" fill="black"/>
<path d="M8.09833 4.32562L11.1867 7.41402L12.6009 5.99992L8.35833 1.75722L6.94403 0.343018L5.52983 1.75722L1.28723 5.99992L2.70143 7.41412L6.05653 4.05902C7.21923 16.2475 17.512 25.8134 30 25.8134V23.8134C18.7072 23.8134 9.37533 15.281 8.09833 4.32562Z" fill="black"/>
</svg>
