<svg width="38" height="38" viewBox="0 0 38 38" fill="none" xmlns="http://www.w3.org/2000/svg">
<path d="M19 7H17V9H19V7Z" fill="black"/>
<path d="M15 7H13V9H15V7Z" fill="black"/>
<path d="M11 7H9V9H11V7Z" fill="black"/>
<path d="M34.4451 34.3168L28.0444 13.0573L28.0616 13H29H31V11V5V3H29H25H23V5V7H21V9H23V11V13H25H25.9384L25.9556 13.0573L19.5549 34.3168L21.47 34.8934L26 19.8474V33H28V19.8474L32.53 34.8934L34.4451 34.3168ZM25 5H29V11H25V5Z" fill="black"/>
<path d="M7 7H5V9H7V7Z" fill="black"/>
</svg>
