<svg width="30" height="25" viewBox="0 0 30 25" fill="none" xmlns="http://www.w3.org/2000/svg">
<path d="M15 3.74527L0 0.00537109V10.9947V21.0054V24.9942H14H14.002H15.9981L16 24.9946L30 24.9941V21.0053V10.9946V0.00537109L15 3.74527ZM2 2.56517L14 5.55707V22.4347L2 19.4428V10.9946V2.56517ZM2 21.504L7.9765 22.9941H2V21.504ZM28 22.9941H22.0235L28 21.504V22.9941ZM28 19.4428L16 22.4347V5.55717L28 2.56527V10.9947V19.4428Z" fill="black"/>
<path d="M25.5 15H18.5V17H25.5V15Z" fill="black"/>
<path d="M11.5 15H4.5V17H11.5V15Z" fill="black"/>
<path d="M18.5 11H19V14H21V11H23V14H25V11H25.5V9H18.5V11Z" fill="black"/>
<path d="M7 12H9V14H11V12V10V7H9V10H7H5V12V14H7V12Z" fill="black"/>
</svg>
